{"glyphs":{"0":{"ha":872,"x_min":83,"x_max":790,"o":"m 436 -14 q 177 106 271 -14 q 83 458 83 226 q 177 810 83 690 q 436 931 271 931 q 697 810 603 931 q 790 458 790 690 q 697 106 790 226 q 436 -14 603 -14 m 436 113 q 548 151 503 113 q 616 266 593 189 q 639 458 639 343 q 616 651 639 574 q 548 766 593 728 q 436 804 503 804 q 324 766 369 804 q 257 651 279 728 q 235 458 235 574 q 257 266 235 343 q 324 151 279 189 q 436 113 369 113 z "},"1":{"ha":558,"x_min":25,"x_max":429,"o":"m 282 0 l 282 629 q 283 687 282 657 q 285 750 283 717 q 177 672 238 704 q 53 625 117 639 l 25 754 q 93 774 54 758 q 174 813 132 789 q 250 863 215 836 q 304 917 285 890 l 429 917 l 429 0 l 282 0 z "},"2":{"ha":815,"x_min":68,"x_max":735,"o":"m 97 0 l 97 108 q 319 275 229 203 q 463 408 408 347 q 541 524 517 469 q 565 636 565 579 q 519 756 565 710 q 392 801 474 801 q 255 744 306 801 q 197 586 204 686 l 68 646 q 119 797 78 733 q 233 896 161 861 q 399 931 304 931 q 535 908 476 931 q 635 847 594 886 q 697 754 675 807 q 718 642 718 701 q 675 473 718 554 q 539 307 632 392 q 294 125 446 222 l 294 122 q 340 126 311 125 q 399 127 369 126 q 446 128 428 128 l 735 128 l 735 0 l 97 0 z "},"3":{"ha":814,"x_min":53,"x_max":732,"o":"m 407 -14 q 183 44 278 -14 q 53 206 88 101 l 197 274 q 236 188 210 224 q 306 133 263 151 q 413 114 349 114 q 504 133 467 114 q 562 188 542 153 q 582 267 582 222 q 565 343 582 313 q 510 388 547 374 q 417 401 474 401 q 383 401 400 401 q 346 397 365 400 l 346 522 q 370 520 358 521 q 393 519 382 519 q 522 556 483 519 q 561 668 561 592 q 522 768 561 733 q 408 803 482 803 q 290 767 332 803 q 225 665 247 732 l 89 722 q 154 833 108 786 q 267 906 200 881 q 415 932 335 932 q 580 900 514 932 q 678 813 646 868 q 711 689 711 757 q 696 597 711 636 q 655 528 681 557 q 599 485 629 500 q 539 464 569 469 l 539 461 q 613 445 579 460 q 674 405 647 431 q 717 343 701 379 q 732 264 732 307 q 690 118 732 181 q 576 21 649 56 q 407 -14 503 -14 z "},"4":{"ha":864,"x_min":61,"x_max":804,"o":"m 508 0 l 508 229 l 61 229 l 61 331 q 70 347 64 338 q 85 369 76 357 l 467 917 l 649 917 l 649 344 l 804 344 l 804 229 l 649 229 l 649 0 l 508 0 m 200 344 l 508 344 l 508 668 q 510 737 508 701 q 514 807 513 772 l 511 807 q 472 734 496 774 q 426 665 447 694 l 210 357 q 205 351 207 354 q 200 344 203 349 z "},"5":{"ha":808,"x_min":74,"x_max":732,"o":"m 399 -14 q 198 39 276 -14 q 74 192 119 92 l 213 264 q 276 155 233 197 q 401 113 318 113 q 501 134 460 113 q 564 195 542 156 q 586 290 586 235 q 565 388 586 349 q 506 447 544 426 q 408 467 467 467 q 333 458 368 467 q 271 433 299 450 q 222 388 243 415 l 100 411 l 156 917 l 689 917 l 689 789 l 274 789 l 240 531 l 238 515 l 240 515 q 323 569 272 550 q 443 589 374 589 q 596 552 532 589 q 696 450 660 515 q 732 299 732 385 q 707 165 732 224 q 636 67 682 107 q 530 6 590 26 q 399 -14 469 -14 z "},"6":{"ha":849,"x_min":83,"x_max":774,"o":"m 457 931 q 588 910 531 931 q 687 847 644 890 q 757 735 729 804 l 626 672 q 565 767 607 732 q 447 801 522 801 q 351 775 393 801 q 281 701 310 749 q 236 588 251 653 q 221 449 221 524 q 221 440 221 444 q 221 424 221 435 l 226 421 q 281 510 242 476 q 371 561 321 544 q 469 578 421 578 q 629 542 561 578 q 735 442 697 507 q 774 286 774 376 q 733 127 774 194 q 622 23 693 60 q 450 -14 550 -14 q 251 44 333 -14 q 126 208 169 103 q 83 456 83 314 q 133 718 83 613 q 267 877 182 824 q 457 931 351 931 m 447 454 q 354 433 394 454 q 291 374 314 411 q 268 286 268 336 q 292 199 268 238 q 357 137 317 160 q 447 114 397 114 q 579 160 532 114 q 626 286 626 206 q 606 376 626 338 q 545 434 585 414 q 447 454 506 454 z "},"7":{"ha":799,"x_min":53,"x_max":751,"o":"m 53 917 l 751 917 l 751 793 q 565 548 636 674 q 463 287 494 422 q 432 0 432 151 l 282 0 q 320 298 282 153 q 437 576 358 443 q 635 825 515 708 l 663 788 l 53 788 l 53 917 z "},"8":{"ha":860,"x_min":85,"x_max":775,"o":"m 431 929 q 592 899 524 929 q 699 815 661 869 q 736 685 736 761 q 702 560 736 614 q 603 479 668 507 l 603 478 q 728 391 682 449 q 775 249 775 333 q 733 108 775 167 q 613 18 690 50 q 431 -14 536 -14 q 248 18 325 -14 q 128 108 171 50 q 85 249 85 167 q 131 390 85 332 q 258 478 176 449 l 258 479 q 160 559 196 506 q 124 685 124 613 q 161 815 124 761 q 268 899 199 869 q 431 929 338 929 m 431 804 q 313 768 357 804 q 269 669 269 732 q 314 572 269 607 q 431 536 358 536 q 547 572 503 536 q 590 669 590 607 q 547 768 590 732 q 431 804 504 804 m 431 111 q 535 129 492 111 q 601 182 578 147 q 625 263 625 217 q 601 345 625 311 q 533 397 576 379 q 431 415 490 415 q 328 397 372 415 q 259 345 283 379 q 235 263 235 311 q 258 182 235 217 q 326 129 282 147 q 431 111 371 111 z "},"9":{"ha":857,"x_min":85,"x_max":774,"o":"m 411 931 q 610 872 529 931 q 733 708 692 814 q 774 460 774 603 q 731 197 774 301 q 607 39 688 92 q 413 -14 526 -14 q 213 38 296 -14 q 88 192 129 89 l 228 257 q 292 153 247 192 q 415 114 338 114 q 522 139 479 114 q 591 211 565 164 q 628 325 617 258 q 639 475 639 392 q 639 483 639 479 q 639 490 639 486 l 633 490 q 578 400 618 435 q 489 349 539 365 q 389 333 439 333 q 231 369 300 333 q 124 468 163 404 q 85 619 85 532 q 124 785 85 715 q 237 892 164 854 q 411 931 310 931 m 413 800 q 278 753 325 800 q 232 621 232 706 q 281 503 232 546 q 413 461 331 461 q 506 483 465 461 q 569 542 546 504 q 592 629 592 579 q 569 720 592 682 q 506 779 546 758 q 413 800 465 800 z "},"A":{"ha":924,"x_min":28,"x_max":897,"o":"m 897 0 l 740 0 l 653 240 l 268 240 l 181 0 l 28 0 l 374 917 l 551 917 l 897 0 m 310 361 l 611 361 l 461 789 l 310 361 z "},"Á":{"ha":924,"x_min":28,"x_max":897,"o":"m 897 0 l 740 0 l 653 240 l 268 240 l 181 0 l 28 0 l 374 917 l 551 917 l 897 0 m 310 361 l 611 361 l 461 789 l 310 361 m 481 1246 l 625 1246 l 504 1024 l 390 1024 l 481 1246 z "},"Ă":{"ha":924,"x_min":28,"x_max":897,"o":"m 897 0 l 740 0 l 653 240 l 268 240 l 181 0 l 28 0 l 374 917 l 551 917 l 897 0 m 310 361 l 611 361 l 461 789 l 310 361 m 676 1226 q 618 1072 676 1131 q 463 1014 560 1014 q 308 1072 367 1014 q 249 1226 249 1131 l 357 1226 q 385 1146 358 1179 q 463 1113 411 1113 q 541 1146 515 1113 q 568 1226 567 1179 l 676 1226 z "},"Ắ":{"ha":924,"x_min":28,"x_max":897,"o":"m 672 1222 q 614 1071 672 1128 q 463 1014 556 1014 q 310 1071 368 1014 q 251 1222 251 1128 l 357 1222 q 385 1143 358 1176 q 463 1110 411 1110 q 540 1143 514 1110 q 567 1222 565 1176 l 672 1222 m 385 1249 l 457 1435 l 596 1435 l 492 1249 l 385 1249 m 897 0 l 740 0 l 653 240 l 268 240 l 181 0 l 28 0 l 374 917 l 551 917 l 897 0 m 310 361 l 611 361 l 461 789 l 310 361 z "},"Ặ":{"ha":924,"x_min":28,"x_max":897,"o":"m 897 0 l 740 0 l 653 240 l 268 240 l 181 0 l 28 0 l 374 917 l 551 917 l 897 0 m 310 361 l 611 361 l 461 789 l 310 361 m 463 -303 q 392 -278 418 -303 q 367 -211 367 -253 q 392 -144 367 -168 q 463 -119 418 -119 q 534 -144 508 -119 q 560 -211 560 -168 q 534 -278 560 -253 q 463 -303 508 -303 m 676 1226 q 618 1072 676 1131 q 463 1014 560 1014 q 308 1072 367 1014 q 249 1226 249 1131 l 357 1226 q 385 1146 358 1179 q 463 1113 411 1113 q 541 1146 515 1113 q 568 1226 567 1179 l 676 1226 z "},"Ằ":{"ha":924,"x_min":28,"x_max":897,"o":"m 672 1222 q 614 1071 672 1128 q 463 1014 556 1014 q 310 1071 368 1014 q 251 1222 251 1128 l 357 1222 q 385 1143 358 1176 q 463 1110 411 1110 q 540 1143 514 1110 q 567 1222 565 1176 l 672 1222 m 539 1249 l 432 1249 l 328 1435 l 467 1435 l 539 1249 m 897 0 l 740 0 l 653 240 l 268 240 l 181 0 l 28 0 l 374 917 l 551 917 l 897 0 m 310 361 l 611 361 l 461 789 l 310 361 z "},"Ẳ":{"ha":924,"x_min":28,"x_max":897,"o":"m 672 1222 q 614 1071 672 1128 q 463 1014 556 1014 q 310 1071 368 1014 q 251 1222 251 1128 l 357 1222 q 385 1143 358 1176 q 463 1110 411 1110 q 540 1143 514 1110 q 567 1222 565 1176 l 672 1222 m 464 1228 l 422 1278 q 475 1314 458 1296 q 492 1360 492 1332 q 479 1394 492 1381 q 442 1407 467 1407 q 406 1398 421 1407 q 381 1368 392 1389 l 306 1414 q 364 1479 325 1456 q 458 1503 403 1503 q 528 1487 497 1503 q 576 1443 558 1471 q 593 1379 593 1415 q 577 1313 593 1343 q 531 1261 561 1282 q 464 1228 501 1240 m 897 0 l 740 0 l 653 240 l 268 240 l 181 0 l 28 0 l 374 917 l 551 917 l 897 0 m 310 361 l 611 361 l 461 789 l 310 361 z "},"Ẵ":{"ha":924,"x_min":28,"x_max":897,"o":"m 672 1222 q 615 1071 672 1128 q 463 1014 557 1014 q 310 1071 368 1014 q 253 1222 253 1128 l 358 1222 q 386 1143 360 1176 q 463 1110 413 1110 q 541 1143 515 1110 q 568 1222 567 1176 l 672 1222 m 708 1450 q 661 1313 703 1357 q 556 1268 619 1268 q 491 1281 517 1268 q 447 1309 465 1293 q 412 1338 429 1325 q 374 1350 394 1350 q 333 1331 347 1350 q 314 1271 319 1311 l 215 1271 q 263 1408 222 1364 q 372 1453 304 1453 q 435 1440 410 1453 q 478 1412 460 1428 q 513 1383 497 1396 q 550 1371 529 1371 q 590 1390 576 1371 q 610 1450 604 1410 l 708 1450 m 897 0 l 740 0 l 653 240 l 268 240 l 181 0 l 28 0 l 374 917 l 551 917 l 897 0 m 310 361 l 611 361 l 461 789 l 310 361 z "},"Â":{"ha":924,"x_min":28,"x_max":897,"o":"m 897 0 l 740 0 l 653 240 l 268 240 l 181 0 l 28 0 l 374 917 l 551 917 l 897 0 m 310 361 l 611 361 l 461 789 l 310 361 m 689 1024 l 568 1024 l 463 1165 l 357 1024 l 236 1024 l 385 1246 l 540 1246 l 689 1024 z "},"Ấ":{"ha":924,"x_min":28,"x_max":897,"o":"m 690 1015 l 572 1015 l 463 1163 l 351 1015 l 233 1015 l 386 1246 l 538 1246 l 690 1015 m 724 1372 l 853 1372 l 744 1172 l 642 1172 l 724 1372 m 897 0 l 740 0 l 653 240 l 268 240 l 181 0 l 28 0 l 374 917 l 551 917 l 897 0 m 310 361 l 611 361 l 461 789 l 310 361 z "},"Ậ":{"ha":924,"x_min":28,"x_max":897,"o":"m 897 0 l 740 0 l 653 240 l 268 240 l 181 0 l 28 0 l 374 917 l 551 917 l 897 0 m 310 361 l 611 361 l 461 789 l 310 361 m 463 -303 q 392 -278 418 -303 q 367 -211 367 -253 q 392 -144 367 -168 q 463 -119 418 -119 q 534 -144 508 -119 q 560 -211 560 -168 q 534 -278 560 -253 q 463 -303 508 -303 m 689 1024 l 568 1024 l 463 1165 l 357 1024 l 236 1024 l 385 1246 l 540 1246 l 689 1024 z "},"Ầ":{"ha":924,"x_min":28,"x_max":897,"o":"m 690 1015 l 572 1015 l 463 1163 l 351 1015 l 233 1015 l 386 1246 l 538 1246 l 690 1015 m 690 1372 l 772 1172 l 669 1172 l 561 1372 l 690 1372 m 897 0 l 740 0 l 653 240 l 268 240 l 181 0 l 28 0 l 374 917 l 551 917 l 897 0 m 310 361 l 611 361 l 461 789 l 310 361 z "},"Ẩ":{"ha":924,"x_min":28,"x_max":897,"o":"m 690 1015 l 572 1015 l 463 1163 l 351 1015 l 233 1015 l 386 1246 l 538 1246 l 690 1015 m 693 1146 l 650 1197 q 705 1235 688 1217 q 722 1281 722 1253 q 709 1315 722 1301 q 671 1329 696 1329 q 635 1319 650 1329 q 610 1289 621 1310 l 532 1336 q 592 1403 551 1379 q 688 1426 632 1426 q 759 1410 728 1426 q 808 1366 790 1394 q 826 1300 826 1338 q 810 1233 826 1264 q 763 1180 793 1201 q 693 1146 732 1158 m 897 0 l 740 0 l 653 240 l 268 240 l 181 0 l 28 0 l 374 917 l 551 917 l 897 0 m 310 361 l 611 361 l 461 789 l 310 361 z "},"Ẫ":{"ha":924,"x_min":28,"x_max":897,"o":"m 690 1015 l 572 1015 l 463 1163 l 351 1015 l 233 1015 l 386 1246 l 538 1246 l 690 1015 m 707 1464 q 660 1326 701 1371 q 554 1282 618 1282 q 490 1294 515 1282 q 446 1322 464 1307 q 410 1351 428 1338 q 372 1364 393 1364 q 333 1344 346 1364 q 313 1285 319 1324 l 214 1285 q 262 1422 221 1378 q 372 1467 303 1467 q 434 1453 408 1467 q 478 1425 460 1440 q 513 1397 496 1410 q 549 1385 529 1385 q 589 1404 575 1385 q 610 1464 603 1424 l 707 1464 m 897 0 l 740 0 l 653 240 l 268 240 l 181 0 l 28 0 l 374 917 l 551 917 l 897 0 m 310 361 l 611 361 l 461 789 l 310 361 z "},"Ȁ":{"ha":924,"x_min":28,"x_max":897,"o":"m 897 0 l 740 0 l 653 240 l 268 240 l 181 0 l 28 0 l 374 917 l 551 917 l 897 0 m 310 361 l 611 361 l 461 789 l 310 361 m 299 1246 l 389 1024 l 275 1024 l 154 1246 l 299 1246 m 564 1246 l 654 1024 l 540 1024 l 419 1246 l 564 1246 z "},"Ä":{"ha":924,"x_min":28,"x_max":897,"o":"m 897 0 l 740 0 l 653 240 l 268 240 l 181 0 l 28 0 l 374 917 l 551 917 l 897 0 m 310 361 l 611 361 l 461 789 l 310 361 m 322 1194 q 388 1171 364 1194 q 413 1107 413 1147 q 388 1044 413 1068 q 322 1019 364 1019 q 257 1044 282 1019 q 232 1107 232 1068 q 257 1171 232 1147 q 322 1194 282 1194 m 603 1194 q 669 1171 644 1194 q 693 1107 693 1147 q 669 1044 693 1068 q 603 1019 644 1019 q 537 1044 561 1019 q 513 1107 513 1068 q 537 1171 513 1147 q 603 1194 561 1194 z "},"Ạ":{"ha":924,"x_min":28,"x_max":897,"o":"m 897 0 l 740 0 l 653 240 l 268 240 l 181 0 l 28 0 l 374 917 l 551 917 l 897 0 m 310 361 l 611 361 l 461 789 l 310 361 m 463 -303 q 392 -278 418 -303 q 367 -211 367 -253 q 392 -144 367 -168 q 463 -119 418 -119 q 534 -144 508 -119 q 560 -211 560 -168 q 534 -278 560 -253 q 463 -303 508 -303 z "},"À":{"ha":924,"x_min":28,"x_max":897,"o":"m 897 0 l 740 0 l 653 240 l 268 240 l 181 0 l 28 0 l 374 917 l 551 917 l 897 0 m 310 361 l 611 361 l 461 789 l 310 361 m 438 1246 l 528 1024 l 414 1024 l 293 1246 l 438 1246 z "},"Ả":{"ha":924,"x_min":28,"x_max":897,"o":"m 897 0 l 740 0 l 653 240 l 268 240 l 181 0 l 28 0 l 374 917 l 551 917 l 897 0 m 310 361 l 611 361 l 461 789 l 310 361 m 464 988 l 421 1039 q 475 1076 457 1057 q 493 1122 493 1094 q 480 1156 493 1142 q 440 1171 467 1171 q 406 1161 421 1171 q 381 1129 392 1151 l 301 1176 q 362 1244 322 1219 q 458 1268 401 1268 q 530 1252 499 1268 q 579 1208 561 1236 q 597 1142 597 1179 q 581 1074 597 1104 q 533 1022 564 1043 q 464 988 503 1000 z "},"Ȃ":{"ha":924,"x_min":28,"x_max":897,"o":"m 897 0 l 740 0 l 653 240 l 268 240 l 181 0 l 28 0 l 374 917 l 551 917 l 897 0 m 310 361 l 611 361 l 461 789 l 310 361 m 676 1014 l 568 1014 q 541 1094 567 1061 q 463 1128 515 1128 q 385 1094 411 1128 q 357 1014 358 1061 l 249 1014 q 308 1168 249 1110 q 463 1226 367 1226 q 618 1168 560 1226 q 676 1014 676 1110 z "},"Ā":{"ha":924,"x_min":28,"x_max":897,"o":"m 897 0 l 740 0 l 653 240 l 268 240 l 181 0 l 28 0 l 374 917 l 551 917 l 897 0 m 310 361 l 611 361 l 461 789 l 310 361 m 697 1147 l 697 1039 l 228 1039 l 228 1147 l 697 1147 z "},"Ą":{"ha":924,"x_min":28,"x_max":910,"o":"m 789 -299 q 699 -281 738 -299 q 638 -231 660 -264 q 615 -150 615 -199 q 667 -31 615 -79 q 821 43 718 17 l 897 0 q 792 -40 829 -18 q 742 -86 756 -62 q 728 -135 728 -110 q 751 -185 728 -168 q 813 -203 774 -203 q 850 -200 831 -203 q 885 -187 869 -197 l 910 -272 q 855 -292 888 -286 q 789 -299 822 -299 m 897 0 l 740 0 l 653 240 l 268 240 l 181 0 l 28 0 l 374 917 l 551 917 l 897 0 m 310 361 l 611 361 l 461 789 l 310 361 z "},"Å":{"ha":924,"x_min":28,"x_max":897,"o":"m 897 0 l 740 0 l 653 240 l 268 240 l 181 0 l 28 0 l 374 917 l 551 917 l 897 0 m 310 361 l 611 361 l 461 789 l 310 361 m 461 1174 q 591 1128 542 1174 q 640 1007 640 1082 q 591 885 640 932 q 461 839 542 839 q 329 885 379 839 q 279 1007 279 932 q 329 1128 279 1082 q 461 1174 379 1174 m 461 1096 q 395 1071 421 1096 q 369 1007 369 1046 q 395 943 369 968 q 461 918 421 918 q 526 943 501 918 q 551 1007 551 968 q 526 1071 551 1046 q 461 1096 501 1096 z "},"Ǻ":{"ha":924,"x_min":28,"x_max":897,"o":"m 897 0 l 740 0 l 653 240 l 268 240 l 181 0 l 28 0 l 374 917 l 551 917 l 897 0 m 310 361 l 611 361 l 461 789 l 310 361 m 461 1174 q 591 1128 542 1174 q 640 1007 640 1082 q 591 885 640 932 q 461 839 542 839 q 329 885 379 839 q 279 1007 279 932 q 329 1128 279 1082 q 461 1174 379 1174 m 461 1096 q 395 1071 421 1096 q 369 1007 369 1046 q 395 943 369 968 q 461 918 421 918 q 526 943 501 918 q 551 1007 551 968 q 526 1071 551 1046 q 461 1096 501 1096 m 485 1464 l 629 1464 l 508 1242 l 394 1242 l 485 1464 z "},"Ã":{"ha":924,"x_min":28,"x_max":897,"o":"m 897 0 l 740 0 l 653 240 l 268 240 l 181 0 l 28 0 l 374 917 l 551 917 l 897 0 m 310 361 l 611 361 l 461 789 l 310 361 m 719 1218 q 697 1109 717 1153 q 642 1044 676 1065 q 560 1022 608 1022 q 494 1036 521 1022 q 447 1067 467 1050 q 408 1099 426 1085 q 368 1113 389 1113 q 324 1088 339 1113 q 304 1021 310 1064 l 203 1021 q 250 1169 208 1119 q 367 1218 292 1218 q 431 1204 404 1218 q 478 1173 458 1190 q 516 1142 499 1156 q 554 1128 533 1128 q 598 1152 583 1128 q 619 1218 613 1176 l 719 1218 z "},"Æ":{"ha":1313,"x_min":4,"x_max":1249,"o":"m 758 125 l 1249 125 l 1249 0 l 614 0 l 614 289 l 311 289 l 160 0 l 4 0 l 497 917 l 1229 917 l 1229 792 l 758 792 l 758 525 l 1117 525 l 1117 401 l 758 401 l 758 125 m 369 408 l 614 408 l 614 793 l 578 793 l 369 408 z "},"Ǽ":{"ha":1313,"x_min":4,"x_max":1249,"o":"m 758 125 l 1249 125 l 1249 0 l 614 0 l 614 289 l 311 289 l 160 0 l 4 0 l 497 917 l 1229 917 l 1229 792 l 758 792 l 758 525 l 1117 525 l 1117 401 l 758 401 l 758 125 m 369 408 l 614 408 l 614 793 l 578 793 l 369 408 m 704 1246 l 849 1246 l 728 1024 l 614 1024 l 704 1246 z "},"B":{"ha":919,"x_min":136,"x_max":839,"o":"m 136 0 l 136 917 l 497 917 q 739 850 663 917 q 815 665 815 783 q 774 537 815 593 q 651 465 732 481 l 651 464 q 790 391 740 450 q 839 254 839 332 q 753 68 839 136 q 503 0 667 0 l 136 0 m 282 124 l 510 124 q 641 160 597 124 q 685 261 685 196 q 641 363 685 326 q 510 399 597 399 l 282 399 l 282 124 m 282 522 l 486 522 q 661 657 661 522 q 486 792 661 792 l 282 792 l 282 522 z "},"C":{"ha":950,"x_min":85,"x_max":896,"o":"m 896 243 q 813 102 868 160 q 682 15 757 44 q 517 -14 607 -14 q 288 43 385 -14 q 138 206 190 100 q 85 458 85 311 q 138 711 85 606 q 288 874 190 817 q 515 931 385 931 q 678 906 606 931 q 803 831 751 881 q 882 706 854 781 l 742 643 q 661 763 714 725 q 524 801 608 801 q 375 761 439 801 q 276 644 311 721 q 240 458 240 568 q 274 273 240 350 q 369 156 307 196 q 519 115 432 115 q 666 159 604 115 q 754 290 728 203 l 896 243 z "},"Ć":{"ha":950,"x_min":85,"x_max":896,"o":"m 896 243 q 813 102 868 160 q 682 15 757 44 q 517 -14 607 -14 q 288 43 385 -14 q 138 206 190 100 q 85 458 85 311 q 138 711 85 606 q 288 874 190 817 q 515 931 385 931 q 678 906 606 931 q 803 831 751 881 q 882 706 854 781 l 742 643 q 661 763 714 725 q 524 801 608 801 q 375 761 439 801 q 276 644 311 721 q 240 458 240 568 q 274 273 240 350 q 369 156 307 196 q 519 115 432 115 q 666 159 604 115 q 754 290 728 203 l 896 243 m 531 1246 l 675 1246 l 554 1024 l 440 1024 l 531 1246 z "},"Č":{"ha":950,"x_min":85,"x_max":896,"o":"m 896 243 q 813 102 868 160 q 682 15 757 44 q 517 -14 607 -14 q 288 43 385 -14 q 138 206 190 100 q 85 458 85 311 q 138 711 85 606 q 288 874 190 817 q 515 931 385 931 q 678 906 606 931 q 803 831 751 881 q 882 706 854 781 l 742 643 q 661 763 714 725 q 524 801 608 801 q 375 761 439 801 q 276 644 311 721 q 240 458 240 568 q 274 273 240 350 q 369 156 307 196 q 519 115 432 115 q 666 159 604 115 q 754 290 728 203 l 896 243 m 739 1246 l 590 1024 l 435 1024 l 286 1246 l 407 1246 l 513 1104 l 618 1246 l 739 1246 z "},"Ç":{"ha":950,"x_min":85,"x_max":896,"o":"m 896 243 q 813 102 868 160 q 682 15 757 44 q 517 -14 607 -14 q 288 43 385 -14 q 138 206 190 100 q 85 458 85 311 q 138 711 85 606 q 288 874 190 817 q 515 931 385 931 q 678 906 606 931 q 803 831 751 881 q 882 706 854 781 l 742 643 q 661 763 714 725 q 524 801 608 801 q 375 761 439 801 q 276 644 311 721 q 240 458 240 568 q 274 273 240 350 q 369 156 307 196 q 519 115 432 115 q 666 159 604 115 q 754 290 728 203 l 896 243 m 425 8 l 483 43 q 613 -24 574 21 q 653 -133 653 -69 q 604 -251 653 -204 q 476 -299 556 -299 q 398 -287 431 -299 q 342 -258 365 -276 l 372 -168 q 411 -190 390 -181 q 463 -199 432 -199 q 524 -174 500 -199 q 549 -107 549 -150 q 522 -45 549 -71 q 425 8 494 -19 z "},"Ḉ":{"ha":950,"x_min":85,"x_max":896,"o":"m 896 243 q 813 102 868 160 q 682 15 757 44 q 517 -14 607 -14 q 288 43 385 -14 q 138 206 190 100 q 85 458 85 311 q 138 711 85 606 q 288 874 190 817 q 515 931 385 931 q 678 906 606 931 q 803 831 751 881 q 882 706 854 781 l 742 643 q 661 763 714 725 q 524 801 608 801 q 375 761 439 801 q 276 644 311 721 q 240 458 240 568 q 274 273 240 350 q 369 156 307 196 q 519 115 432 115 q 666 159 604 115 q 754 290 728 203 l 896 243 m 425 8 l 483 43 q 613 -24 574 21 q 653 -133 653 -69 q 604 -251 653 -204 q 476 -299 556 -299 q 398 -287 431 -299 q 342 -258 365 -276 l 372 -168 q 411 -190 390 -181 q 463 -199 432 -199 q 524 -174 500 -199 q 549 -107 549 -150 q 522 -45 549 -71 q 425 8 494 -19 m 531 1246 l 675 1246 l 554 1024 l 440 1024 l 531 1246 z "},"Ĉ":{"ha":950,"x_min":85,"x_max":896,"o":"m 896 243 q 813 102 868 160 q 682 15 757 44 q 517 -14 607 -14 q 288 43 385 -14 q 138 206 190 100 q 85 458 85 311 q 138 711 85 606 q 288 874 190 817 q 515 931 385 931 q 678 906 606 931 q 803 831 751 881 q 882 706 854 781 l 742 643 q 661 763 714 725 q 524 801 608 801 q 375 761 439 801 q 276 644 311 721 q 240 458 240 568 q 274 273 240 350 q 369 156 307 196 q 519 115 432 115 q 666 159 604 115 q 754 290 728 203 l 896 243 m 739 1024 l 618 1024 l 513 1165 l 407 1024 l 286 1024 l 435 1246 l 590 1246 l 739 1024 z "},"Ċ":{"ha":950,"x_min":85,"x_max":896,"o":"m 896 243 q 813 102 868 160 q 682 15 757 44 q 517 -14 607 -14 q 288 43 385 -14 q 138 206 190 100 q 85 458 85 311 q 138 711 85 606 q 288 874 190 817 q 515 931 385 931 q 678 906 606 931 q 803 831 751 881 q 882 706 854 781 l 742 643 q 661 763 714 725 q 524 801 608 801 q 375 761 439 801 q 276 644 311 721 q 240 458 240 568 q 274 273 240 350 q 369 156 307 196 q 519 115 432 115 q 666 159 604 115 q 754 290 728 203 l 896 243 m 513 1219 q 584 1194 558 1219 q 610 1128 610 1169 q 584 1060 610 1085 q 513 1036 558 1036 q 442 1060 468 1036 q 417 1128 417 1085 q 442 1194 417 1169 q 513 1219 468 1219 z "},"D":{"ha":1000,"x_min":136,"x_max":915,"o":"m 460 917 q 795 798 675 917 q 915 458 915 679 q 795 119 915 238 q 460 0 675 0 l 136 0 l 136 917 l 460 917 m 460 126 q 683 213 606 126 q 760 458 760 300 q 683 703 760 617 q 460 790 606 790 l 285 790 l 285 126 l 460 126 z "},"Ǳ":{"ha":1863,"x_min":136,"x_max":1796,"o":"m 460 917 q 795 798 675 917 q 915 458 915 679 q 795 119 915 238 q 460 0 675 0 l 136 0 l 136 917 l 460 917 m 460 126 q 683 213 606 126 q 760 458 760 300 q 683 703 760 617 q 460 790 606 790 l 285 790 l 285 126 l 460 126 m 1181 75 l 1154 126 l 1794 126 l 1794 0 l 1054 0 l 1054 121 l 1651 842 l 1678 790 l 1067 790 l 1067 917 l 1778 917 l 1778 796 l 1181 75 z "},"Ǆ":{"ha":1863,"x_min":136,"x_max":1796,"o":"m 460 917 q 795 798 675 917 q 915 458 915 679 q 795 119 915 238 q 460 0 675 0 l 136 0 l 136 917 l 460 917 m 460 126 q 683 213 606 126 q 760 458 760 300 q 683 703 760 617 q 460 790 606 790 l 285 790 l 285 126 l 460 126 m 1181 75 l 1154 126 l 1794 126 l 1794 0 l 1054 0 l 1054 121 l 1651 842 l 1678 790 l 1067 790 l 1067 917 l 1778 917 l 1778 796 l 1181 75 m 1643 1246 l 1494 1024 l 1339 1024 l 1190 1246 l 1311 1246 l 1417 1104 l 1522 1246 l 1643 1246 z "},"Ð":{"ha":1025,"x_min":31,"x_max":940,"o":"m 31 400 l 31 524 l 556 524 l 556 400 l 31 400 m 485 917 q 820 798 700 917 q 940 458 940 679 q 820 119 940 238 q 485 0 700 0 l 161 0 l 161 917 l 485 917 m 485 126 q 708 213 631 126 q 786 458 786 300 q 708 703 786 617 q 485 790 631 790 l 310 790 l 310 126 l 485 126 z "},"Ď":{"ha":1000,"x_min":136,"x_max":915,"o":"m 460 917 q 795 798 675 917 q 915 458 915 679 q 795 119 915 238 q 460 0 675 0 l 136 0 l 136 917 l 460 917 m 460 126 q 683 213 606 126 q 760 458 760 300 q 683 703 760 617 q 460 790 606 790 l 285 790 l 285 126 l 460 126 m 725 1246 l 576 1024 l 421 1024 l 272 1246 l 393 1246 l 499 1104 l 604 1246 l 725 1246 z "},"Đ":{"ha":1025,"x_min":31,"x_max":940,"o":"m 31 400 l 31 524 l 556 524 l 556 400 l 31 400 m 485 917 q 820 798 700 917 q 940 458 940 679 q 820 119 940 238 q 485 0 700 0 l 161 0 l 161 917 l 485 917 m 485 126 q 708 213 631 126 q 786 458 786 300 q 708 703 786 617 q 485 790 631 790 l 310 790 l 310 126 l 485 126 z "},"Ḍ":{"ha":1000,"x_min":136,"x_max":915,"o":"m 460 917 q 795 798 675 917 q 915 458 915 679 q 795 119 915 238 q 460 0 675 0 l 136 0 l 136 917 l 460 917 m 460 126 q 683 213 606 126 q 760 458 760 300 q 683 703 760 617 q 460 790 606 790 l 285 790 l 285 126 l 460 126 m 476 -303 q 406 -278 432 -303 q 381 -211 381 -253 q 406 -144 381 -168 q 476 -119 432 -119 q 548 -144 522 -119 q 574 -211 574 -168 q 548 -278 574 -253 q 476 -303 522 -303 z "},"Ḏ":{"ha":1000,"x_min":136,"x_max":915,"o":"m 460 917 q 795 798 675 917 q 915 458 915 679 q 795 119 915 238 q 460 0 675 0 l 136 0 l 136 917 l 460 917 m 460 126 q 683 213 606 126 q 760 458 760 300 q 683 703 760 617 q 460 790 606 790 l 285 790 l 285 126 l 460 126 m 711 -122 l 711 -231 l 242 -231 l 242 -122 l 711 -122 z "},"ǲ":{"ha":1728,"x_min":136,"x_max":1661,"o":"m 460 917 q 795 798 675 917 q 915 458 915 679 q 795 119 915 238 q 460 0 675 0 l 136 0 l 136 917 l 460 917 m 460 126 q 683 213 606 126 q 760 458 760 300 q 683 703 760 617 q 460 790 606 790 l 285 790 l 285 126 l 460 126 m 1064 0 l 1064 103 l 1400 494 l 1485 581 l 1364 578 l 1067 578 l 1067 694 l 1649 694 l 1649 592 l 1313 200 l 1229 114 l 1361 117 l 1661 117 l 1661 0 l 1064 0 z "},"ǅ":{"ha":1728,"x_min":136,"x_max":1661,"o":"m 460 917 q 795 798 675 917 q 915 458 915 679 q 795 119 915 238 q 460 0 675 0 l 136 0 l 136 917 l 460 917 m 460 126 q 683 213 606 126 q 760 458 760 300 q 683 703 760 617 q 460 790 606 790 l 285 790 l 285 126 l 460 126 m 1064 0 l 1064 103 l 1400 494 l 1485 581 l 1364 578 l 1067 578 l 1067 694 l 1649 694 l 1649 592 l 1313 200 l 1229 114 l 1361 117 l 1661 117 l 1661 0 l 1064 0 m 1576 1036 l 1419 803 l 1264 803 l 1107 1036 l 1229 1036 l 1342 888 l 1454 1036 l 1576 1036 z "},"E":{"ha":883,"x_min":136,"x_max":819,"o":"m 136 0 l 136 917 l 800 917 l 800 789 l 285 789 l 285 525 l 688 525 l 688 400 l 285 400 l 285 128 l 819 128 l 819 0 l 136 0 z "},"É":{"ha":883,"x_min":136,"x_max":819,"o":"m 136 0 l 136 917 l 800 917 l 800 789 l 285 789 l 285 525 l 688 525 l 688 400 l 285 400 l 285 128 l 819 128 l 819 0 l 136 0 m 483 1246 l 628 1246 l 507 1024 l 393 1024 l 483 1246 z "},"Ĕ":{"ha":883,"x_min":136,"x_max":819,"o":"m 136 0 l 136 917 l 800 917 l 800 789 l 285 789 l 285 525 l 688 525 l 688 400 l 285 400 l 285 128 l 819 128 l 819 0 l 136 0 m 682 1226 q 624 1072 682 1131 q 468 1014 565 1014 q 313 1072 372 1014 q 254 1226 254 1131 l 363 1226 q 390 1146 364 1179 q 468 1113 417 1113 q 547 1146 521 1113 q 574 1226 572 1179 l 682 1226 z "},"Ě":{"ha":883,"x_min":136,"x_max":819,"o":"m 136 0 l 136 917 l 800 917 l 800 789 l 285 789 l 285 525 l 688 525 l 688 400 l 285 400 l 285 128 l 819 128 l 819 0 l 136 0 m 694 1246 l 546 1024 l 390 1024 l 242 1246 l 363 1246 l 468 1104 l 574 1246 l 694 1246 z "},"Ḝ":{"ha":883,"x_min":136,"x_max":819,"o":"m 136 0 l 136 917 l 800 917 l 800 789 l 285 789 l 285 525 l 688 525 l 688 400 l 285 400 l 285 128 l 819 128 l 819 0 l 136 0 m 399 8 l 457 43 q 587 -24 547 21 q 626 -133 626 -69 q 578 -251 626 -204 q 450 -299 529 -299 q 372 -287 404 -299 q 315 -258 339 -276 l 346 -168 q 385 -190 364 -181 q 436 -199 406 -199 q 498 -174 474 -199 q 522 -107 522 -150 q 495 -45 522 -71 q 399 8 468 -19 m 682 1226 q 624 1072 682 1131 q 468 1014 565 1014 q 313 1072 372 1014 q 254 1226 254 1131 l 363 1226 q 390 1146 364 1179 q 468 1113 417 1113 q 547 1146 521 1113 q 574 1226 572 1179 l 682 1226 z "},"Ê":{"ha":883,"x_min":136,"x_max":819,"o":"m 136 0 l 136 917 l 800 917 l 800 789 l 285 789 l 285 525 l 688 525 l 688 400 l 285 400 l 285 128 l 819 128 l 819 0 l 136 0 m 694 1024 l 574 1024 l 468 1165 l 363 1024 l 242 1024 l 390 1246 l 546 1246 l 694 1024 z "},"Ế":{"ha":883,"x_min":136,"x_max":860,"o":"m 697 1015 l 579 1015 l 468 1163 l 357 1015 l 239 1015 l 393 1246 l 543 1246 l 697 1015 m 729 1372 l 860 1372 l 751 1172 l 649 1172 l 729 1372 m 136 0 l 136 917 l 800 917 l 800 789 l 285 789 l 285 525 l 688 525 l 688 400 l 285 400 l 285 128 l 819 128 l 819 0 l 136 0 z "},"Ệ":{"ha":883,"x_min":136,"x_max":819,"o":"m 136 0 l 136 917 l 800 917 l 800 789 l 285 789 l 285 525 l 688 525 l 688 400 l 285 400 l 285 128 l 819 128 l 819 0 l 136 0 m 483 -303 q 413 -278 439 -303 q 388 -211 388 -253 q 413 -144 388 -168 q 483 -119 439 -119 q 555 -144 529 -119 q 581 -211 581 -168 q 555 -278 581 -253 q 483 -303 529 -303 m 694 1024 l 574 1024 l 468 1165 l 363 1024 l 242 1024 l 390 1246 l 546 1246 l 694 1024 z "},"Ề":{"ha":883,"x_min":136,"x_max":819,"o":"m 697 1015 l 579 1015 l 468 1163 l 357 1015 l 239 1015 l 393 1246 l 543 1246 l 697 1015 m 697 1372 l 778 1172 l 675 1172 l 567 1372 l 697 1372 m 136 0 l 136 917 l 800 917 l 800 789 l 285 789 l 285 525 l 688 525 l 688 400 l 285 400 l 285 128 l 819 128 l 819 0 l 136 0 z "},"Ể":{"ha":883,"x_min":136,"x_max":833,"o":"m 697 1015 l 579 1015 l 468 1163 l 357 1015 l 239 1015 l 393 1246 l 543 1246 l 697 1015 m 700 1146 l 657 1197 q 711 1235 693 1217 q 729 1281 729 1253 q 716 1315 729 1301 q 676 1329 703 1329 q 642 1319 657 1329 q 617 1289 628 1310 l 538 1336 q 598 1403 558 1379 q 694 1426 638 1426 q 766 1410 735 1426 q 815 1366 797 1394 q 833 1300 833 1338 q 816 1233 833 1264 q 769 1180 799 1201 q 700 1146 739 1158 m 136 0 l 136 917 l 800 917 l 800 789 l 285 789 l 285 525 l 688 525 l 688 400 l 285 400 l 285 128 l 819 128 l 819 0 l 136 0 z "},"Ễ":{"ha":883,"x_min":136,"x_max":819,"o":"m 697 1015 l 579 1015 l 468 1163 l 357 1015 l 239 1015 l 393 1246 l 543 1246 l 697 1015 m 714 1464 q 667 1326 708 1371 q 560 1282 625 1282 q 497 1294 522 1282 q 452 1322 471 1307 q 417 1351 433 1338 q 378 1364 400 1364 q 339 1344 353 1364 q 319 1285 325 1324 l 221 1285 q 268 1422 226 1378 q 378 1467 310 1467 q 440 1453 415 1467 q 484 1425 465 1440 q 519 1397 503 1410 q 556 1385 535 1385 q 595 1404 581 1385 q 615 1464 610 1424 l 714 1464 m 136 0 l 136 917 l 800 917 l 800 789 l 285 789 l 285 525 l 688 525 l 688 400 l 285 400 l 285 128 l 819 128 l 819 0 l 136 0 z "},"Ȅ":{"ha":883,"x_min":136,"x_max":819,"o":"m 136 0 l 136 917 l 800 917 l 800 789 l 285 789 l 285 525 l 688 525 l 688 400 l 285 400 l 285 128 l 819 128 l 819 0 l 136 0 m 304 1246 l 394 1024 l 281 1024 l 160 1246 l 304 1246 m 569 1246 l 660 1024 l 546 1024 l 425 1246 l 569 1246 z "},"Ë":{"ha":883,"x_min":136,"x_max":819,"o":"m 136 0 l 136 917 l 800 917 l 800 789 l 285 789 l 285 525 l 688 525 l 688 400 l 285 400 l 285 128 l 819 128 l 819 0 l 136 0 m 328 1194 q 394 1171 369 1194 q 418 1107 418 1147 q 394 1044 418 1068 q 328 1019 369 1019 q 263 1044 288 1019 q 238 1107 238 1068 q 263 1171 238 1147 q 328 1194 288 1194 m 608 1194 q 674 1171 650 1194 q 699 1107 699 1147 q 674 1044 699 1068 q 608 1019 650 1019 q 542 1044 567 1019 q 518 1107 518 1068 q 542 1171 518 1147 q 608 1194 567 1194 z "},"Ė":{"ha":883,"x_min":136,"x_max":819,"o":"m 136 0 l 136 917 l 800 917 l 800 789 l 285 789 l 285 525 l 688 525 l 688 400 l 285 400 l 285 128 l 819 128 l 819 0 l 136 0 m 468 1219 q 540 1194 514 1219 q 565 1128 565 1169 q 540 1060 565 1085 q 468 1036 514 1036 q 398 1060 424 1036 q 372 1128 372 1085 q 398 1194 372 1169 q 468 1219 424 1219 z "},"Ẹ":{"ha":883,"x_min":136,"x_max":819,"o":"m 136 0 l 136 917 l 800 917 l 800 789 l 285 789 l 285 525 l 688 525 l 688 400 l 285 400 l 285 128 l 819 128 l 819 0 l 136 0 m 483 -303 q 413 -278 439 -303 q 388 -211 388 -253 q 413 -144 388 -168 q 483 -119 439 -119 q 555 -144 529 -119 q 581 -211 581 -168 q 555 -278 581 -253 q 483 -303 529 -303 z "},"È":{"ha":883,"x_min":136,"x_max":819,"o":"m 136 0 l 136 917 l 800 917 l 800 789 l 285 789 l 285 525 l 688 525 l 688 400 l 285 400 l 285 128 l 819 128 l 819 0 l 136 0 m 450 1246 l 540 1024 l 426 1024 l 306 1246 l 450 1246 z "},"Ẻ":{"ha":883,"x_min":136,"x_max":819,"o":"m 136 0 l 136 917 l 800 917 l 800 789 l 285 789 l 285 525 l 688 525 l 688 400 l 285 400 l 285 128 l 819 128 l 819 0 l 136 0 m 469 988 l 426 1039 q 481 1076 463 1057 q 499 1122 499 1094 q 485 1156 499 1142 q 446 1171 472 1171 q 412 1161 426 1171 q 386 1129 397 1151 l 307 1176 q 367 1244 328 1219 q 464 1268 407 1268 q 535 1252 504 1268 q 585 1208 567 1236 q 603 1142 603 1179 q 586 1074 603 1104 q 539 1022 569 1043 q 469 988 508 1000 z "},"Ȇ":{"ha":883,"x_min":136,"x_max":819,"o":"m 136 0 l 136 917 l 800 917 l 800 789 l 285 789 l 285 525 l 688 525 l 688 400 l 285 400 l 285 128 l 819 128 l 819 0 l 136 0 m 682 1014 l 574 1014 q 547 1094 572 1061 q 468 1128 521 1128 q 390 1094 417 1128 q 363 1014 364 1061 l 254 1014 q 313 1168 254 1110 q 468 1226 372 1226 q 624 1168 565 1226 q 682 1014 682 1110 z "},"Ē":{"ha":883,"x_min":136,"x_max":819,"o":"m 136 0 l 136 917 l 800 917 l 800 789 l 285 789 l 285 525 l 688 525 l 688 400 l 285 400 l 285 128 l 819 128 l 819 0 l 136 0 m 703 1147 l 703 1039 l 233 1039 l 233 1147 l 703 1147 z "},"Ḗ":{"ha":883,"x_min":136,"x_max":819,"o":"m 136 0 l 136 917 l 800 917 l 800 789 l 285 789 l 285 525 l 688 525 l 688 400 l 285 400 l 285 128 l 819 128 l 819 0 l 136 0 m 703 1147 l 703 1039 l 233 1039 l 233 1147 l 703 1147 m 486 1474 l 631 1474 l 510 1251 l 396 1251 l 486 1474 z "},"Ḕ":{"ha":883,"x_min":136,"x_max":819,"o":"m 136 0 l 136 917 l 800 917 l 800 789 l 285 789 l 285 525 l 688 525 l 688 400 l 285 400 l 285 128 l 819 128 l 819 0 l 136 0 m 703 1147 l 703 1039 l 233 1039 l 233 1147 l 703 1147 m 450 1474 l 540 1251 l 426 1251 l 306 1474 l 450 1474 z "},"Ę":{"ha":883,"x_min":136,"x_max":822,"o":"m 700 -317 q 610 -299 649 -317 q 549 -250 571 -282 q 526 -175 526 -218 q 587 -48 526 -96 q 754 36 647 0 l 819 0 q 678 -76 718 -39 q 639 -151 639 -114 q 663 -203 639 -185 q 725 -222 686 -222 q 762 -219 742 -222 q 797 -206 782 -215 l 822 -290 q 767 -310 800 -304 q 700 -317 735 -317 m 136 0 l 136 917 l 800 917 l 800 789 l 285 789 l 285 525 l 688 525 l 688 400 l 285 400 l 285 128 l 819 128 l 819 0 l 136 0 z "},"Ǝ":{"ha":883,"x_min":64,"x_max":747,"o":"m 747 0 l 64 0 l 64 128 l 599 128 l 599 400 l 196 400 l 196 525 l 599 525 l 599 789 l 83 789 l 83 917 l 747 917 l 747 0 z "},"Ẽ":{"ha":883,"x_min":136,"x_max":819,"o":"m 136 0 l 136 917 l 800 917 l 800 789 l 285 789 l 285 525 l 688 525 l 688 400 l 285 400 l 285 128 l 819 128 l 819 0 l 136 0 m 725 1218 q 702 1109 722 1153 q 648 1044 682 1065 q 565 1022 614 1022 q 499 1036 526 1022 q 452 1067 472 1050 q 413 1099 432 1085 q 374 1113 394 1113 q 330 1088 344 1113 q 310 1021 315 1064 l 208 1021 q 256 1169 214 1119 q 372 1218 297 1218 q 437 1204 410 1218 q 484 1173 464 1190 q 522 1142 504 1156 q 560 1128 539 1128 q 603 1152 589 1128 q 625 1218 618 1176 l 725 1218 z "},"F":{"ha":849,"x_min":136,"x_max":799,"o":"m 799 789 l 285 789 l 285 522 l 688 522 l 688 394 l 285 394 l 285 0 l 136 0 l 136 917 l 799 917 l 799 789 z "},"G":{"ha":1006,"x_min":85,"x_max":904,"o":"m 508 -14 q 285 43 379 -14 q 138 205 190 100 q 85 458 85 310 q 140 710 85 604 q 295 873 194 815 q 526 931 396 931 q 758 878 669 931 q 899 714 846 825 l 761 649 q 674 763 735 725 q 528 801 614 801 q 377 761 442 801 q 276 644 313 721 q 240 458 240 567 q 272 272 240 349 q 369 154 304 194 q 528 114 433 114 q 624 127 579 114 q 701 166 668 140 q 753 231 735 192 q 772 325 772 271 l 772 351 l 506 351 l 506 472 l 904 472 l 904 0 l 793 0 l 785 185 l 813 171 q 702 35 779 83 q 508 -14 625 -14 z "},"Ğ":{"ha":1006,"x_min":85,"x_max":904,"o":"m 508 -14 q 285 43 379 -14 q 138 205 190 100 q 85 458 85 310 q 140 710 85 604 q 295 873 194 815 q 526 931 396 931 q 758 878 669 931 q 899 714 846 825 l 761 649 q 674 763 735 725 q 528 801 614 801 q 377 761 442 801 q 276 644 313 721 q 240 458 240 567 q 272 272 240 349 q 369 154 304 194 q 528 114 433 114 q 624 127 579 114 q 701 166 668 140 q 753 231 735 192 q 772 325 772 271 l 772 351 l 506 351 l 506 472 l 904 472 l 904 0 l 793 0 l 785 185 l 813 171 q 702 35 779 83 q 508 -14 625 -14 m 729 1226 q 671 1072 729 1131 q 515 1014 613 1014 q 360 1072 419 1014 q 301 1226 301 1131 l 410 1226 q 438 1146 411 1179 q 515 1113 464 1113 q 594 1146 568 1113 q 621 1226 619 1179 l 729 1226 z "},"Ǧ":{"ha":1006,"x_min":85,"x_max":904,"o":"m 508 -14 q 285 43 379 -14 q 138 205 190 100 q 85 458 85 310 q 140 710 85 604 q 295 873 194 815 q 526 931 396 931 q 758 878 669 931 q 899 714 846 825 l 761 649 q 674 763 735 725 q 528 801 614 801 q 377 761 442 801 q 276 644 313 721 q 240 458 240 567 q 272 272 240 349 q 369 154 304 194 q 528 114 433 114 q 624 127 579 114 q 701 166 668 140 q 753 231 735 192 q 772 325 772 271 l 772 351 l 506 351 l 506 472 l 904 472 l 904 0 l 793 0 l 785 185 l 813 171 q 702 35 779 83 q 508 -14 625 -14 m 742 1246 l 593 1024 l 438 1024 l 289 1246 l 410 1246 l 515 1104 l 621 1246 l 742 1246 z "},"Ĝ":{"ha":1006,"x_min":85,"x_max":904,"o":"m 508 -14 q 285 43 379 -14 q 138 205 190 100 q 85 458 85 310 q 140 710 85 604 q 295 873 194 815 q 526 931 396 931 q 758 878 669 931 q 899 714 846 825 l 761 649 q 674 763 735 725 q 528 801 614 801 q 377 761 442 801 q 276 644 313 721 q 240 458 240 567 q 272 272 240 349 q 369 154 304 194 q 528 114 433 114 q 624 127 579 114 q 701 166 668 140 q 753 231 735 192 q 772 325 772 271 l 772 351 l 506 351 l 506 472 l 904 472 l 904 0 l 793 0 l 785 185 l 813 171 q 702 35 779 83 q 508 -14 625 -14 m 742 1024 l 621 1024 l 515 1165 l 410 1024 l 289 1024 l 438 1246 l 593 1246 l 742 1024 z "},"Ģ":{"ha":1006,"x_min":85,"x_max":904,"o":"m 508 -14 q 285 43 379 -14 q 138 205 190 100 q 85 458 85 310 q 140 710 85 604 q 295 873 194 815 q 526 931 396 931 q 758 878 669 931 q 899 714 846 825 l 761 649 q 674 763 735 725 q 528 801 614 801 q 377 761 442 801 q 276 644 313 721 q 240 458 240 567 q 272 272 240 349 q 369 154 304 194 q 528 114 433 114 q 624 127 579 114 q 701 166 668 140 q 753 231 735 192 q 772 325 772 271 l 772 351 l 506 351 l 506 472 l 904 472 l 904 0 l 793 0 l 785 185 l 813 171 q 702 35 779 83 q 508 -14 625 -14 m 628 -99 l 535 -331 l 428 -331 l 483 -99 l 628 -99 z "},"Ġ":{"ha":1006,"x_min":85,"x_max":904,"o":"m 508 -14 q 285 43 379 -14 q 138 205 190 100 q 85 458 85 310 q 140 710 85 604 q 295 873 194 815 q 526 931 396 931 q 758 878 669 931 q 899 714 846 825 l 761 649 q 674 763 735 725 q 528 801 614 801 q 377 761 442 801 q 276 644 313 721 q 240 458 240 567 q 272 272 240 349 q 369 154 304 194 q 528 114 433 114 q 624 127 579 114 q 701 166 668 140 q 753 231 735 192 q 772 325 772 271 l 772 351 l 506 351 l 506 472 l 904 472 l 904 0 l 793 0 l 785 185 l 813 171 q 702 35 779 83 q 508 -14 625 -14 m 515 1219 q 587 1194 561 1219 q 613 1128 613 1169 q 587 1060 613 1085 q 515 1036 561 1036 q 445 1060 471 1036 q 419 1128 419 1085 q 445 1194 419 1169 q 515 1219 471 1219 z "},"Ɂ":{"ha":788,"x_min":38,"x_max":747,"o":"m 408 931 q 585 893 508 931 q 704 790 661 856 q 747 639 747 724 q 708 465 747 531 q 606 365 669 400 q 465 313 542 329 l 465 0 l 318 0 l 318 400 q 481 444 422 414 q 563 521 539 474 q 588 635 588 568 q 563 720 588 683 q 496 778 539 757 q 397 800 453 800 q 244 749 303 800 q 175 607 185 699 l 38 671 q 101 806 54 747 q 226 897 149 864 q 408 931 303 931 z "},"Ḡ":{"ha":1006,"x_min":85,"x_max":904,"o":"m 508 -14 q 285 43 379 -14 q 138 205 190 100 q 85 458 85 310 q 140 710 85 604 q 295 873 194 815 q 526 931 396 931 q 758 878 669 931 q 899 714 846 825 l 761 649 q 674 763 735 725 q 528 801 614 801 q 377 761 442 801 q 276 644 313 721 q 240 458 240 567 q 272 272 240 349 q 369 154 304 194 q 528 114 433 114 q 624 127 579 114 q 701 166 668 140 q 753 231 735 192 q 772 325 772 271 l 772 351 l 506 351 l 506 472 l 904 472 l 904 0 l 793 0 l 785 185 l 813 171 q 702 35 779 83 q 508 -14 625 -14 m 750 1147 l 750 1039 l 281 1039 l 281 1147 l 750 1147 z "},"H":{"ha":1022,"x_min":136,"x_max":888,"o":"m 888 917 l 888 0 l 738 0 l 738 917 l 888 917 m 285 917 l 285 0 l 136 0 l 136 917 l 285 917 m 813 528 l 813 400 l 211 400 l 211 528 l 813 528 z "},"Ħ":{"ha":1022,"x_min":31,"x_max":993,"o":"m 888 917 l 888 0 l 738 0 l 738 917 l 888 917 m 285 917 l 285 0 l 136 0 l 136 917 l 285 917 m 813 528 l 813 400 l 211 400 l 211 528 l 813 528 m 993 774 l 993 665 l 29 665 l 29 774 l 993 774 z "},"Ḫ":{"ha":1022,"x_min":136,"x_max":888,"o":"m 888 917 l 888 0 l 738 0 l 738 917 l 888 917 m 285 917 l 285 0 l 136 0 l 136 917 l 285 917 m 813 528 l 813 400 l 211 400 l 211 528 l 813 528 m 725 -97 q 667 -251 725 -193 q 511 -310 608 -310 q 356 -251 415 -310 q 297 -97 297 -193 l 406 -97 q 433 -178 407 -144 q 511 -211 460 -211 q 590 -178 564 -211 q 617 -97 615 -144 l 725 -97 z "},"Ĥ":{"ha":1022,"x_min":136,"x_max":888,"o":"m 888 917 l 888 0 l 738 0 l 738 917 l 888 917 m 285 917 l 285 0 l 136 0 l 136 917 l 285 917 m 813 528 l 813 400 l 211 400 l 211 528 l 813 528 m 738 1024 l 617 1024 l 511 1165 l 406 1024 l 285 1024 l 433 1246 l 589 1246 l 738 1024 z "},"Ḥ":{"ha":1022,"x_min":136,"x_max":888,"o":"m 888 917 l 888 0 l 738 0 l 738 917 l 888 917 m 285 917 l 285 0 l 136 0 l 136 917 l 285 917 m 813 528 l 813 400 l 211 400 l 211 528 l 813 528 m 511 -303 q 441 -278 467 -303 q 415 -211 415 -253 q 441 -144 415 -168 q 511 -119 467 -119 q 583 -144 557 -119 q 608 -211 608 -168 q 583 -278 608 -253 q 511 -303 557 -303 z "},"I":{"ha":421,"x_min":136,"x_max":285,"o":"m 285 917 l 285 0 l 136 0 l 136 917 l 285 917 z "},"Ĳ":{"ha":1228,"x_min":136,"x_max":1104,"o":"m 285 917 l 285 0 l 136 0 l 136 917 l 285 917 m 1106 917 l 1106 325 q 1017 76 1106 165 q 772 -14 929 -14 q 589 28 660 -14 q 490 145 518 69 q 481 321 463 221 l 624 347 q 642 172 607 228 q 772 115 676 115 q 916 176 876 115 q 956 353 956 236 l 956 917 l 1106 917 z "},"Í":{"ha":421,"x_min":136,"x_max":385,"o":"m 285 917 l 285 0 l 136 0 l 136 917 l 285 917 m 239 1246 l 383 1246 l 263 1024 l 149 1024 l 239 1246 z "},"Ĭ":{"ha":421,"x_min":-4,"x_max":425,"o":"m 285 917 l 285 0 l 136 0 l 136 917 l 285 917 m 424 1226 q 365 1072 424 1131 q 210 1014 307 1014 q 55 1072 114 1014 q -4 1226 -4 1131 l 104 1226 q 132 1146 106 1179 q 210 1113 158 1113 q 288 1146 263 1113 q 315 1226 314 1179 l 424 1226 z "},"Î":{"ha":421,"x_min":-17,"x_max":436,"o":"m 285 917 l 285 0 l 136 0 l 136 917 l 285 917 m 436 1024 l 315 1024 l 210 1165 l 104 1024 l -17 1024 l 132 1246 l 288 1246 l 436 1024 z "},"Ȉ":{"ha":421,"x_min":-99,"x_max":401,"o":"m 285 917 l 285 0 l 136 0 l 136 917 l 285 917 m 46 1246 l 136 1024 l 22 1024 l -99 1246 l 46 1246 m 311 1246 l 401 1024 l 288 1024 l 167 1246 l 311 1246 z "},"Ï":{"ha":421,"x_min":-6,"x_max":426,"o":"m 83 1194 q 149 1171 125 1194 q 174 1107 174 1147 q 149 1044 174 1068 q 83 1019 125 1019 q 19 1044 43 1019 q -6 1107 -6 1068 q 19 1171 -6 1147 q 83 1194 43 1194 m 336 1194 q 402 1171 378 1194 q 426 1107 426 1147 q 402 1044 426 1068 q 336 1019 378 1019 q 271 1044 296 1019 q 246 1107 246 1068 q 271 1171 246 1147 q 336 1194 296 1194 m 285 917 l 285 0 l 136 0 l 136 917 l 285 917 z "},"Ḯ":{"ha":421,"x_min":-21,"x_max":440,"o":"m 285 917 l 285 0 l 136 0 l 136 917 l 285 917 m 69 1194 q 135 1171 111 1194 q 160 1107 160 1147 q 135 1044 160 1068 q 69 1019 111 1019 q 4 1044 29 1019 q -21 1107 -21 1068 q 4 1171 -21 1147 q 69 1194 29 1194 m 350 1194 q 416 1171 392 1194 q 440 1107 440 1147 q 416 1044 440 1068 q 350 1019 392 1019 q 284 1044 308 1019 q 260 1107 260 1068 q 284 1171 260 1147 q 350 1194 308 1194 m 228 1489 l 372 1489 l 251 1267 l 138 1267 l 228 1489 z "},"İ":{"ha":421,"x_min":114,"x_max":307,"o":"m 285 917 l 285 0 l 136 0 l 136 917 l 285 917 m 210 1219 q 281 1194 256 1219 q 307 1128 307 1169 q 281 1060 307 1085 q 210 1036 256 1036 q 140 1060 165 1036 q 114 1128 114 1085 q 140 1194 114 1169 q 210 1219 165 1219 z "},"Ị":{"ha":421,"x_min":114,"x_max":307,"o":"m 285 917 l 285 0 l 136 0 l 136 917 l 285 917 m 210 -303 q 140 -278 165 -303 q 114 -211 114 -253 q 140 -144 114 -168 q 210 -119 165 -119 q 281 -144 256 -119 q 307 -211 307 -168 q 281 -278 307 -253 q 210 -303 256 -303 z "},"Ì":{"ha":421,"x_min":36,"x_max":285,"o":"m 285 917 l 285 0 l 136 0 l 136 917 l 285 917 m 181 1246 l 271 1024 l 157 1024 l 36 1246 l 181 1246 z "},"Ỉ":{"ha":421,"x_min":50,"x_max":344,"o":"m 285 917 l 285 0 l 136 0 l 136 917 l 285 917 m 213 988 l 169 1039 q 224 1076 206 1057 q 242 1122 242 1094 q 228 1156 242 1142 q 189 1171 215 1171 q 155 1161 169 1171 q 129 1129 140 1151 l 50 1176 q 110 1244 71 1219 q 207 1268 150 1268 q 278 1252 247 1268 q 328 1208 310 1236 q 346 1142 346 1179 q 329 1074 346 1104 q 282 1022 313 1043 q 213 988 251 1000 z "},"Ȋ":{"ha":421,"x_min":-4,"x_max":425,"o":"m 285 917 l 285 0 l 136 0 l 136 917 l 285 917 m 424 1014 l 315 1014 q 288 1094 314 1061 q 210 1128 263 1128 q 132 1094 158 1128 q 104 1014 106 1061 l -4 1014 q 55 1168 -4 1110 q 210 1226 114 1226 q 365 1168 307 1226 q 424 1014 424 1110 z "},"Ī":{"ha":421,"x_min":46,"x_max":374,"o":"m 374 1147 l 374 1039 l 46 1039 l 46 1147 l 374 1147 m 285 917 l 285 0 l 136 0 l 136 917 l 285 917 z "},"Į":{"ha":421,"x_min":22,"x_max":306,"o":"m 190 -319 q 106 -303 144 -319 q 45 -254 68 -286 q 22 -174 22 -222 q 47 -81 22 -119 q 115 -15 71 -43 q 215 39 158 14 l 285 0 q 171 -78 204 -42 q 138 -154 138 -115 q 157 -205 138 -186 q 214 -224 176 -224 q 249 -220 231 -224 q 281 -210 268 -217 l 306 -293 q 256 -312 285 -306 q 190 -319 226 -319 m 285 917 l 285 0 l 136 0 l 136 917 l 285 917 z "},"Ĩ":{"ha":421,"x_min":-50,"x_max":468,"o":"m 285 917 l 285 0 l 136 0 l 136 917 l 285 917 m 467 1218 q 444 1109 464 1153 q 390 1044 424 1065 q 307 1022 356 1022 q 241 1036 268 1022 q 194 1067 214 1050 q 155 1099 174 1085 q 115 1113 136 1113 q 72 1088 86 1113 q 51 1021 57 1064 l -50 1021 q -3 1169 -44 1119 q 114 1218 39 1218 q 178 1204 151 1218 q 226 1173 206 1190 q 263 1142 246 1156 q 301 1128 281 1128 q 345 1152 331 1128 q 367 1218 360 1176 l 467 1218 z "},"J":{"ha":808,"x_min":42,"x_max":685,"o":"m 685 917 l 685 325 q 597 76 685 165 q 351 -14 508 -14 q 168 28 239 -14 q 69 145 97 69 q 60 321 42 221 l 203 347 q 221 172 186 228 q 351 115 256 115 q 495 176 456 115 q 535 353 535 236 l 535 917 l 685 917 z "},"Ĵ":{"ha":808,"x_min":42,"x_max":836,"o":"m 685 917 l 685 325 q 597 76 685 165 q 351 -14 508 -14 q 168 28 239 -14 q 69 145 97 69 q 60 321 42 221 l 203 347 q 221 172 186 228 q 351 115 256 115 q 495 176 456 115 q 535 353 535 236 l 535 917 l 685 917 m 836 1024 l 715 1024 l 610 1165 l 504 1024 l 383 1024 l 532 1246 l 688 1246 l 836 1024 z "},"K":{"ha":926,"x_min":136,"x_max":896,"o":"m 888 917 l 479 475 l 463 474 l 225 218 l 211 381 l 706 917 l 888 917 m 285 917 l 285 0 l 136 0 l 136 917 l 285 917 m 510 589 l 896 0 l 721 0 l 392 506 l 510 589 z "},"Ķ":{"ha":926,"x_min":136,"x_max":896,"o":"m 888 917 l 479 475 l 463 474 l 225 218 l 211 381 l 706 917 l 888 917 m 285 917 l 285 0 l 136 0 l 136 917 l 285 917 m 510 589 l 896 0 l 721 0 l 392 506 l 510 589 m 586 -99 l 493 -331 l 386 -331 l 442 -99 l 586 -99 z "},"L":{"ha":832,"x_min":136,"x_max":790,"o":"m 285 128 l 790 128 l 790 0 l 136 0 l 136 917 l 285 917 l 285 128 z "},"Ǉ":{"ha":1640,"x_min":136,"x_max":1517,"o":"m 285 128 l 790 128 l 790 0 l 136 0 l 136 917 l 285 917 l 285 128 m 1517 917 l 1517 325 q 1428 76 1517 165 q 1183 -14 1340 -14 q 1000 28 1071 -14 q 901 145 929 69 q 892 321 874 221 l 1035 347 q 1053 172 1018 228 q 1183 115 1088 115 q 1327 176 1288 115 q 1367 353 1367 236 l 1367 917 l 1517 917 z "},"Ĺ":{"ha":832,"x_min":136,"x_max":790,"o":"m 285 128 l 790 128 l 790 0 l 136 0 l 136 917 l 285 917 l 285 128 m 228 1246 l 372 1246 l 251 1024 l 138 1024 l 228 1246 z "},"Ľ":{"ha":832,"x_min":136,"x_max":790,"o":"m 617 917 l 553 625 l 451 625 l 481 917 l 617 917 m 285 128 l 790 128 l 790 0 l 136 0 l 136 917 l 285 917 l 285 128 z "},"Ļ":{"ha":832,"x_min":136,"x_max":790,"o":"m 285 128 l 790 128 l 790 0 l 136 0 l 136 917 l 285 917 l 285 128 m 564 -99 l 471 -331 l 364 -331 l 419 -99 l 564 -99 z "},"Ŀ":{"ha":869,"x_min":136,"x_max":790,"o":"m 285 128 l 790 128 l 790 0 l 136 0 l 136 917 l 285 917 l 285 128 m 654 601 q 730 574 701 601 q 758 501 758 547 q 730 428 758 456 q 654 400 701 400 q 577 428 606 400 q 549 501 549 456 q 577 574 549 547 q 654 601 606 601 z "},"Ḷ":{"ha":832,"x_min":136,"x_max":790,"o":"m 285 128 l 790 128 l 790 0 l 136 0 l 136 917 l 285 917 l 285 128 m 492 -303 q 422 -278 447 -303 q 396 -211 396 -253 q 422 -144 396 -168 q 492 -119 447 -119 q 563 -144 538 -119 q 589 -211 589 -168 q 563 -278 589 -253 q 492 -303 538 -303 z "},"ǈ":{"ha":1213,"x_min":136,"x_max":1122,"o":"m 285 128 l 790 128 l 790 0 l 136 0 l 136 917 l 285 917 l 285 128 m 1022 811 q 948 835 974 811 q 922 904 922 860 q 948 972 922 949 q 1022 996 974 996 q 1095 972 1069 996 q 1121 904 1121 949 q 1095 835 1121 860 q 1022 811 1069 811 m 1096 694 l 1096 -61 q 1063 -202 1096 -150 q 978 -276 1031 -254 q 868 -299 926 -299 q 782 -286 821 -299 q 717 -253 743 -274 l 742 -133 q 788 -161 761 -150 q 849 -172 815 -172 q 920 -144 893 -172 q 947 -47 947 -115 l 947 694 l 1096 694 z "},"Ḻ":{"ha":832,"x_min":136,"x_max":790,"o":"m 285 128 l 790 128 l 790 0 l 136 0 l 136 917 l 285 917 l 285 128 m 726 -122 l 726 -231 l 257 -231 l 257 -122 l 726 -122 z "},"Ł":{"ha":889,"x_min":44,"x_max":847,"o":"m 585 679 l 585 546 l 44 260 l 44 393 l 585 679 m 342 128 l 847 128 l 847 0 l 192 0 l 192 917 l 342 917 l 342 128 z "},"M":{"ha":1210,"x_min":136,"x_max":1074,"o":"m 1074 917 l 1074 0 l 936 0 l 936 531 l 947 783 l 946 783 l 667 0 l 543 0 l 264 783 l 263 783 l 274 531 l 274 0 l 136 0 l 136 917 l 357 917 l 542 386 l 606 168 l 608 168 l 674 386 l 857 917 l 1074 917 z "},"Ṃ":{"ha":1210,"x_min":136,"x_max":1074,"o":"m 1074 917 l 1074 0 l 936 0 l 936 531 l 947 783 l 946 783 l 667 0 l 543 0 l 264 783 l 263 783 l 274 531 l 274 0 l 136 0 l 136 917 l 357 917 l 542 386 l 606 168 l 608 168 l 674 386 l 857 917 l 1074 917 m 604 -303 q 534 -278 560 -303 q 508 -211 508 -253 q 534 -144 508 -168 q 604 -119 560 -119 q 676 -144 650 -119 q 701 -211 701 -168 q 676 -278 701 -253 q 604 -303 650 -303 z "},"N":{"ha":1022,"x_min":136,"x_max":888,"o":"m 888 917 l 888 0 l 711 0 l 357 578 l 268 740 l 267 740 l 272 592 l 272 0 l 136 0 l 136 917 l 311 917 l 664 340 l 754 175 l 756 175 l 750 325 l 750 917 l 888 917 z "},"Ǌ":{"ha":1831,"x_min":136,"x_max":1707,"o":"m 888 917 l 888 0 l 711 0 l 357 578 l 268 740 l 267 740 l 272 592 l 272 0 l 136 0 l 136 917 l 311 917 l 664 340 l 754 175 l 756 175 l 750 325 l 750 917 l 888 917 m 1707 917 l 1707 325 q 1619 76 1707 165 q 1374 -14 1531 -14 q 1190 28 1261 -14 q 1092 145 1119 69 q 1082 321 1064 221 l 1225 347 q 1243 172 1208 228 q 1374 115 1278 115 q 1517 176 1478 115 q 1557 353 1557 236 l 1557 917 l 1707 917 z "},"Ń":{"ha":1022,"x_min":136,"x_max":888,"o":"m 888 917 l 888 0 l 711 0 l 357 578 l 268 740 l 267 740 l 272 592 l 272 0 l 136 0 l 136 917 l 311 917 l 664 340 l 754 175 l 756 175 l 750 325 l 750 917 l 888 917 m 533 1246 l 678 1246 l 557 1024 l 443 1024 l 533 1246 z "},"Ň":{"ha":1022,"x_min":136,"x_max":888,"o":"m 888 917 l 888 0 l 711 0 l 357 578 l 268 740 l 267 740 l 272 592 l 272 0 l 136 0 l 136 917 l 311 917 l 664 340 l 754 175 l 756 175 l 750 325 l 750 917 l 888 917 m 742 1246 l 593 1024 l 438 1024 l 289 1246 l 410 1246 l 515 1104 l 621 1246 l 742 1246 z "},"Ņ":{"ha":1022,"x_min":136,"x_max":888,"o":"m 888 917 l 888 0 l 711 0 l 357 578 l 268 740 l 267 740 l 272 592 l 272 0 l 136 0 l 136 917 l 311 917 l 664 340 l 754 175 l 756 175 l 750 325 l 750 917 l 888 917 m 618 -99 l 525 -331 l 418 -331 l 474 -99 l 618 -99 z "},"Ṅ":{"ha":1022,"x_min":136,"x_max":888,"o":"m 888 917 l 888 0 l 711 0 l 357 578 l 268 740 l 267 740 l 272 592 l 272 0 l 136 0 l 136 917 l 311 917 l 664 340 l 754 175 l 756 175 l 750 325 l 750 917 l 888 917 m 515 1219 q 587 1194 561 1219 q 613 1128 613 1169 q 587 1060 613 1085 q 515 1036 561 1036 q 445 1060 471 1036 q 419 1128 419 1085 q 445 1194 419 1169 q 515 1219 471 1219 z "},"Ṇ":{"ha":1022,"x_min":136,"x_max":888,"o":"m 888 917 l 888 0 l 711 0 l 357 578 l 268 740 l 267 740 l 272 592 l 272 0 l 136 0 l 136 917 l 311 917 l 664 340 l 754 175 l 756 175 l 750 325 l 750 917 l 888 917 m 546 -303 q 476 -278 501 -303 q 450 -211 450 -253 q 476 -144 450 -168 q 546 -119 501 -119 q 617 -144 592 -119 q 643 -211 643 -168 q 617 -278 643 -253 q 546 -303 592 -303 z "},"Ŋ":{"ha":1022,"x_min":136,"x_max":888,"o":"m 664 -299 q 580 -287 618 -299 q 515 -256 542 -275 l 542 -132 q 588 -160 560 -149 q 650 -171 615 -171 q 721 -143 692 -171 q 750 -47 750 -115 l 750 6 l 358 582 l 268 747 l 267 747 l 272 592 l 272 0 l 136 0 l 136 917 l 311 917 l 689 357 l 750 243 l 751 243 l 750 917 l 888 917 l 888 -61 q 854 -202 888 -150 q 770 -276 821 -254 q 664 -299 719 -299 z "},"ǋ":{"ha":1403,"x_min":136,"x_max":1313,"o":"m 888 917 l 888 0 l 711 0 l 357 578 l 268 740 l 267 740 l 272 592 l 272 0 l 136 0 l 136 917 l 311 917 l 664 340 l 754 175 l 756 175 l 750 325 l 750 917 l 888 917 m 1213 811 q 1138 835 1164 811 q 1113 904 1113 860 q 1138 972 1113 949 q 1213 996 1164 996 q 1285 972 1260 996 q 1311 904 1311 949 q 1285 835 1311 860 q 1213 811 1260 811 m 1286 694 l 1286 -61 q 1253 -202 1286 -150 q 1169 -276 1221 -254 q 1058 -299 1117 -299 q 972 -286 1011 -299 q 907 -253 933 -274 l 932 -133 q 978 -161 951 -150 q 1039 -172 1006 -172 q 1110 -144 1083 -172 q 1138 -47 1138 -115 l 1138 694 l 1286 694 z "},"Ṉ":{"ha":1022,"x_min":136,"x_max":888,"o":"m 888 917 l 888 0 l 711 0 l 357 578 l 268 740 l 267 740 l 272 592 l 272 0 l 136 0 l 136 917 l 311 917 l 664 340 l 754 175 l 756 175 l 750 325 l 750 917 l 888 917 m 781 -122 l 781 -231 l 311 -231 l 311 -122 l 781 -122 z "},"Ñ":{"ha":1022,"x_min":136,"x_max":888,"o":"m 888 917 l 888 0 l 711 0 l 357 578 l 268 740 l 267 740 l 272 592 l 272 0 l 136 0 l 136 917 l 311 917 l 664 340 l 754 175 l 756 175 l 750 325 l 750 917 l 888 917 m 772 1218 q 749 1109 769 1153 q 695 1044 729 1065 q 613 1022 661 1022 q 547 1036 574 1022 q 499 1067 519 1050 q 460 1099 479 1085 q 421 1113 442 1113 q 377 1088 392 1113 q 357 1021 363 1064 l 256 1021 q 303 1169 261 1119 q 419 1218 344 1218 q 484 1204 457 1218 q 531 1173 511 1190 q 569 1142 551 1156 q 607 1128 586 1128 q 651 1152 636 1128 q 672 1218 665 1176 l 772 1218 z "},"O":{"ha":1035,"x_min":85,"x_max":950,"o":"m 517 931 q 747 874 650 931 q 897 711 844 817 q 950 458 950 606 q 897 206 950 311 q 747 43 844 100 q 517 -14 650 -14 q 288 43 385 -14 q 138 206 190 100 q 85 458 85 311 q 138 711 85 606 q 288 874 190 817 q 517 931 385 931 m 517 801 q 369 761 431 801 q 274 644 307 721 q 240 458 240 568 q 274 273 240 350 q 369 156 307 196 q 517 115 431 115 q 666 156 604 115 q 761 273 728 196 q 794 458 794 350 q 761 644 794 568 q 666 761 728 721 q 517 801 604 801 z "},"Ó":{"ha":1035,"x_min":85,"x_max":950,"o":"m 517 931 q 747 874 650 931 q 897 711 844 817 q 950 458 950 606 q 897 206 950 311 q 747 43 844 100 q 517 -14 650 -14 q 288 43 385 -14 q 138 206 190 100 q 85 458 85 311 q 138 711 85 606 q 288 874 190 817 q 517 931 385 931 m 517 801 q 369 761 431 801 q 274 644 307 721 q 240 458 240 568 q 274 273 240 350 q 369 156 307 196 q 517 115 431 115 q 666 156 604 115 q 761 273 728 196 q 794 458 794 350 q 761 644 794 568 q 666 761 728 721 q 517 801 604 801 m 535 1246 l 679 1246 l 558 1024 l 444 1024 l 535 1246 z "},"Ŏ":{"ha":1035,"x_min":85,"x_max":950,"o":"m 517 931 q 747 874 650 931 q 897 711 844 817 q 950 458 950 606 q 897 206 950 311 q 747 43 844 100 q 517 -14 650 -14 q 288 43 385 -14 q 138 206 190 100 q 85 458 85 311 q 138 711 85 606 q 288 874 190 817 q 517 931 385 931 m 517 801 q 369 761 431 801 q 274 644 307 721 q 240 458 240 568 q 274 273 240 350 q 369 156 307 196 q 517 115 431 115 q 666 156 604 115 q 761 273 728 196 q 794 458 794 350 q 761 644 794 568 q 666 761 728 721 q 517 801 604 801 m 731 1226 q 672 1072 731 1131 q 517 1014 614 1014 q 362 1072 421 1014 q 303 1226 303 1131 l 411 1226 q 439 1146 413 1179 q 517 1113 465 1113 q 595 1146 569 1113 q 622 1226 621 1179 l 731 1226 z "},"Ô":{"ha":1035,"x_min":85,"x_max":950,"o":"m 517 931 q 747 874 650 931 q 897 711 844 817 q 950 458 950 606 q 897 206 950 311 q 747 43 844 100 q 517 -14 650 -14 q 288 43 385 -14 q 138 206 190 100 q 85 458 85 311 q 138 711 85 606 q 288 874 190 817 q 517 931 385 931 m 517 801 q 369 761 431 801 q 274 644 307 721 q 240 458 240 568 q 274 273 240 350 q 369 156 307 196 q 517 115 431 115 q 666 156 604 115 q 761 273 728 196 q 794 458 794 350 q 761 644 794 568 q 666 761 728 721 q 517 801 604 801 m 743 1024 l 622 1024 l 517 1165 l 411 1024 l 290 1024 l 439 1246 l 594 1246 l 743 1024 z "},"Ố":{"ha":1035,"x_min":85,"x_max":950,"o":"m 746 1015 l 628 1015 l 517 1163 l 407 1015 l 288 1015 l 442 1246 l 593 1246 l 746 1015 m 779 1372 l 908 1372 l 800 1172 l 697 1172 l 779 1372 m 517 931 q 747 874 650 931 q 897 711 844 817 q 950 458 950 606 q 897 206 950 311 q 747 43 844 100 q 517 -14 650 -14 q 288 43 385 -14 q 138 206 190 100 q 85 458 85 311 q 138 711 85 606 q 288 874 190 817 q 517 931 385 931 m 517 801 q 369 761 431 801 q 274 644 307 721 q 240 458 240 568 q 274 273 240 350 q 369 156 307 196 q 517 115 431 115 q 666 156 604 115 q 761 273 728 196 q 794 458 794 350 q 761 644 794 568 q 666 761 728 721 q 517 801 604 801 z "},"Ộ":{"ha":1035,"x_min":85,"x_max":950,"o":"m 517 931 q 747 874 650 931 q 897 711 844 817 q 950 458 950 606 q 897 206 950 311 q 747 43 844 100 q 517 -14 650 -14 q 288 43 385 -14 q 138 206 190 100 q 85 458 85 311 q 138 711 85 606 q 288 874 190 817 q 517 931 385 931 m 517 801 q 369 761 431 801 q 274 644 307 721 q 240 458 240 568 q 274 273 240 350 q 369 156 307 196 q 517 115 431 115 q 666 156 604 115 q 761 273 728 196 q 794 458 794 350 q 761 644 794 568 q 666 761 728 721 q 517 801 604 801 m 517 -303 q 447 -278 472 -303 q 421 -211 421 -253 q 447 -144 421 -168 q 517 -119 472 -119 q 588 -144 563 -119 q 614 -211 614 -168 q 588 -278 614 -253 q 517 -303 563 -303 m 743 1024 l 622 1024 l 517 1165 l 411 1024 l 290 1024 l 439 1246 l 594 1246 l 743 1024 z "},"Ồ":{"ha":1035,"x_min":85,"x_max":950,"o":"m 746 1015 l 628 1015 l 517 1163 l 407 1015 l 288 1015 l 442 1246 l 593 1246 l 746 1015 m 746 1372 l 828 1172 l 725 1172 l 617 1372 l 746 1372 m 517 931 q 747 874 650 931 q 897 711 844 817 q 950 458 950 606 q 897 206 950 311 q 747 43 844 100 q 517 -14 650 -14 q 288 43 385 -14 q 138 206 190 100 q 85 458 85 311 q 138 711 85 606 q 288 874 190 817 q 517 931 385 931 m 517 801 q 369 761 431 801 q 274 644 307 721 q 240 458 240 568 q 274 273 240 350 q 369 156 307 196 q 517 115 431 115 q 666 156 604 115 q 761 273 728 196 q 794 458 794 350 q 761 644 794 568 q 666 761 728 721 q 517 801 604 801 z "},"Ổ":{"ha":1035,"x_min":85,"x_max":950,"o":"m 746 1015 l 628 1015 l 517 1163 l 407 1015 l 288 1015 l 442 1246 l 593 1246 l 746 1015 m 749 1146 l 706 1197 q 760 1235 743 1217 q 778 1281 778 1253 q 765 1315 778 1301 q 726 1329 751 1329 q 691 1319 706 1329 q 665 1289 676 1310 l 588 1336 q 647 1403 607 1379 q 743 1426 686 1426 q 815 1410 783 1426 q 864 1366 846 1394 q 882 1300 882 1338 q 865 1233 882 1264 q 818 1180 849 1201 q 749 1146 788 1158 m 517 931 q 747 874 650 931 q 897 711 844 817 q 950 458 950 606 q 897 206 950 311 q 747 43 844 100 q 517 -14 650 -14 q 288 43 385 -14 q 138 206 190 100 q 85 458 85 311 q 138 711 85 606 q 288 874 190 817 q 517 931 385 931 m 517 801 q 369 761 431 801 q 274 644 307 721 q 240 458 240 568 q 274 273 240 350 q 369 156 307 196 q 517 115 431 115 q 666 156 604 115 q 761 273 728 196 q 794 458 794 350 q 761 644 794 568 q 666 761 728 721 q 517 801 604 801 z "},"Ỗ":{"ha":1035,"x_min":85,"x_max":950,"o":"m 746 1015 l 628 1015 l 517 1163 l 407 1015 l 288 1015 l 442 1246 l 593 1246 l 746 1015 m 763 1464 q 715 1326 757 1371 q 610 1282 674 1282 q 545 1294 571 1282 q 501 1322 519 1307 q 466 1351 483 1338 q 428 1364 449 1364 q 388 1344 401 1364 q 368 1285 374 1324 l 269 1285 q 317 1422 276 1378 q 426 1467 358 1467 q 489 1453 464 1467 q 533 1425 514 1440 q 567 1397 551 1410 q 604 1385 583 1385 q 644 1404 631 1385 q 665 1464 658 1424 l 763 1464 m 517 931 q 747 874 650 931 q 897 711 844 817 q 950 458 950 606 q 897 206 950 311 q 747 43 844 100 q 517 -14 650 -14 q 288 43 385 -14 q 138 206 190 100 q 85 458 85 311 q 138 711 85 606 q 288 874 190 817 q 517 931 385 931 m 517 801 q 369 761 431 801 q 274 644 307 721 q 240 458 240 568 q 274 273 240 350 q 369 156 307 196 q 517 115 431 115 q 666 156 604 115 q 761 273 728 196 q 794 458 794 350 q 761 644 794 568 q 666 761 728 721 q 517 801 604 801 z "},"Ȍ":{"ha":1035,"x_min":85,"x_max":950,"o":"m 517 931 q 747 874 650 931 q 897 711 844 817 q 950 458 950 606 q 897 206 950 311 q 747 43 844 100 q 517 -14 650 -14 q 288 43 385 -14 q 138 206 190 100 q 85 458 85 311 q 138 711 85 606 q 288 874 190 817 q 517 931 385 931 m 517 801 q 369 761 431 801 q 274 644 307 721 q 240 458 240 568 q 274 273 240 350 q 369 156 307 196 q 517 115 431 115 q 666 156 604 115 q 761 273 728 196 q 794 458 794 350 q 761 644 794 568 q 666 761 728 721 q 517 801 604 801 m 353 1246 l 443 1024 l 329 1024 l 208 1246 l 353 1246 m 618 1246 l 708 1024 l 594 1024 l 474 1246 l 618 1246 z "},"Ö":{"ha":1035,"x_min":85,"x_max":950,"o":"m 517 931 q 747 874 650 931 q 897 711 844 817 q 950 458 950 606 q 897 206 950 311 q 747 43 844 100 q 517 -14 650 -14 q 288 43 385 -14 q 138 206 190 100 q 85 458 85 311 q 138 711 85 606 q 288 874 190 817 q 517 931 385 931 m 517 801 q 369 761 431 801 q 274 644 307 721 q 240 458 240 568 q 274 273 240 350 q 369 156 307 196 q 517 115 431 115 q 666 156 604 115 q 761 273 728 196 q 794 458 794 350 q 761 644 794 568 q 666 761 728 721 q 517 801 604 801 m 376 1194 q 442 1171 418 1194 q 467 1107 467 1147 q 442 1044 467 1068 q 376 1019 418 1019 q 311 1044 336 1019 q 286 1107 286 1068 q 311 1171 286 1147 q 376 1194 336 1194 m 657 1194 q 723 1171 699 1194 q 747 1107 747 1147 q 723 1044 747 1068 q 657 1019 699 1019 q 591 1044 615 1019 q 567 1107 567 1068 q 591 1171 567 1147 q 657 1194 615 1194 z "},"Ȫ":{"ha":1035,"x_min":85,"x_max":950,"o":"m 517 931 q 747 874 650 931 q 897 711 844 817 q 950 458 950 606 q 897 206 950 311 q 747 43 844 100 q 517 -14 650 -14 q 288 43 385 -14 q 138 206 190 100 q 85 458 85 311 q 138 711 85 606 q 288 874 190 817 q 517 931 385 931 m 517 801 q 369 761 431 801 q 274 644 307 721 q 240 458 240 568 q 274 273 240 350 q 369 156 307 196 q 517 115 431 115 q 666 156 604 115 q 761 273 728 196 q 794 458 794 350 q 761 644 794 568 q 666 761 728 721 q 517 801 604 801 m 376 1194 q 442 1171 418 1194 q 467 1107 467 1147 q 442 1044 467 1068 q 376 1019 418 1019 q 311 1044 336 1019 q 286 1107 286 1068 q 311 1171 286 1147 q 376 1194 336 1194 m 657 1194 q 723 1171 699 1194 q 747 1107 747 1147 q 723 1044 747 1068 q 657 1019 699 1019 q 591 1044 615 1019 q 567 1107 567 1068 q 591 1171 567 1147 q 657 1194 615 1194 m 751 1390 l 751 1282 l 282 1282 l 282 1390 l 751 1390 z "},"Ȱ":{"ha":1035,"x_min":85,"x_max":950,"o":"m 517 931 q 747 874 650 931 q 897 711 844 817 q 950 458 950 606 q 897 206 950 311 q 747 43 844 100 q 517 -14 650 -14 q 288 43 385 -14 q 138 206 190 100 q 85 458 85 311 q 138 711 85 606 q 288 874 190 817 q 517 931 385 931 m 517 801 q 369 761 431 801 q 274 644 307 721 q 240 458 240 568 q 274 273 240 350 q 369 156 307 196 q 517 115 431 115 q 666 156 604 115 q 761 273 728 196 q 794 458 794 350 q 761 644 794 568 q 666 761 728 721 q 517 801 604 801 m 517 1219 q 588 1194 563 1219 q 614 1128 614 1169 q 588 1060 614 1085 q 517 1036 563 1036 q 447 1060 472 1036 q 421 1128 421 1085 q 447 1194 421 1169 q 517 1219 472 1219 m 753 1414 l 753 1306 l 283 1306 l 283 1414 l 753 1414 z "},"Ọ":{"ha":1035,"x_min":85,"x_max":950,"o":"m 517 931 q 747 874 650 931 q 897 711 844 817 q 950 458 950 606 q 897 206 950 311 q 747 43 844 100 q 517 -14 650 -14 q 288 43 385 -14 q 138 206 190 100 q 85 458 85 311 q 138 711 85 606 q 288 874 190 817 q 517 931 385 931 m 517 801 q 369 761 431 801 q 274 644 307 721 q 240 458 240 568 q 274 273 240 350 q 369 156 307 196 q 517 115 431 115 q 666 156 604 115 q 761 273 728 196 q 794 458 794 350 q 761 644 794 568 q 666 761 728 721 q 517 801 604 801 m 517 -303 q 447 -278 472 -303 q 421 -211 421 -253 q 447 -144 421 -168 q 517 -119 472 -119 q 588 -144 563 -119 q 614 -211 614 -168 q 588 -278 614 -253 q 517 -303 563 -303 z "},"Ò":{"ha":1035,"x_min":85,"x_max":950,"o":"m 517 931 q 747 874 650 931 q 897 711 844 817 q 950 458 950 606 q 897 206 950 311 q 747 43 844 100 q 517 -14 650 -14 q 288 43 385 -14 q 138 206 190 100 q 85 458 85 311 q 138 711 85 606 q 288 874 190 817 q 517 931 385 931 m 517 801 q 369 761 431 801 q 274 644 307 721 q 240 458 240 568 q 274 273 240 350 q 369 156 307 196 q 517 115 431 115 q 666 156 604 115 q 761 273 728 196 q 794 458 794 350 q 761 644 794 568 q 666 761 728 721 q 517 801 604 801 m 488 1246 l 578 1024 l 464 1024 l 343 1246 l 488 1246 z "},"Ỏ":{"ha":1035,"x_min":85,"x_max":950,"o":"m 517 931 q 747 874 650 931 q 897 711 844 817 q 950 458 950 606 q 897 206 950 311 q 747 43 844 100 q 517 -14 650 -14 q 288 43 385 -14 q 138 206 190 100 q 85 458 85 311 q 138 711 85 606 q 288 874 190 817 q 517 931 385 931 m 517 801 q 369 761 431 801 q 274 644 307 721 q 240 458 240 568 q 274 273 240 350 q 369 156 307 196 q 517 115 431 115 q 666 156 604 115 q 761 273 728 196 q 794 458 794 350 q 761 644 794 568 q 666 761 728 721 q 517 801 604 801 m 519 988 l 476 1039 q 531 1076 513 1057 q 549 1122 549 1094 q 535 1156 549 1142 q 496 1171 522 1171 q 462 1161 476 1171 q 436 1129 447 1151 l 357 1176 q 417 1244 378 1219 q 514 1268 457 1268 q 585 1252 554 1268 q 635 1208 617 1236 q 653 1142 653 1179 q 636 1074 653 1104 q 589 1022 619 1043 q 519 988 558 1000 z "},"Ơ":{"ha":1035,"x_min":85,"x_max":950,"o":"m 914 1065 q 848 881 914 947 q 654 815 782 815 l 632 917 q 757 955 724 917 q 790 1065 790 993 l 914 1065 m 517 931 q 747 874 650 931 q 897 711 844 817 q 950 458 950 606 q 897 206 950 311 q 747 43 844 100 q 517 -14 650 -14 q 288 43 385 -14 q 138 206 190 100 q 85 458 85 311 q 138 711 85 606 q 288 874 190 817 q 517 931 385 931 m 517 801 q 369 761 431 801 q 274 644 307 721 q 240 458 240 568 q 274 273 240 350 q 369 156 307 196 q 517 115 431 115 q 666 156 604 115 q 761 273 728 196 q 794 458 794 350 q 761 644 794 568 q 666 761 728 721 q 517 801 604 801 z "},"Ớ":{"ha":1035,"x_min":85,"x_max":950,"o":"m 914 1065 q 848 881 914 947 q 654 815 782 815 l 632 917 q 757 955 724 917 q 790 1065 790 993 l 914 1065 m 517 931 q 747 874 650 931 q 897 711 844 817 q 950 458 950 606 q 897 206 950 311 q 747 43 844 100 q 517 -14 650 -14 q 288 43 385 -14 q 138 206 190 100 q 85 458 85 311 q 138 711 85 606 q 288 874 190 817 q 517 931 385 931 m 517 801 q 369 761 431 801 q 274 644 307 721 q 240 458 240 568 q 274 273 240 350 q 369 156 307 196 q 517 115 431 115 q 666 156 604 115 q 761 273 728 196 q 794 458 794 350 q 761 644 794 568 q 666 761 728 721 q 517 801 604 801 m 535 1246 l 679 1246 l 558 1024 l 444 1024 l 535 1246 z "},"Ợ":{"ha":1035,"x_min":85,"x_max":950,"o":"m 914 1065 q 848 881 914 947 q 654 815 782 815 l 632 917 q 757 955 724 917 q 790 1065 790 993 l 914 1065 m 517 931 q 747 874 650 931 q 897 711 844 817 q 950 458 950 606 q 897 206 950 311 q 747 43 844 100 q 517 -14 650 -14 q 288 43 385 -14 q 138 206 190 100 q 85 458 85 311 q 138 711 85 606 q 288 874 190 817 q 517 931 385 931 m 517 801 q 369 761 431 801 q 274 644 307 721 q 240 458 240 568 q 274 273 240 350 q 369 156 307 196 q 517 115 431 115 q 666 156 604 115 q 761 273 728 196 q 794 458 794 350 q 761 644 794 568 q 666 761 728 721 q 517 801 604 801 m 517 -303 q 447 -278 472 -303 q 421 -211 421 -253 q 447 -144 421 -168 q 517 -119 472 -119 q 588 -144 563 -119 q 614 -211 614 -168 q 588 -278 614 -253 q 517 -303 563 -303 z "},"Ờ":{"ha":1035,"x_min":85,"x_max":950,"o":"m 914 1065 q 848 881 914 947 q 654 815 782 815 l 632 917 q 757 955 724 917 q 790 1065 790 993 l 914 1065 m 517 931 q 747 874 650 931 q 897 711 844 817 q 950 458 950 606 q 897 206 950 311 q 747 43 844 100 q 517 -14 650 -14 q 288 43 385 -14 q 138 206 190 100 q 85 458 85 311 q 138 711 85 606 q 288 874 190 817 q 517 931 385 931 m 517 801 q 369 761 431 801 q 274 644 307 721 q 240 458 240 568 q 274 273 240 350 q 369 156 307 196 q 517 115 431 115 q 666 156 604 115 q 761 273 728 196 q 794 458 794 350 q 761 644 794 568 q 666 761 728 721 q 517 801 604 801 m 499 1246 l 589 1024 l 475 1024 l 354 1246 l 499 1246 z "},"Ở":{"ha":1035,"x_min":85,"x_max":950,"o":"m 914 1065 q 848 881 914 947 q 654 815 782 815 l 632 917 q 757 955 724 917 q 790 1065 790 993 l 914 1065 m 517 931 q 747 874 650 931 q 897 711 844 817 q 950 458 950 606 q 897 206 950 311 q 747 43 844 100 q 517 -14 650 -14 q 288 43 385 -14 q 138 206 190 100 q 85 458 85 311 q 138 711 85 606 q 288 874 190 817 q 517 931 385 931 m 517 801 q 369 761 431 801 q 274 644 307 721 q 240 458 240 568 q 274 273 240 350 q 369 156 307 196 q 517 115 431 115 q 666 156 604 115 q 761 273 728 196 q 794 458 794 350 q 761 644 794 568 q 666 761 728 721 q 517 801 604 801 m 519 988 l 476 1039 q 531 1076 513 1057 q 549 1122 549 1094 q 535 1156 549 1142 q 496 1171 522 1171 q 462 1161 476 1171 q 436 1129 447 1151 l 357 1176 q 417 1244 378 1219 q 514 1268 457 1268 q 585 1252 554 1268 q 635 1208 617 1236 q 653 1142 653 1179 q 636 1074 653 1104 q 589 1022 619 1043 q 519 988 558 1000 z "},"Ỡ":{"ha":1035,"x_min":85,"x_max":950,"o":"m 914 1065 q 848 881 914 947 q 654 815 782 815 l 632 917 q 757 955 724 917 q 790 1065 790 993 l 914 1065 m 517 931 q 747 874 650 931 q 897 711 844 817 q 950 458 950 606 q 897 206 950 311 q 747 43 844 100 q 517 -14 650 -14 q 288 43 385 -14 q 138 206 190 100 q 85 458 85 311 q 138 711 85 606 q 288 874 190 817 q 517 931 385 931 m 517 801 q 369 761 431 801 q 274 644 307 721 q 240 458 240 568 q 274 273 240 350 q 369 156 307 196 q 517 115 431 115 q 666 156 604 115 q 761 273 728 196 q 794 458 794 350 q 761 644 794 568 q 666 761 728 721 q 517 801 604 801 m 764 1218 q 741 1109 761 1153 q 687 1044 721 1065 q 604 1022 653 1022 q 538 1036 565 1022 q 491 1067 511 1050 q 452 1099 471 1085 q 413 1113 433 1113 q 369 1088 383 1113 q 349 1021 354 1064 l 247 1021 q 294 1169 253 1119 q 411 1218 336 1218 q 476 1204 449 1218 q 523 1173 503 1190 q 560 1142 543 1156 q 599 1128 578 1128 q 642 1152 628 1128 q 664 1218 657 1176 l 764 1218 z "},"Ő":{"ha":1035,"x_min":85,"x_max":950,"o":"m 517 931 q 747 874 650 931 q 897 711 844 817 q 950 458 950 606 q 897 206 950 311 q 747 43 844 100 q 517 -14 650 -14 q 288 43 385 -14 q 138 206 190 100 q 85 458 85 311 q 138 711 85 606 q 288 874 190 817 q 517 931 385 931 m 517 801 q 369 761 431 801 q 274 644 307 721 q 240 458 240 568 q 274 273 240 350 q 369 156 307 196 q 517 115 431 115 q 666 156 604 115 q 761 273 728 196 q 794 458 794 350 q 761 644 794 568 q 666 761 728 721 q 517 801 604 801 m 681 1246 l 825 1246 l 704 1024 l 590 1024 l 681 1246 m 415 1246 l 560 1246 l 439 1024 l 325 1024 l 415 1246 z "},"Ȏ":{"ha":1035,"x_min":85,"x_max":950,"o":"m 517 931 q 747 874 650 931 q 897 711 844 817 q 950 458 950 606 q 897 206 950 311 q 747 43 844 100 q 517 -14 650 -14 q 288 43 385 -14 q 138 206 190 100 q 85 458 85 311 q 138 711 85 606 q 288 874 190 817 q 517 931 385 931 m 517 801 q 369 761 431 801 q 274 644 307 721 q 240 458 240 568 q 274 273 240 350 q 369 156 307 196 q 517 115 431 115 q 666 156 604 115 q 761 273 728 196 q 794 458 794 350 q 761 644 794 568 q 666 761 728 721 q 517 801 604 801 m 731 1014 l 622 1014 q 595 1094 621 1061 q 517 1128 569 1128 q 439 1094 465 1128 q 411 1014 413 1061 l 303 1014 q 362 1168 303 1110 q 517 1226 421 1226 q 672 1168 614 1226 q 731 1014 731 1110 z "},"Ō":{"ha":1035,"x_min":85,"x_max":950,"o":"m 517 931 q 747 874 650 931 q 897 711 844 817 q 950 458 950 606 q 897 206 950 311 q 747 43 844 100 q 517 -14 650 -14 q 288 43 385 -14 q 138 206 190 100 q 85 458 85 311 q 138 711 85 606 q 288 874 190 817 q 517 931 385 931 m 517 801 q 369 761 431 801 q 274 644 307 721 q 240 458 240 568 q 274 273 240 350 q 369 156 307 196 q 517 115 431 115 q 666 156 604 115 q 761 273 728 196 q 794 458 794 350 q 761 644 794 568 q 666 761 728 721 q 517 801 604 801 m 751 1147 l 751 1039 l 282 1039 l 282 1147 l 751 1147 z "},"Ṓ":{"ha":1035,"x_min":85,"x_max":950,"o":"m 517 931 q 747 874 650 931 q 897 711 844 817 q 950 458 950 606 q 897 206 950 311 q 747 43 844 100 q 517 -14 650 -14 q 288 43 385 -14 q 138 206 190 100 q 85 458 85 311 q 138 711 85 606 q 288 874 190 817 q 517 931 385 931 m 517 801 q 369 761 431 801 q 274 644 307 721 q 240 458 240 568 q 274 273 240 350 q 369 156 307 196 q 517 115 431 115 q 666 156 604 115 q 761 273 728 196 q 794 458 794 350 q 761 644 794 568 q 666 761 728 721 q 517 801 604 801 m 751 1147 l 751 1039 l 282 1039 l 282 1147 l 751 1147 m 535 1474 l 679 1474 l 558 1251 l 444 1251 l 535 1474 z "},"Ṑ":{"ha":1035,"x_min":85,"x_max":950,"o":"m 517 931 q 747 874 650 931 q 897 711 844 817 q 950 458 950 606 q 897 206 950 311 q 747 43 844 100 q 517 -14 650 -14 q 288 43 385 -14 q 138 206 190 100 q 85 458 85 311 q 138 711 85 606 q 288 874 190 817 q 517 931 385 931 m 517 801 q 369 761 431 801 q 274 644 307 721 q 240 458 240 568 q 274 273 240 350 q 369 156 307 196 q 517 115 431 115 q 666 156 604 115 q 761 273 728 196 q 794 458 794 350 q 761 644 794 568 q 666 761 728 721 q 517 801 604 801 m 751 1147 l 751 1039 l 282 1039 l 282 1147 l 751 1147 m 499 1474 l 589 1251 l 475 1251 l 354 1474 l 499 1474 z "},"Ǫ":{"ha":1035,"x_min":85,"x_max":950,"o":"m 517 931 q 747 874 650 931 q 897 711 844 817 q 950 458 950 606 q 897 206 950 311 q 747 43 844 100 q 517 -14 650 -14 q 288 43 385 -14 q 138 206 190 100 q 85 458 85 311 q 138 711 85 606 q 288 874 190 817 q 517 931 385 931 m 517 801 q 369 761 431 801 q 274 644 307 721 q 240 458 240 568 q 274 273 240 350 q 369 156 307 196 q 517 115 431 115 q 666 156 604 115 q 761 273 728 196 q 794 458 794 350 q 761 644 794 568 q 666 761 728 721 q 517 801 604 801 m 564 -310 q 438 -269 482 -310 q 393 -162 393 -229 q 445 -39 393 -85 q 599 39 497 7 l 669 10 q 563 -40 599 -15 q 513 -89 526 -64 q 500 -143 500 -114 q 523 -195 500 -176 q 583 -214 546 -214 q 622 -210 603 -214 q 656 -199 640 -206 l 675 -286 q 625 -303 654 -297 q 564 -310 596 -310 z "},"Ø":{"ha":1035,"x_min":85,"x_max":950,"o":"m 328 108 l 263 161 l 700 782 l 767 732 l 328 108 m 111 -47 l 256 154 l 322 101 l 214 -47 l 111 -47 m 776 743 l 710 794 l 822 947 l 924 947 l 776 743 m 517 931 q 747 874 650 931 q 897 711 844 817 q 950 458 950 606 q 897 206 950 311 q 747 43 844 100 q 517 -14 650 -14 q 288 43 385 -14 q 138 206 190 100 q 85 458 85 311 q 138 711 85 606 q 288 874 190 817 q 517 931 385 931 m 517 801 q 369 761 431 801 q 274 644 307 721 q 240 458 240 568 q 274 273 240 350 q 369 156 307 196 q 517 115 431 115 q 666 156 604 115 q 761 273 728 196 q 794 458 794 350 q 761 644 794 568 q 666 761 728 721 q 517 801 604 801 z "},"Ǿ":{"ha":1035,"x_min":85,"x_max":950,"o":"m 328 108 l 263 161 l 700 782 l 767 732 l 328 108 m 111 -47 l 256 154 l 322 101 l 214 -47 l 111 -47 m 776 743 l 710 794 l 822 947 l 924 947 l 776 743 m 517 931 q 747 874 650 931 q 897 711 844 817 q 950 458 950 606 q 897 206 950 311 q 747 43 844 100 q 517 -14 650 -14 q 288 43 385 -14 q 138 206 190 100 q 85 458 85 311 q 138 711 85 606 q 288 874 190 817 q 517 931 385 931 m 517 801 q 369 761 431 801 q 274 644 307 721 q 240 458 240 568 q 274 273 240 350 q 369 156 307 196 q 517 115 431 115 q 666 156 604 115 q 761 273 728 196 q 794 458 794 350 q 761 644 794 568 q 666 761 728 721 q 517 801 604 801 m 535 1246 l 679 1246 l 558 1024 l 444 1024 l 535 1246 z "},"Õ":{"ha":1035,"x_min":85,"x_max":950,"o":"m 517 931 q 747 874 650 931 q 897 711 844 817 q 950 458 950 606 q 897 206 950 311 q 747 43 844 100 q 517 -14 650 -14 q 288 43 385 -14 q 138 206 190 100 q 85 458 85 311 q 138 711 85 606 q 288 874 190 817 q 517 931 385 931 m 517 801 q 369 761 431 801 q 274 644 307 721 q 240 458 240 568 q 274 273 240 350 q 369 156 307 196 q 517 115 431 115 q 666 156 604 115 q 761 273 728 196 q 794 458 794 350 q 761 644 794 568 q 666 761 728 721 q 517 801 604 801 m 774 1218 q 751 1109 771 1153 q 697 1044 731 1065 q 614 1022 663 1022 q 548 1036 575 1022 q 501 1067 521 1050 q 462 1099 481 1085 q 422 1113 443 1113 q 378 1088 393 1113 q 358 1021 364 1064 l 257 1021 q 304 1169 263 1119 q 421 1218 346 1218 q 485 1204 458 1218 q 533 1173 513 1190 q 570 1142 553 1156 q 608 1128 588 1128 q 652 1152 638 1128 q 674 1218 667 1176 l 774 1218 z "},"Ṍ":{"ha":1035,"x_min":85,"x_max":950,"o":"m 517 931 q 747 874 650 931 q 897 711 844 817 q 950 458 950 606 q 897 206 950 311 q 747 43 844 100 q 517 -14 650 -14 q 288 43 385 -14 q 138 206 190 100 q 85 458 85 311 q 138 711 85 606 q 288 874 190 817 q 517 931 385 931 m 517 801 q 369 761 431 801 q 274 644 307 721 q 240 458 240 568 q 274 273 240 350 q 369 156 307 196 q 517 115 431 115 q 666 156 604 115 q 761 273 728 196 q 794 458 794 350 q 761 644 794 568 q 666 761 728 721 q 517 801 604 801 m 774 1218 q 751 1109 771 1153 q 697 1044 731 1065 q 614 1022 663 1022 q 548 1036 575 1022 q 501 1067 521 1050 q 462 1099 481 1085 q 422 1113 443 1113 q 378 1088 393 1113 q 358 1021 364 1064 l 257 1021 q 304 1169 263 1119 q 421 1218 346 1218 q 485 1204 458 1218 q 533 1173 513 1190 q 570 1142 553 1156 q 608 1128 588 1128 q 652 1152 638 1128 q 674 1218 667 1176 l 774 1218 m 535 1524 l 679 1524 l 558 1301 l 444 1301 l 535 1524 z "},"Ṏ":{"ha":1035,"x_min":85,"x_max":950,"o":"m 517 931 q 747 874 650 931 q 897 711 844 817 q 950 458 950 606 q 897 206 950 311 q 747 43 844 100 q 517 -14 650 -14 q 288 43 385 -14 q 138 206 190 100 q 85 458 85 311 q 138 711 85 606 q 288 874 190 817 q 517 931 385 931 m 517 801 q 369 761 431 801 q 274 644 307 721 q 240 458 240 568 q 274 273 240 350 q 369 156 307 196 q 517 115 431 115 q 666 156 604 115 q 761 273 728 196 q 794 458 794 350 q 761 644 794 568 q 666 761 728 721 q 517 801 604 801 m 774 1218 q 751 1109 771 1153 q 697 1044 731 1065 q 614 1022 663 1022 q 548 1036 575 1022 q 501 1067 521 1050 q 462 1099 481 1085 q 422 1113 443 1113 q 378 1088 393 1113 q 358 1021 364 1064 l 257 1021 q 304 1169 263 1119 q 421 1218 346 1218 q 485 1204 458 1218 q 533 1173 513 1190 q 570 1142 553 1156 q 608 1128 588 1128 q 652 1152 638 1128 q 674 1218 667 1176 l 774 1218 m 376 1472 q 442 1449 418 1472 q 467 1385 467 1425 q 442 1322 467 1346 q 376 1297 418 1297 q 311 1322 336 1297 q 286 1385 286 1346 q 311 1449 286 1425 q 376 1472 336 1472 m 657 1472 q 723 1449 699 1472 q 747 1385 747 1425 q 723 1322 747 1346 q 657 1297 699 1297 q 591 1322 615 1297 q 567 1385 567 1346 q 591 1449 567 1425 q 657 1472 615 1472 z "},"Ȭ":{"ha":1035,"x_min":85,"x_max":950,"o":"m 517 931 q 747 874 650 931 q 897 711 844 817 q 950 458 950 606 q 897 206 950 311 q 747 43 844 100 q 517 -14 650 -14 q 288 43 385 -14 q 138 206 190 100 q 85 458 85 311 q 138 711 85 606 q 288 874 190 817 q 517 931 385 931 m 517 801 q 369 761 431 801 q 274 644 307 721 q 240 458 240 568 q 274 273 240 350 q 369 156 307 196 q 517 115 431 115 q 666 156 604 115 q 761 273 728 196 q 794 458 794 350 q 761 644 794 568 q 666 761 728 721 q 517 801 604 801 m 774 1218 q 751 1109 771 1153 q 697 1044 731 1065 q 614 1022 663 1022 q 548 1036 575 1022 q 501 1067 521 1050 q 462 1099 481 1085 q 422 1113 443 1113 q 378 1088 393 1113 q 358 1021 364 1064 l 257 1021 q 304 1169 263 1119 q 421 1218 346 1218 q 485 1204 458 1218 q 533 1173 513 1190 q 570 1142 553 1156 q 608 1128 588 1128 q 652 1152 638 1128 q 674 1218 667 1176 l 774 1218 m 751 1425 l 751 1317 l 282 1317 l 282 1425 l 751 1425 z "},"Œ":{"ha":1486,"x_min":85,"x_max":1424,"o":"m 922 128 l 1424 128 l 1424 0 l 803 0 l 803 129 q 677 24 751 61 q 510 -14 603 -14 q 283 43 378 -14 q 137 206 189 100 q 85 458 85 311 q 136 711 85 606 q 283 874 188 817 q 514 931 379 931 q 680 894 607 931 q 803 790 753 858 l 803 917 l 1403 917 l 1403 789 l 922 789 l 922 525 l 1292 525 l 1292 400 l 922 400 l 922 128 m 517 115 q 656 156 597 115 q 748 273 715 196 q 781 458 781 350 q 748 644 781 568 q 656 761 715 721 q 517 801 597 801 q 365 761 428 801 q 271 644 303 721 q 239 458 239 568 q 271 273 239 350 q 365 156 303 196 q 517 115 428 115 z "},"P":{"ha":871,"x_min":136,"x_max":811,"o":"m 489 917 q 659 882 588 917 q 771 783 731 847 q 811 629 811 719 q 771 476 811 540 q 659 376 731 411 q 489 342 588 342 l 285 342 l 285 0 l 136 0 l 136 917 l 489 917 m 465 469 q 610 510 564 469 q 657 629 657 551 q 610 749 657 708 q 465 790 564 790 l 285 790 l 285 469 l 465 469 z "},"Þ":{"ha":890,"x_min":136,"x_max":822,"o":"m 474 760 q 734 685 646 760 q 822 468 822 610 q 734 252 822 328 q 474 176 646 176 l 210 176 l 210 303 l 474 303 q 668 468 668 303 q 619 593 668 553 q 474 633 571 633 l 210 633 l 210 760 l 474 760 m 285 917 l 285 0 l 136 0 l 136 917 l 285 917 z "},"Q":{"ha":1035,"x_min":85,"x_max":950,"o":"m 743 -275 q 601 -247 665 -275 q 497 -157 536 -219 q 457 10 457 -94 q 460 46 457 26 q 469 83 463 65 l 579 92 q 572 56 575 72 q 569 26 569 40 q 594 -82 569 -46 q 658 -131 618 -118 q 744 -143 697 -143 q 841 -129 799 -143 q 910 -93 883 -115 l 946 -214 q 853 -259 913 -243 q 743 -275 794 -275 m 517 931 q 747 874 650 931 q 897 711 844 817 q 950 458 950 606 q 897 206 950 311 q 747 43 844 100 q 517 -14 650 -14 q 288 43 385 -14 q 138 206 190 100 q 85 458 85 311 q 138 711 85 606 q 288 874 190 817 q 517 931 385 931 m 517 801 q 369 761 431 801 q 274 644 307 721 q 240 458 240 568 q 274 273 240 350 q 369 156 307 196 q 517 115 431 115 q 666 156 604 115 q 761 273 728 196 q 794 458 794 350 q 761 644 794 568 q 666 761 728 721 q 517 801 604 801 z "},"R":{"ha":933,"x_min":136,"x_max":885,"o":"m 510 917 q 744 843 657 917 q 831 644 831 769 q 744 445 831 515 q 510 375 657 375 l 496 367 l 283 367 l 283 0 l 136 0 l 136 917 l 510 917 m 499 490 q 633 527 589 490 q 676 640 676 564 q 633 753 676 715 q 499 790 589 790 l 283 790 l 283 490 l 499 490 m 586 460 l 885 0 l 714 0 l 458 401 l 586 460 z "},"Ŕ":{"ha":933,"x_min":136,"x_max":885,"o":"m 510 917 q 744 843 657 917 q 831 644 831 769 q 744 445 831 515 q 510 375 657 375 l 496 367 l 283 367 l 283 0 l 136 0 l 136 917 l 510 917 m 499 490 q 633 527 589 490 q 676 640 676 564 q 633 753 676 715 q 499 790 589 790 l 283 790 l 283 490 l 499 490 m 586 460 l 885 0 l 714 0 l 458 401 l 586 460 m 468 1246 l 613 1246 l 492 1024 l 378 1024 l 468 1246 z "},"Ř":{"ha":933,"x_min":136,"x_max":885,"o":"m 510 917 q 744 843 657 917 q 831 644 831 769 q 744 445 831 515 q 510 375 657 375 l 496 367 l 283 367 l 283 0 l 136 0 l 136 917 l 510 917 m 499 490 q 633 527 589 490 q 676 640 676 564 q 633 753 676 715 q 499 790 589 790 l 283 790 l 283 490 l 499 490 m 586 460 l 885 0 l 714 0 l 458 401 l 586 460 m 676 1246 l 528 1024 l 372 1024 l 224 1246 l 344 1246 l 450 1104 l 556 1246 l 676 1246 z "},"Ŗ":{"ha":933,"x_min":136,"x_max":885,"o":"m 510 917 q 744 843 657 917 q 831 644 831 769 q 744 445 831 515 q 510 375 657 375 l 496 367 l 283 367 l 283 0 l 136 0 l 136 917 l 510 917 m 499 490 q 633 527 589 490 q 676 640 676 564 q 633 753 676 715 q 499 790 589 790 l 283 790 l 283 490 l 499 490 m 586 460 l 885 0 l 714 0 l 458 401 l 586 460 m 578 -99 l 485 -331 l 378 -331 l 433 -99 l 578 -99 z "},"Ȑ":{"ha":933,"x_min":136,"x_max":885,"o":"m 510 917 q 744 843 657 917 q 831 644 831 769 q 744 445 831 515 q 510 375 657 375 l 496 367 l 283 367 l 283 0 l 136 0 l 136 917 l 510 917 m 499 490 q 633 527 589 490 q 676 640 676 564 q 633 753 676 715 q 499 790 589 790 l 283 790 l 283 490 l 499 490 m 586 460 l 885 0 l 714 0 l 458 401 l 586 460 m 286 1246 l 376 1024 l 263 1024 l 142 1246 l 286 1246 m 551 1246 l 642 1024 l 528 1024 l 407 1246 l 551 1246 z "},"Ṛ":{"ha":933,"x_min":136,"x_max":885,"o":"m 510 917 q 744 843 657 917 q 831 644 831 769 q 744 445 831 515 q 510 375 657 375 l 496 367 l 283 367 l 283 0 l 136 0 l 136 917 l 510 917 m 499 490 q 633 527 589 490 q 676 640 676 564 q 633 753 676 715 q 499 790 589 790 l 283 790 l 283 490 l 499 490 m 586 460 l 885 0 l 714 0 l 458 401 l 586 460 m 506 -303 q 435 -278 461 -303 q 410 -211 410 -253 q 435 -144 410 -168 q 506 -119 461 -119 q 577 -144 551 -119 q 603 -211 603 -168 q 577 -278 603 -253 q 506 -303 551 -303 z "},"Ȓ":{"ha":933,"x_min":136,"x_max":885,"o":"m 510 917 q 744 843 657 917 q 831 644 831 769 q 744 445 831 515 q 510 375 657 375 l 496 367 l 283 367 l 283 0 l 136 0 l 136 917 l 510 917 m 499 490 q 633 527 589 490 q 676 640 676 564 q 633 753 676 715 q 499 790 589 790 l 283 790 l 283 490 l 499 490 m 586 460 l 885 0 l 714 0 l 458 401 l 586 460 m 664 1014 l 556 1014 q 528 1094 554 1061 q 450 1128 503 1128 q 372 1094 399 1128 q 344 1014 346 1061 l 236 1014 q 295 1168 236 1110 q 450 1226 354 1226 q 606 1168 547 1226 q 664 1014 664 1110 z "},"Ṟ":{"ha":933,"x_min":136,"x_max":885,"o":"m 510 917 q 744 843 657 917 q 831 644 831 769 q 744 445 831 515 q 510 375 657 375 l 496 367 l 283 367 l 283 0 l 136 0 l 136 917 l 510 917 m 499 490 q 633 527 589 490 q 676 640 676 564 q 633 753 676 715 q 499 790 589 790 l 283 790 l 283 490 l 499 490 m 586 460 l 885 0 l 714 0 l 458 401 l 586 460 m 740 -122 l 740 -231 l 271 -231 l 271 -122 l 740 -122 z "},"S":{"ha":892,"x_min":49,"x_max":819,"o":"m 449 931 q 663 884 572 931 q 815 747 753 838 l 715 651 q 597 767 663 732 q 440 803 531 803 q 331 785 374 803 q 267 737 288 767 q 247 669 247 707 q 277 594 247 626 q 389 544 307 563 l 575 503 q 764 414 708 474 q 819 263 819 354 q 774 115 819 178 q 647 19 728 53 q 456 -14 565 -14 q 281 11 358 -14 q 144 79 203 36 q 49 178 86 122 l 151 281 q 225 194 181 232 q 328 135 269 156 q 460 114 388 114 q 570 129 524 114 q 641 174 617 144 q 665 246 665 204 q 638 317 665 286 q 538 364 611 347 l 336 410 q 199 461 253 428 q 118 542 144 494 q 92 650 92 590 q 134 791 92 728 q 257 892 176 854 q 449 931 338 931 z "},"Ś":{"ha":892,"x_min":49,"x_max":819,"o":"m 449 931 q 663 884 572 931 q 815 747 753 838 l 715 651 q 597 767 663 732 q 440 803 531 803 q 331 785 374 803 q 267 737 288 767 q 247 669 247 707 q 277 594 247 626 q 389 544 307 563 l 575 503 q 764 414 708 474 q 819 263 819 354 q 774 115 819 178 q 647 19 728 53 q 456 -14 565 -14 q 281 11 358 -14 q 144 79 203 36 q 49 178 86 122 l 151 281 q 225 194 181 232 q 328 135 269 156 q 460 114 388 114 q 570 129 524 114 q 641 174 617 144 q 665 246 665 204 q 638 317 665 286 q 538 364 611 347 l 336 410 q 199 461 253 428 q 118 542 144 494 q 92 650 92 590 q 134 791 92 728 q 257 892 176 854 q 449 931 338 931 m 472 1246 l 617 1246 l 496 1024 l 382 1024 l 472 1246 z "},"Ṥ":{"ha":892,"x_min":49,"x_max":819,"o":"m 449 931 q 663 884 572 931 q 815 747 753 838 l 715 651 q 597 767 663 732 q 440 803 531 803 q 331 785 374 803 q 267 737 288 767 q 247 669 247 707 q 277 594 247 626 q 389 544 307 563 l 575 503 q 764 414 708 474 q 819 263 819 354 q 774 115 819 178 q 647 19 728 53 q 456 -14 565 -14 q 281 11 358 -14 q 144 79 203 36 q 49 178 86 122 l 151 281 q 225 194 181 232 q 328 135 269 156 q 460 114 388 114 q 570 129 524 114 q 641 174 617 144 q 665 246 665 204 q 638 317 665 286 q 538 364 611 347 l 336 410 q 199 461 253 428 q 118 542 144 494 q 92 650 92 590 q 134 791 92 728 q 257 892 176 854 q 449 931 338 931 m 472 1246 l 617 1246 l 496 1024 l 382 1024 l 472 1246 m 454 1514 q 526 1489 500 1514 q 551 1422 551 1464 q 526 1355 551 1379 q 454 1331 500 1331 q 384 1355 410 1331 q 358 1422 358 1379 q 384 1489 358 1464 q 454 1514 410 1514 z "},"Š":{"ha":892,"x_min":49,"x_max":819,"o":"m 449 931 q 663 884 572 931 q 815 747 753 838 l 715 651 q 597 767 663 732 q 440 803 531 803 q 331 785 374 803 q 267 737 288 767 q 247 669 247 707 q 277 594 247 626 q 389 544 307 563 l 575 503 q 764 414 708 474 q 819 263 819 354 q 774 115 819 178 q 647 19 728 53 q 456 -14 565 -14 q 281 11 358 -14 q 144 79 203 36 q 49 178 86 122 l 151 281 q 225 194 181 232 q 328 135 269 156 q 460 114 388 114 q 570 129 524 114 q 641 174 617 144 q 665 246 665 204 q 638 317 665 286 q 538 364 611 347 l 336 410 q 199 461 253 428 q 118 542 144 494 q 92 650 92 590 q 134 791 92 728 q 257 892 176 854 q 449 931 338 931 m 681 1246 l 532 1024 l 376 1024 l 228 1246 l 349 1246 l 454 1104 l 560 1246 l 681 1246 z "},"Ṧ":{"ha":892,"x_min":49,"x_max":819,"o":"m 449 931 q 663 884 572 931 q 815 747 753 838 l 715 651 q 597 767 663 732 q 440 803 531 803 q 331 785 374 803 q 267 737 288 767 q 247 669 247 707 q 277 594 247 626 q 389 544 307 563 l 575 503 q 764 414 708 474 q 819 263 819 354 q 774 115 819 178 q 647 19 728 53 q 456 -14 565 -14 q 281 11 358 -14 q 144 79 203 36 q 49 178 86 122 l 151 281 q 225 194 181 232 q 328 135 269 156 q 460 114 388 114 q 570 129 524 114 q 641 174 617 144 q 665 246 665 204 q 638 317 665 286 q 538 364 611 347 l 336 410 q 199 461 253 428 q 118 542 144 494 q 92 650 92 590 q 134 791 92 728 q 257 892 176 854 q 449 931 338 931 m 681 1246 l 532 1024 l 376 1024 l 228 1246 l 349 1246 l 454 1104 l 560 1246 l 681 1246 m 454 1507 q 526 1482 500 1507 q 551 1415 551 1457 q 526 1348 551 1372 q 454 1324 500 1324 q 384 1348 410 1324 q 358 1415 358 1372 q 384 1482 358 1457 q 454 1507 410 1507 z "},"Ş":{"ha":892,"x_min":49,"x_max":819,"o":"m 449 931 q 663 884 572 931 q 815 747 753 838 l 715 651 q 597 767 663 732 q 440 803 531 803 q 331 785 374 803 q 267 737 288 767 q 247 669 247 707 q 277 594 247 626 q 389 544 307 563 l 575 503 q 764 414 708 474 q 819 263 819 354 q 774 115 819 178 q 647 19 728 53 q 456 -14 565 -14 q 281 11 358 -14 q 144 79 203 36 q 49 178 86 122 l 151 281 q 225 194 181 232 q 328 135 269 156 q 460 114 388 114 q 570 129 524 114 q 641 174 617 144 q 665 246 665 204 q 638 317 665 286 q 538 364 611 347 l 336 410 q 199 461 253 428 q 118 542 144 494 q 92 650 92 590 q 134 791 92 728 q 257 892 176 854 q 449 931 338 931 m 360 8 l 418 43 q 548 -24 508 21 q 588 -133 588 -69 q 539 -251 588 -204 q 411 -299 490 -299 q 333 -287 365 -299 q 276 -258 300 -276 l 307 -168 q 346 -190 325 -181 q 397 -199 367 -199 q 459 -174 435 -199 q 483 -107 483 -150 q 456 -45 483 -71 q 360 8 429 -19 z "},"Ŝ":{"ha":892,"x_min":49,"x_max":819,"o":"m 449 931 q 663 884 572 931 q 815 747 753 838 l 715 651 q 597 767 663 732 q 440 803 531 803 q 331 785 374 803 q 267 737 288 767 q 247 669 247 707 q 277 594 247 626 q 389 544 307 563 l 575 503 q 764 414 708 474 q 819 263 819 354 q 774 115 819 178 q 647 19 728 53 q 456 -14 565 -14 q 281 11 358 -14 q 144 79 203 36 q 49 178 86 122 l 151 281 q 225 194 181 232 q 328 135 269 156 q 460 114 388 114 q 570 129 524 114 q 641 174 617 144 q 665 246 665 204 q 638 317 665 286 q 538 364 611 347 l 336 410 q 199 461 253 428 q 118 542 144 494 q 92 650 92 590 q 134 791 92 728 q 257 892 176 854 q 449 931 338 931 m 681 1024 l 560 1024 l 454 1165 l 349 1024 l 228 1024 l 376 1246 l 532 1246 l 681 1024 z "},"Ș":{"ha":892,"x_min":49,"x_max":819,"o":"m 449 931 q 663 884 572 931 q 815 747 753 838 l 715 651 q 597 767 663 732 q 440 803 531 803 q 331 785 374 803 q 267 737 288 767 q 247 669 247 707 q 277 594 247 626 q 389 544 307 563 l 575 503 q 764 414 708 474 q 819 263 819 354 q 774 115 819 178 q 647 19 728 53 q 456 -14 565 -14 q 281 11 358 -14 q 144 79 203 36 q 49 178 86 122 l 151 281 q 225 194 181 232 q 328 135 269 156 q 460 114 388 114 q 570 129 524 114 q 641 174 617 144 q 665 246 665 204 q 638 317 665 286 q 538 364 611 347 l 336 410 q 199 461 253 428 q 118 542 144 494 q 92 650 92 590 q 134 791 92 728 q 257 892 176 854 q 449 931 338 931 m 517 -99 l 424 -331 l 317 -331 l 372 -99 l 517 -99 z "},"Ṡ":{"ha":892,"x_min":49,"x_max":819,"o":"m 449 931 q 663 884 572 931 q 815 747 753 838 l 715 651 q 597 767 663 732 q 440 803 531 803 q 331 785 374 803 q 267 737 288 767 q 247 669 247 707 q 277 594 247 626 q 389 544 307 563 l 575 503 q 764 414 708 474 q 819 263 819 354 q 774 115 819 178 q 647 19 728 53 q 456 -14 565 -14 q 281 11 358 -14 q 144 79 203 36 q 49 178 86 122 l 151 281 q 225 194 181 232 q 328 135 269 156 q 460 114 388 114 q 570 129 524 114 q 641 174 617 144 q 665 246 665 204 q 638 317 665 286 q 538 364 611 347 l 336 410 q 199 461 253 428 q 118 542 144 494 q 92 650 92 590 q 134 791 92 728 q 257 892 176 854 q 449 931 338 931 m 454 1219 q 526 1194 500 1219 q 551 1128 551 1169 q 526 1060 551 1085 q 454 1036 500 1036 q 384 1060 410 1036 q 358 1128 358 1085 q 384 1194 358 1169 q 454 1219 410 1219 z "},"Ṣ":{"ha":892,"x_min":49,"x_max":819,"o":"m 449 931 q 663 884 572 931 q 815 747 753 838 l 715 651 q 597 767 663 732 q 440 803 531 803 q 331 785 374 803 q 267 737 288 767 q 247 669 247 707 q 277 594 247 626 q 389 544 307 563 l 575 503 q 764 414 708 474 q 819 263 819 354 q 774 115 819 178 q 647 19 728 53 q 456 -14 565 -14 q 281 11 358 -14 q 144 79 203 36 q 49 178 86 122 l 151 281 q 225 194 181 232 q 328 135 269 156 q 460 114 388 114 q 570 129 524 114 q 641 174 617 144 q 665 246 665 204 q 638 317 665 286 q 538 364 611 347 l 336 410 q 199 461 253 428 q 118 542 144 494 q 92 650 92 590 q 134 791 92 728 q 257 892 176 854 q 449 931 338 931 m 444 -303 q 374 -278 400 -303 q 349 -211 349 -253 q 374 -144 349 -168 q 444 -119 400 -119 q 516 -144 490 -119 q 542 -211 542 -168 q 516 -278 542 -253 q 444 -303 490 -303 z "},"Ṩ":{"ha":892,"x_min":49,"x_max":819,"o":"m 449 931 q 663 884 572 931 q 815 747 753 838 l 715 651 q 597 767 663 732 q 440 803 531 803 q 331 785 374 803 q 267 737 288 767 q 247 669 247 707 q 277 594 247 626 q 389 544 307 563 l 575 503 q 764 414 708 474 q 819 263 819 354 q 774 115 819 178 q 647 19 728 53 q 456 -14 565 -14 q 281 11 358 -14 q 144 79 203 36 q 49 178 86 122 l 151 281 q 225 194 181 232 q 328 135 269 156 q 460 114 388 114 q 570 129 524 114 q 641 174 617 144 q 665 246 665 204 q 638 317 665 286 q 538 364 611 347 l 336 410 q 199 461 253 428 q 118 542 144 494 q 92 650 92 590 q 134 791 92 728 q 257 892 176 854 q 449 931 338 931 m 454 1219 q 526 1194 500 1219 q 551 1128 551 1169 q 526 1060 551 1085 q 454 1036 500 1036 q 384 1060 410 1036 q 358 1128 358 1085 q 384 1194 358 1169 q 454 1219 410 1219 m 444 -303 q 374 -278 400 -303 q 349 -211 349 -253 q 374 -144 349 -168 q 444 -119 400 -119 q 516 -144 490 -119 q 542 -211 542 -168 q 516 -278 542 -253 q 444 -303 490 -303 z "},"ẞ":{"ha":946,"x_min":118,"x_max":906,"o":"m 617 -7 q 468 15 528 -7 q 378 68 408 38 l 432 179 q 503 133 461 150 q 599 115 546 115 q 686 135 650 115 q 741 190 722 156 q 760 267 760 225 q 715 369 760 335 q 596 404 671 404 l 457 404 l 457 510 l 688 790 l 460 790 q 363 765 407 790 q 294 697 319 740 q 268 594 268 653 l 268 0 l 118 0 l 118 606 q 160 770 118 700 q 277 878 203 840 q 447 917 351 917 l 849 917 l 849 790 l 590 492 l 597 510 l 647 510 q 779 481 721 510 q 872 399 838 453 q 906 267 906 344 q 868 119 906 181 q 766 26 831 58 q 617 -7 701 -7 z "},"Ə":{"ha":988,"x_min":69,"x_max":903,"o":"m 474 -14 q 261 39 353 -14 q 119 189 169 92 q 69 419 69 286 q 71 458 69 439 q 74 499 72 478 l 815 499 l 815 379 l 150 379 l 229 433 q 227 407 228 419 q 226 382 226 394 q 261 238 226 297 q 353 147 296 178 q 482 115 411 115 q 628 153 568 115 q 719 269 688 192 q 750 463 750 347 q 717 646 750 569 q 622 762 683 722 q 474 801 561 801 q 322 756 382 801 q 233 625 261 711 l 85 668 q 171 811 114 753 q 306 900 228 869 q 475 931 383 931 q 704 874 608 931 q 851 711 800 817 q 903 458 903 606 q 850 206 903 311 q 701 43 797 100 q 474 -14 604 -14 z "},"T":{"ha":860,"x_min":42,"x_max":818,"o":"m 818 917 l 818 789 l 504 789 l 504 0 l 356 0 l 356 789 l 42 789 l 42 917 l 818 917 z "},"Ŧ":{"ha":860,"x_min":42,"x_max":818,"o":"m 818 917 l 818 789 l 504 789 l 504 0 l 356 0 l 356 789 l 42 789 l 42 917 l 818 917 m 721 503 l 721 374 l 139 374 l 139 503 l 721 503 z "},"Ť":{"ha":860,"x_min":42,"x_max":818,"o":"m 818 917 l 818 789 l 504 789 l 504 0 l 356 0 l 356 789 l 42 789 l 42 917 l 818 917 m 656 1246 l 507 1024 l 351 1024 l 203 1246 l 324 1246 l 429 1104 l 535 1246 l 656 1246 z "},"Ţ":{"ha":860,"x_min":42,"x_max":818,"o":"m 363 4 l 403 43 q 533 -24 493 21 q 572 -133 572 -69 q 524 -251 572 -204 q 396 -299 475 -299 q 317 -287 350 -299 q 261 -258 285 -276 l 292 -168 q 331 -190 310 -181 q 382 -199 351 -199 q 444 -174 419 -199 q 468 -107 468 -150 q 443 -46 468 -71 q 363 4 418 -21 m 818 917 l 818 789 l 504 789 l 504 0 l 356 0 l 356 789 l 42 789 l 42 917 l 818 917 z "},"Ț":{"ha":860,"x_min":42,"x_max":818,"o":"m 818 917 l 818 789 l 504 789 l 504 0 l 356 0 l 356 789 l 42 789 l 42 917 l 818 917 m 515 -99 l 422 -331 l 315 -331 l 371 -99 l 515 -99 z "},"Ṭ":{"ha":860,"x_min":42,"x_max":818,"o":"m 818 917 l 818 789 l 504 789 l 504 0 l 356 0 l 356 789 l 42 789 l 42 917 l 818 917 m 429 -303 q 359 -278 385 -303 q 333 -211 333 -253 q 359 -144 333 -168 q 429 -119 385 -119 q 501 -144 475 -119 q 526 -211 526 -168 q 501 -278 526 -253 q 429 -303 475 -303 z "},"Ṯ":{"ha":860,"x_min":42,"x_max":818,"o":"m 818 917 l 818 789 l 504 789 l 504 0 l 356 0 l 356 789 l 42 789 l 42 917 l 818 917 m 664 -122 l 664 -231 l 194 -231 l 194 -122 l 664 -122 z "},"U":{"ha":985,"x_min":118,"x_max":867,"o":"m 867 917 l 867 351 q 771 78 867 169 q 492 -14 675 -14 q 215 78 311 -14 q 118 351 118 169 l 118 917 l 267 917 l 267 369 q 322 178 267 240 q 492 115 378 115 q 663 178 607 115 q 718 369 718 240 l 718 917 l 867 917 z "},"Ú":{"ha":985,"x_min":118,"x_max":867,"o":"m 867 917 l 867 351 q 771 78 867 169 q 492 -14 675 -14 q 215 78 311 -14 q 118 351 118 169 l 118 917 l 267 917 l 267 369 q 322 178 267 240 q 492 115 378 115 q 663 178 607 115 q 718 369 718 240 l 718 917 l 867 917 m 510 1217 l 654 1217 l 533 994 l 419 994 l 510 1217 z "},"Ŭ":{"ha":985,"x_min":118,"x_max":867,"o":"m 867 917 l 867 351 q 771 78 867 169 q 492 -14 675 -14 q 215 78 311 -14 q 118 351 118 169 l 118 917 l 267 917 l 267 369 q 322 178 267 240 q 492 115 378 115 q 663 178 607 115 q 718 369 718 240 l 718 917 l 867 917 m 706 1197 q 647 1043 706 1101 q 492 985 589 985 q 337 1043 396 985 q 278 1197 278 1101 l 386 1197 q 414 1117 388 1150 q 492 1083 440 1083 q 570 1117 544 1083 q 597 1197 596 1150 l 706 1197 z "},"Û":{"ha":985,"x_min":118,"x_max":867,"o":"m 867 917 l 867 351 q 771 78 867 169 q 492 -14 675 -14 q 215 78 311 -14 q 118 351 118 169 l 118 917 l 267 917 l 267 369 q 322 178 267 240 q 492 115 378 115 q 663 178 607 115 q 718 369 718 240 l 718 917 l 867 917 m 718 994 l 597 994 l 492 1136 l 386 994 l 265 994 l 414 1217 l 569 1217 l 718 994 z "},"Ȕ":{"ha":985,"x_min":118,"x_max":867,"o":"m 867 917 l 867 351 q 771 78 867 169 q 492 -14 675 -14 q 215 78 311 -14 q 118 351 118 169 l 118 917 l 267 917 l 267 369 q 322 178 267 240 q 492 115 378 115 q 663 178 607 115 q 718 369 718 240 l 718 917 l 867 917 m 328 1217 l 418 994 l 304 994 l 183 1217 l 328 1217 m 593 1217 l 683 994 l 569 994 l 449 1217 l 593 1217 z "},"Ü":{"ha":985,"x_min":118,"x_max":867,"o":"m 867 917 l 867 351 q 771 78 867 169 q 492 -14 675 -14 q 215 78 311 -14 q 118 351 118 169 l 118 917 l 267 917 l 267 369 q 322 178 267 240 q 492 115 378 115 q 663 178 607 115 q 718 369 718 240 l 718 917 l 867 917 m 351 1165 q 417 1142 393 1165 q 442 1078 442 1118 q 417 1015 442 1039 q 351 990 393 990 q 286 1015 311 990 q 261 1078 261 1039 q 286 1142 261 1118 q 351 1165 311 1165 m 632 1165 q 698 1142 674 1165 q 722 1078 722 1118 q 698 1015 722 1039 q 632 990 674 990 q 566 1015 590 990 q 542 1078 542 1039 q 566 1142 542 1118 q 632 1165 590 1165 z "},"Ụ":{"ha":985,"x_min":118,"x_max":867,"o":"m 867 917 l 867 351 q 771 78 867 169 q 492 -14 675 -14 q 215 78 311 -14 q 118 351 118 169 l 118 917 l 267 917 l 267 369 q 322 178 267 240 q 492 115 378 115 q 663 178 607 115 q 718 369 718 240 l 718 917 l 867 917 m 492 -303 q 422 -278 447 -303 q 396 -211 396 -253 q 422 -144 396 -168 q 492 -119 447 -119 q 563 -144 538 -119 q 589 -211 589 -168 q 563 -278 589 -253 q 492 -303 538 -303 z "},"Ù":{"ha":985,"x_min":118,"x_max":867,"o":"m 867 917 l 867 351 q 771 78 867 169 q 492 -14 675 -14 q 215 78 311 -14 q 118 351 118 169 l 118 917 l 267 917 l 267 369 q 322 178 267 240 q 492 115 378 115 q 663 178 607 115 q 718 369 718 240 l 718 917 l 867 917 m 474 1217 l 564 994 l 450 994 l 329 1217 l 474 1217 z "},"Ủ":{"ha":985,"x_min":118,"x_max":867,"o":"m 867 917 l 867 351 q 771 78 867 169 q 492 -14 675 -14 q 215 78 311 -14 q 118 351 118 169 l 118 917 l 267 917 l 267 369 q 322 178 267 240 q 492 115 378 115 q 663 178 607 115 q 718 369 718 240 l 718 917 l 867 917 m 494 958 l 451 1010 q 506 1047 488 1028 q 524 1093 524 1065 q 510 1127 524 1113 q 471 1142 497 1142 q 437 1132 451 1142 q 411 1100 422 1122 l 332 1147 q 392 1215 353 1190 q 489 1239 432 1239 q 560 1223 529 1239 q 610 1178 592 1207 q 628 1113 628 1150 q 611 1044 628 1075 q 564 992 594 1014 q 494 958 533 971 z "},"Ư":{"ha":985,"x_min":118,"x_max":1015,"o":"m 867 917 l 867 351 q 771 78 867 169 q 492 -14 675 -14 q 215 78 311 -14 q 118 351 118 169 l 118 917 l 267 917 l 267 369 q 322 178 267 240 q 492 115 378 115 q 663 178 607 115 q 718 369 718 240 l 718 917 l 867 917 m 1015 1065 q 952 881 1015 947 q 771 815 889 815 l 749 917 q 860 955 829 917 q 892 1065 892 993 l 1015 1065 z "},"Ứ":{"ha":985,"x_min":118,"x_max":1015,"o":"m 867 917 l 867 351 q 771 78 867 169 q 492 -14 675 -14 q 215 78 311 -14 q 118 351 118 169 l 118 917 l 267 917 l 267 369 q 322 178 267 240 q 492 115 378 115 q 663 178 607 115 q 718 369 718 240 l 718 917 l 867 917 m 1015 1065 q 952 881 1015 947 q 771 815 889 815 l 749 917 q 860 955 829 917 q 892 1065 892 993 l 1015 1065 m 510 1217 l 654 1217 l 533 994 l 419 994 l 510 1217 z "},"Ự":{"ha":985,"x_min":118,"x_max":1015,"o":"m 867 917 l 867 351 q 771 78 867 169 q 492 -14 675 -14 q 215 78 311 -14 q 118 351 118 169 l 118 917 l 267 917 l 267 369 q 322 178 267 240 q 492 115 378 115 q 663 178 607 115 q 718 369 718 240 l 718 917 l 867 917 m 1015 1065 q 952 881 1015 947 q 771 815 889 815 l 749 917 q 860 955 829 917 q 892 1065 892 993 l 1015 1065 m 492 -303 q 422 -278 447 -303 q 396 -211 396 -253 q 422 -144 396 -168 q 492 -119 447 -119 q 563 -144 538 -119 q 589 -211 589 -168 q 563 -278 589 -253 q 492 -303 538 -303 z "},"Ừ":{"ha":985,"x_min":118,"x_max":1015,"o":"m 867 917 l 867 351 q 771 78 867 169 q 492 -14 675 -14 q 215 78 311 -14 q 118 351 118 169 l 118 917 l 267 917 l 267 369 q 322 178 267 240 q 492 115 378 115 q 663 178 607 115 q 718 369 718 240 l 718 917 l 867 917 m 1015 1065 q 952 881 1015 947 q 771 815 889 815 l 749 917 q 860 955 829 917 q 892 1065 892 993 l 1015 1065 m 474 1217 l 564 994 l 450 994 l 329 1217 l 474 1217 z "},"Ử":{"ha":985,"x_min":118,"x_max":1015,"o":"m 867 917 l 867 351 q 771 78 867 169 q 492 -14 675 -14 q 215 78 311 -14 q 118 351 118 169 l 118 917 l 267 917 l 267 369 q 322 178 267 240 q 492 115 378 115 q 663 178 607 115 q 718 369 718 240 l 718 917 l 867 917 m 1015 1065 q 952 881 1015 947 q 771 815 889 815 l 749 917 q 860 955 829 917 q 892 1065 892 993 l 1015 1065 m 494 958 l 451 1010 q 506 1047 488 1028 q 524 1093 524 1065 q 510 1127 524 1113 q 471 1142 497 1142 q 437 1132 451 1142 q 411 1100 422 1122 l 332 1147 q 392 1215 353 1190 q 489 1239 432 1239 q 560 1223 529 1239 q 610 1178 592 1207 q 628 1113 628 1150 q 611 1044 628 1075 q 564 992 594 1014 q 494 958 533 971 z "},"Ữ":{"ha":985,"x_min":118,"x_max":1015,"o":"m 867 917 l 867 351 q 771 78 867 169 q 492 -14 675 -14 q 215 78 311 -14 q 118 351 118 169 l 118 917 l 267 917 l 267 369 q 322 178 267 240 q 492 115 378 115 q 663 178 607 115 q 718 369 718 240 l 718 917 l 867 917 m 1015 1065 q 952 881 1015 947 q 771 815 889 815 l 749 917 q 860 955 829 917 q 892 1065 892 993 l 1015 1065 m 749 1189 q 726 1080 746 1124 q 672 1015 706 1036 q 589 993 638 993 q 523 1007 550 993 q 476 1038 496 1021 q 437 1069 456 1056 q 397 1083 418 1083 q 353 1059 368 1083 q 333 992 339 1035 l 232 992 q 279 1140 238 1090 q 396 1189 321 1189 q 460 1175 433 1189 q 508 1144 488 1161 q 545 1113 528 1126 q 583 1099 563 1099 q 627 1123 613 1099 q 649 1189 642 1147 l 749 1189 z "},"Ű":{"ha":985,"x_min":118,"x_max":867,"o":"m 867 917 l 867 351 q 771 78 867 169 q 492 -14 675 -14 q 215 78 311 -14 q 118 351 118 169 l 118 917 l 267 917 l 267 369 q 322 178 267 240 q 492 115 378 115 q 663 178 607 115 q 718 369 718 240 l 718 917 l 867 917 m 656 1217 l 800 1217 l 679 994 l 565 994 l 656 1217 m 390 1217 l 535 1217 l 414 994 l 300 994 l 390 1217 z "},"Ȗ":{"ha":985,"x_min":118,"x_max":867,"o":"m 867 917 l 867 351 q 771 78 867 169 q 492 -14 675 -14 q 215 78 311 -14 q 118 351 118 169 l 118 917 l 267 917 l 267 369 q 322 178 267 240 q 492 115 378 115 q 663 178 607 115 q 718 369 718 240 l 718 917 l 867 917 m 706 985 l 597 985 q 570 1065 596 1032 q 492 1099 544 1099 q 414 1065 440 1099 q 386 985 388 1032 l 278 985 q 337 1139 278 1081 q 492 1197 396 1197 q 647 1139 589 1197 q 706 985 706 1081 z "},"Ū":{"ha":985,"x_min":118,"x_max":867,"o":"m 867 917 l 867 351 q 771 78 867 169 q 492 -14 675 -14 q 215 78 311 -14 q 118 351 118 169 l 118 917 l 267 917 l 267 369 q 322 178 267 240 q 492 115 378 115 q 663 178 607 115 q 718 369 718 240 l 718 917 l 867 917 m 726 1118 l 726 1010 l 257 1010 l 257 1118 l 726 1118 z "},"Ṻ":{"ha":985,"x_min":118,"x_max":867,"o":"m 867 917 l 867 351 q 771 78 867 169 q 492 -14 675 -14 q 215 78 311 -14 q 118 351 118 169 l 118 917 l 267 917 l 267 369 q 322 178 267 240 q 492 115 378 115 q 663 178 607 115 q 718 369 718 240 l 718 917 l 867 917 m 726 1118 l 726 1010 l 257 1010 l 257 1118 l 726 1118 m 351 1394 q 417 1371 393 1394 q 442 1307 442 1347 q 417 1244 442 1268 q 351 1219 393 1219 q 286 1244 311 1219 q 261 1307 261 1268 q 286 1371 261 1347 q 351 1394 311 1394 m 632 1394 q 698 1371 674 1394 q 722 1307 722 1347 q 698 1244 722 1268 q 632 1219 674 1219 q 566 1244 590 1219 q 542 1307 542 1268 q 566 1371 542 1347 q 632 1394 590 1394 z "},"Ų":{"ha":985,"x_min":118,"x_max":867,"o":"m 867 917 l 867 351 q 771 78 867 169 q 492 -14 675 -14 q 215 78 311 -14 q 118 351 118 169 l 118 917 l 267 917 l 267 369 q 322 178 267 240 q 492 115 378 115 q 663 178 607 115 q 718 369 718 240 l 718 917 l 867 917 m 563 -304 q 436 -264 481 -304 q 392 -157 392 -224 q 444 -33 392 -79 q 597 44 496 13 l 668 15 q 561 -34 597 -10 q 512 -83 525 -58 q 499 -137 499 -108 q 522 -190 499 -171 q 582 -208 544 -208 q 620 -204 601 -208 q 654 -193 639 -200 l 674 -281 q 624 -298 653 -292 q 563 -304 594 -304 z "},"Ů":{"ha":985,"x_min":118,"x_max":867,"o":"m 867 917 l 867 351 q 771 78 867 169 q 492 -14 675 -14 q 215 78 311 -14 q 118 351 118 169 l 118 917 l 267 917 l 267 369 q 322 178 267 240 q 492 115 378 115 q 663 178 607 115 q 718 369 718 240 l 718 917 l 867 917 m 489 1285 q 619 1239 569 1285 q 668 1118 668 1193 q 619 997 668 1043 q 489 950 569 950 q 357 997 407 950 q 307 1118 307 1043 q 357 1239 307 1193 q 489 1285 407 1285 m 489 1207 q 423 1182 449 1207 q 397 1118 397 1157 q 423 1054 397 1079 q 489 1029 449 1029 q 554 1054 529 1029 q 579 1118 579 1079 q 554 1182 579 1157 q 489 1207 529 1207 z "},"Ũ":{"ha":985,"x_min":118,"x_max":867,"o":"m 867 917 l 867 351 q 771 78 867 169 q 492 -14 675 -14 q 215 78 311 -14 q 118 351 118 169 l 118 917 l 267 917 l 267 369 q 322 178 267 240 q 492 115 378 115 q 663 178 607 115 q 718 369 718 240 l 718 917 l 867 917 m 749 1189 q 726 1080 746 1124 q 672 1015 706 1036 q 589 993 638 993 q 523 1007 550 993 q 476 1038 496 1021 q 437 1069 456 1056 q 397 1083 418 1083 q 353 1059 368 1083 q 333 992 339 1035 l 232 992 q 279 1140 238 1090 q 396 1189 321 1189 q 460 1175 433 1189 q 508 1144 488 1161 q 545 1113 528 1126 q 583 1099 563 1099 q 627 1123 613 1099 q 649 1189 642 1147 l 749 1189 z "},"Ṹ":{"ha":985,"x_min":118,"x_max":867,"o":"m 867 917 l 867 351 q 771 78 867 169 q 492 -14 675 -14 q 215 78 311 -14 q 118 351 118 169 l 118 917 l 267 917 l 267 369 q 322 178 267 240 q 492 115 378 115 q 663 178 607 115 q 718 369 718 240 l 718 917 l 867 917 m 749 1189 q 726 1080 746 1124 q 672 1015 706 1036 q 589 993 638 993 q 523 1007 550 993 q 476 1038 496 1021 q 437 1069 456 1056 q 397 1083 418 1083 q 353 1059 368 1083 q 333 992 339 1035 l 232 992 q 279 1140 238 1090 q 396 1189 321 1189 q 460 1175 433 1189 q 508 1144 488 1161 q 545 1113 528 1126 q 583 1099 563 1099 q 627 1123 613 1099 q 649 1189 642 1147 l 749 1189 m 510 1496 l 654 1496 l 533 1274 l 419 1274 l 510 1496 z "},"V":{"ha":915,"x_min":31,"x_max":885,"o":"m 885 917 l 544 0 l 371 0 l 31 917 l 189 917 l 403 307 l 458 125 l 514 306 l 728 917 l 885 917 z "},"W":{"ha":1350,"x_min":39,"x_max":1311,"o":"m 308 0 l 39 917 l 196 917 l 401 129 l 601 917 l 754 917 l 956 128 l 1160 917 l 1311 917 l 1043 0 l 868 0 l 722 550 l 676 761 l 675 761 l 629 550 l 485 0 l 308 0 z "},"Ẃ":{"ha":1350,"x_min":39,"x_max":1311,"o":"m 308 0 l 39 917 l 196 917 l 401 129 l 601 917 l 754 917 l 956 128 l 1160 917 l 1311 917 l 1043 0 l 868 0 l 722 550 l 676 761 l 675 761 l 629 550 l 485 0 l 308 0 m 693 1246 l 838 1246 l 717 1024 l 603 1024 l 693 1246 z "},"Ŵ":{"ha":1350,"x_min":39,"x_max":1311,"o":"m 308 0 l 39 917 l 196 917 l 401 129 l 601 917 l 754 917 l 956 128 l 1160 917 l 1311 917 l 1043 0 l 868 0 l 722 550 l 676 761 l 675 761 l 629 550 l 485 0 l 308 0 m 901 1024 l 781 1024 l 675 1165 l 569 1024 l 449 1024 l 597 1246 l 753 1246 l 901 1024 z "},"Ẅ":{"ha":1350,"x_min":39,"x_max":1311,"o":"m 308 0 l 39 917 l 196 917 l 401 129 l 601 917 l 754 917 l 956 128 l 1160 917 l 1311 917 l 1043 0 l 868 0 l 722 550 l 676 761 l 675 761 l 629 550 l 485 0 l 308 0 m 535 1194 q 601 1171 576 1194 q 625 1107 625 1147 q 601 1044 625 1068 q 535 1019 576 1019 q 469 1044 494 1019 q 444 1107 444 1068 q 469 1171 444 1147 q 535 1194 494 1194 m 815 1194 q 881 1171 857 1194 q 906 1107 906 1147 q 881 1044 906 1068 q 815 1019 857 1019 q 749 1044 774 1019 q 725 1107 725 1068 q 749 1171 725 1147 q 815 1194 774 1194 z "},"Ẁ":{"ha":1350,"x_min":39,"x_max":1311,"o":"m 308 0 l 39 917 l 196 917 l 401 129 l 601 917 l 754 917 l 956 128 l 1160 917 l 1311 917 l 1043 0 l 868 0 l 722 550 l 676 761 l 675 761 l 629 550 l 485 0 l 308 0 m 657 1246 l 747 1024 l 633 1024 l 513 1246 l 657 1246 z "},"X":{"ha":861,"x_min":29,"x_max":826,"o":"m 826 0 l 651 0 l 425 353 l 200 0 l 29 0 l 347 465 l 54 917 l 229 917 l 439 583 l 651 917 l 814 917 l 517 471 l 826 0 z "},"Y":{"ha":829,"x_min":14,"x_max":817,"o":"m 817 917 l 489 351 l 489 0 l 340 0 l 340 351 l 14 917 l 179 917 l 343 621 l 415 485 l 488 621 l 650 917 l 817 917 z "},"Ý":{"ha":829,"x_min":14,"x_max":817,"o":"m 817 917 l 489 351 l 489 0 l 340 0 l 340 351 l 14 917 l 179 917 l 343 621 l 415 485 l 488 621 l 650 917 l 817 917 m 433 1224 l 578 1224 l 457 1001 l 343 1001 l 433 1224 z "},"Ŷ":{"ha":829,"x_min":14,"x_max":817,"o":"m 817 917 l 489 351 l 489 0 l 340 0 l 340 351 l 14 917 l 179 917 l 343 621 l 415 485 l 488 621 l 650 917 l 817 917 m 642 1001 l 521 1001 l 415 1143 l 310 1001 l 189 1001 l 338 1224 l 493 1224 l 642 1001 z "},"Ÿ":{"ha":829,"x_min":14,"x_max":817,"o":"m 817 917 l 489 351 l 489 0 l 340 0 l 340 351 l 14 917 l 179 917 l 343 621 l 415 485 l 488 621 l 650 917 l 817 917 m 275 1172 q 341 1149 317 1172 q 365 1085 365 1125 q 341 1022 365 1046 q 275 997 317 997 q 210 1022 235 997 q 185 1085 185 1046 q 210 1149 185 1125 q 275 1172 235 1172 m 556 1172 q 622 1149 597 1172 q 646 1085 646 1125 q 622 1022 646 1046 q 556 997 597 997 q 490 1022 514 997 q 465 1085 465 1046 q 490 1149 465 1125 q 556 1172 514 1172 z "},"Ẏ":{"ha":829,"x_min":14,"x_max":817,"o":"m 817 917 l 489 351 l 489 0 l 340 0 l 340 351 l 14 917 l 179 917 l 343 621 l 415 485 l 488 621 l 650 917 l 817 917 m 415 1197 q 487 1172 461 1197 q 513 1106 513 1147 q 487 1038 513 1063 q 415 1014 461 1014 q 345 1038 371 1014 q 319 1106 319 1063 q 345 1172 319 1147 q 415 1197 371 1197 z "},"Ỵ":{"ha":829,"x_min":14,"x_max":817,"o":"m 817 917 l 489 351 l 489 0 l 340 0 l 340 351 l 14 917 l 179 917 l 343 621 l 415 485 l 488 621 l 650 917 l 817 917 m 415 -303 q 345 -278 371 -303 q 319 -211 319 -253 q 345 -144 319 -168 q 415 -119 371 -119 q 487 -144 461 -119 q 513 -211 513 -168 q 487 -278 513 -253 q 415 -303 461 -303 z "},"Ỳ":{"ha":829,"x_min":14,"x_max":817,"o":"m 817 917 l 489 351 l 489 0 l 340 0 l 340 351 l 14 917 l 179 917 l 343 621 l 415 485 l 488 621 l 650 917 l 817 917 m 397 1224 l 488 1001 l 374 1001 l 253 1224 l 397 1224 z "},"Ỷ":{"ha":829,"x_min":14,"x_max":817,"o":"m 817 917 l 489 351 l 489 0 l 340 0 l 340 351 l 14 917 l 179 917 l 343 621 l 415 485 l 488 621 l 650 917 l 817 917 m 417 965 l 374 1017 q 428 1053 410 1035 q 446 1100 446 1072 q 433 1134 446 1119 q 393 1149 419 1149 q 359 1139 374 1149 q 333 1107 344 1129 l 254 1154 q 315 1222 275 1197 q 411 1246 354 1246 q 483 1230 451 1246 q 532 1185 514 1214 q 550 1119 550 1157 q 533 1051 550 1082 q 486 999 517 1021 q 417 965 456 978 z "},"Ȳ":{"ha":829,"x_min":14,"x_max":817,"o":"m 817 917 l 489 351 l 489 0 l 340 0 l 340 351 l 14 917 l 179 917 l 343 621 l 415 485 l 488 621 l 650 917 l 817 917 m 650 1125 l 650 1017 l 181 1017 l 181 1125 l 650 1125 z "},"Ỹ":{"ha":829,"x_min":14,"x_max":817,"o":"m 817 917 l 489 351 l 489 0 l 340 0 l 340 351 l 14 917 l 179 917 l 343 621 l 415 485 l 488 621 l 650 917 l 817 917 m 672 1196 q 649 1087 669 1131 q 595 1022 629 1043 q 513 1000 561 1000 q 447 1014 474 1000 q 399 1045 419 1028 q 360 1076 379 1063 q 321 1090 342 1090 q 277 1066 292 1090 q 257 999 263 1042 l 156 999 q 203 1147 161 1097 q 319 1196 244 1196 q 384 1182 357 1196 q 431 1151 411 1168 q 469 1119 451 1133 q 507 1106 486 1106 q 551 1130 536 1106 q 572 1196 565 1154 l 672 1196 z "},"Z":{"ha":876,"x_min":69,"x_max":810,"o":"m 196 75 l 169 126 l 810 126 l 810 0 l 69 0 l 69 121 l 667 842 l 693 790 l 82 790 l 82 917 l 793 917 l 793 796 l 196 75 z "},"Ź":{"ha":876,"x_min":69,"x_max":810,"o":"m 196 75 l 169 126 l 810 126 l 810 0 l 69 0 l 69 121 l 667 842 l 693 790 l 82 790 l 82 917 l 793 917 l 793 796 l 196 75 m 449 1246 l 593 1246 l 472 1024 l 358 1024 l 449 1246 z "},"Ž":{"ha":876,"x_min":69,"x_max":810,"o":"m 196 75 l 169 126 l 810 126 l 810 0 l 69 0 l 69 121 l 667 842 l 693 790 l 82 790 l 82 917 l 793 917 l 793 796 l 196 75 m 657 1246 l 508 1024 l 353 1024 l 204 1246 l 325 1246 l 431 1104 l 536 1246 l 657 1246 z "},"Ż":{"ha":876,"x_min":69,"x_max":810,"o":"m 196 75 l 169 126 l 810 126 l 810 0 l 69 0 l 69 121 l 667 842 l 693 790 l 82 790 l 82 917 l 793 917 l 793 796 l 196 75 m 431 1219 q 502 1194 476 1219 q 528 1128 528 1169 q 502 1060 528 1085 q 431 1036 476 1036 q 360 1060 386 1036 q 335 1128 335 1085 q 360 1194 335 1169 q 431 1219 386 1219 z "},"Ẓ":{"ha":876,"x_min":69,"x_max":810,"o":"m 196 75 l 169 126 l 810 126 l 810 0 l 69 0 l 69 121 l 667 842 l 693 790 l 82 790 l 82 917 l 793 917 l 793 796 l 196 75 m 425 -303 q 355 -278 381 -303 q 329 -211 329 -253 q 355 -144 329 -168 q 425 -119 381 -119 q 497 -144 471 -119 q 522 -211 522 -168 q 497 -278 522 -253 q 425 -303 471 -303 z "},"a":{"ha":792,"x_min":75,"x_max":764,"o":"m 517 446 q 478 553 517 515 q 374 592 440 592 q 267 563 311 592 q 201 468 222 533 l 76 521 q 180 657 103 606 q 379 708 257 708 q 526 681 463 708 q 627 600 590 654 q 664 461 664 546 l 664 151 q 715 100 664 100 q 764 107 740 100 l 756 4 q 675 -11 724 -11 q 595 5 631 -11 q 540 53 560 21 q 519 135 519 86 l 519 144 l 550 146 q 499 56 538 92 q 408 3 460 21 q 304 -14 357 -14 q 187 7 239 -14 q 105 70 135 28 q 75 175 75 113 q 126 303 75 253 q 269 371 176 353 l 539 424 l 538 319 l 342 279 q 254 247 283 268 q 225 186 225 226 q 255 124 225 147 q 335 101 285 101 q 402 110 369 101 q 461 137 435 118 q 502 185 488 156 q 517 257 517 215 l 517 446 z "},"á":{"ha":792,"x_min":75,"x_max":764,"o":"m 517 446 q 478 553 517 515 q 374 592 440 592 q 267 563 311 592 q 201 468 222 533 l 76 521 q 180 657 103 606 q 379 708 257 708 q 526 681 463 708 q 627 600 590 654 q 664 461 664 546 l 664 151 q 715 100 664 100 q 764 107 740 100 l 756 4 q 675 -11 724 -11 q 595 5 631 -11 q 540 53 560 21 q 519 135 519 86 l 519 144 l 550 146 q 499 56 538 92 q 408 3 460 21 q 304 -14 357 -14 q 187 7 239 -14 q 105 70 135 28 q 75 175 75 113 q 126 303 75 253 q 269 371 176 353 l 539 424 l 538 319 l 342 279 q 254 247 283 268 q 225 186 225 226 q 255 124 225 147 q 335 101 285 101 q 402 110 369 101 q 461 137 435 118 q 502 185 488 156 q 517 257 517 215 l 517 446 m 406 1036 l 556 1036 l 418 803 l 304 803 l 406 1036 z "},"ă":{"ha":792,"x_min":75,"x_max":764,"o":"m 517 446 q 478 553 517 515 q 374 592 440 592 q 267 563 311 592 q 201 468 222 533 l 76 521 q 180 657 103 606 q 379 708 257 708 q 526 681 463 708 q 627 600 590 654 q 664 461 664 546 l 664 151 q 715 100 664 100 q 764 107 740 100 l 756 4 q 675 -11 724 -11 q 595 5 631 -11 q 540 53 560 21 q 519 135 519 86 l 519 144 l 550 146 q 499 56 538 92 q 408 3 460 21 q 304 -14 357 -14 q 187 7 239 -14 q 105 70 135 28 q 75 175 75 113 q 126 303 75 253 q 269 371 176 353 l 539 424 l 538 319 l 342 279 q 254 247 283 268 q 225 186 225 226 q 255 124 225 147 q 335 101 285 101 q 402 110 369 101 q 461 137 435 118 q 502 185 488 156 q 517 257 517 215 l 517 446 m 597 1004 q 539 850 597 908 q 383 792 481 792 q 228 850 288 792 q 169 1004 169 908 l 278 1004 q 306 924 279 957 q 383 890 332 890 q 462 924 436 890 q 489 1004 488 957 l 597 1004 z "},"ắ":{"ha":792,"x_min":74,"x_max":764,"o":"m 593 1000 q 535 849 593 906 q 383 792 478 792 q 231 849 289 792 q 174 1000 174 906 l 279 1000 q 307 921 281 954 q 383 888 333 888 q 461 921 435 888 q 488 1000 488 954 l 593 1000 m 307 1026 l 379 1213 l 517 1213 l 414 1026 l 307 1026 m 517 446 q 480 553 517 515 q 374 592 443 592 q 265 563 310 592 q 201 468 221 535 l 78 521 q 181 657 103 606 q 381 708 258 708 q 528 681 464 708 q 628 601 592 654 q 664 465 664 547 l 664 151 q 717 100 664 100 q 764 107 742 100 l 757 6 q 675 -11 725 -11 q 595 5 631 -11 q 540 53 560 21 q 519 136 519 86 l 519 150 l 549 146 q 496 56 535 92 q 406 3 457 21 q 303 -14 354 -14 q 187 7 239 -14 q 104 70 135 28 q 74 174 74 113 q 125 302 74 251 q 269 371 176 353 l 539 424 l 538 328 l 342 288 q 251 251 281 275 q 221 188 221 228 q 251 124 221 149 q 338 99 282 99 q 404 108 372 99 q 462 136 436 117 q 502 185 488 156 q 517 253 517 214 l 517 446 z "},"ặ":{"ha":792,"x_min":75,"x_max":764,"o":"m 517 446 q 478 553 517 515 q 374 592 440 592 q 267 563 311 592 q 201 468 222 533 l 76 521 q 180 657 103 606 q 379 708 257 708 q 526 681 463 708 q 627 600 590 654 q 664 461 664 546 l 664 151 q 715 100 664 100 q 764 107 740 100 l 756 4 q 675 -11 724 -11 q 595 5 631 -11 q 540 53 560 21 q 519 135 519 86 l 519 144 l 550 146 q 499 56 538 92 q 408 3 460 21 q 304 -14 357 -14 q 187 7 239 -14 q 105 70 135 28 q 75 175 75 113 q 126 303 75 253 q 269 371 176 353 l 539 424 l 538 319 l 342 279 q 254 247 283 268 q 225 186 225 226 q 255 124 225 147 q 335 101 285 101 q 402 110 369 101 q 461 137 435 118 q 502 185 488 156 q 517 257 517 215 l 517 446 m 385 -303 q 315 -278 340 -303 q 289 -211 289 -253 q 315 -144 289 -168 q 385 -119 340 -119 q 456 -144 431 -119 q 482 -211 482 -168 q 456 -278 482 -253 q 385 -303 431 -303 m 597 1004 q 539 850 597 908 q 383 792 481 792 q 228 850 288 792 q 169 1004 169 908 l 278 1004 q 306 924 279 957 q 383 890 332 890 q 462 924 436 890 q 489 1004 488 957 l 597 1004 z "},"ằ":{"ha":792,"x_min":74,"x_max":764,"o":"m 593 1000 q 535 849 593 906 q 383 792 478 792 q 231 849 289 792 q 174 1000 174 906 l 279 1000 q 307 921 281 954 q 383 888 333 888 q 461 921 435 888 q 488 1000 488 954 l 593 1000 m 461 1026 l 354 1026 l 250 1213 l 389 1213 l 461 1026 m 517 446 q 480 553 517 515 q 374 592 443 592 q 265 563 310 592 q 201 468 221 535 l 78 521 q 181 657 103 606 q 381 708 258 708 q 528 681 464 708 q 628 601 592 654 q 664 465 664 547 l 664 151 q 717 100 664 100 q 764 107 742 100 l 757 6 q 675 -11 725 -11 q 595 5 631 -11 q 540 53 560 21 q 519 136 519 86 l 519 150 l 549 146 q 496 56 535 92 q 406 3 457 21 q 303 -14 354 -14 q 187 7 239 -14 q 104 70 135 28 q 74 174 74 113 q 125 302 74 251 q 269 371 176 353 l 539 424 l 538 328 l 342 288 q 251 251 281 275 q 221 188 221 228 q 251 124 221 149 q 338 99 282 99 q 404 108 372 99 q 462 136 436 117 q 502 185 488 156 q 517 253 517 214 l 517 446 z "},"ẳ":{"ha":792,"x_min":74,"x_max":764,"o":"m 593 1000 q 535 849 593 906 q 383 792 478 792 q 231 849 289 792 q 174 1000 174 906 l 279 1000 q 307 921 281 954 q 383 888 333 888 q 461 921 435 888 q 488 1000 488 954 l 593 1000 m 385 1006 l 343 1056 q 397 1092 379 1074 q 414 1138 414 1110 q 401 1172 414 1158 q 363 1185 388 1185 q 328 1176 343 1185 q 303 1146 314 1167 l 226 1192 q 286 1257 247 1233 q 379 1281 325 1281 q 450 1265 419 1281 q 498 1221 481 1249 q 515 1157 515 1193 q 499 1090 515 1121 q 453 1039 483 1060 q 385 1006 424 1018 m 517 446 q 480 553 517 515 q 374 592 443 592 q 265 563 310 592 q 201 468 221 535 l 78 521 q 181 657 103 606 q 381 708 258 708 q 528 681 464 708 q 628 601 592 654 q 664 465 664 547 l 664 151 q 717 100 664 100 q 764 107 742 100 l 757 6 q 675 -11 725 -11 q 595 5 631 -11 q 540 53 560 21 q 519 136 519 86 l 519 150 l 549 146 q 496 56 535 92 q 406 3 457 21 q 303 -14 354 -14 q 187 7 239 -14 q 104 70 135 28 q 74 174 74 113 q 125 302 74 251 q 269 371 176 353 l 539 424 l 538 328 l 342 288 q 251 251 281 275 q 221 188 221 228 q 251 124 221 149 q 338 99 282 99 q 404 108 372 99 q 462 136 436 117 q 502 185 488 156 q 517 253 517 214 l 517 446 z "},"ẵ":{"ha":792,"x_min":74,"x_max":764,"o":"m 594 1000 q 537 849 594 906 q 385 792 479 792 q 233 849 290 792 q 175 1000 175 906 l 281 1000 q 307 921 281 954 q 385 888 333 888 q 462 921 436 888 q 489 1000 488 954 l 594 1000 m 631 1228 q 583 1090 624 1135 q 476 1046 542 1046 q 413 1058 439 1046 q 369 1087 388 1071 q 333 1115 350 1103 q 294 1128 315 1128 q 255 1108 268 1128 q 235 1049 242 1089 l 138 1049 q 184 1186 143 1142 q 294 1231 225 1231 q 356 1218 331 1231 q 400 1190 382 1206 q 435 1161 418 1174 q 472 1149 451 1149 q 512 1168 497 1149 q 532 1228 526 1188 l 631 1228 m 517 446 q 480 553 517 515 q 374 592 443 592 q 265 563 310 592 q 201 468 221 535 l 78 521 q 181 657 103 606 q 381 708 258 708 q 528 681 464 708 q 628 601 592 654 q 664 465 664 547 l 664 151 q 717 100 664 100 q 764 107 742 100 l 757 6 q 675 -11 725 -11 q 595 5 631 -11 q 540 53 560 21 q 519 136 519 86 l 519 150 l 549 146 q 496 56 535 92 q 406 3 457 21 q 303 -14 354 -14 q 187 7 239 -14 q 104 70 135 28 q 74 174 74 113 q 125 302 74 251 q 269 371 176 353 l 539 424 l 538 328 l 342 288 q 251 251 281 275 q 221 188 221 228 q 251 124 221 149 q 338 99 282 99 q 404 108 372 99 q 462 136 436 117 q 502 185 488 156 q 517 253 517 214 l 517 446 z "},"â":{"ha":792,"x_min":75,"x_max":764,"o":"m 517 446 q 478 553 517 515 q 374 592 440 592 q 267 563 311 592 q 201 468 222 533 l 76 521 q 180 657 103 606 q 379 708 257 708 q 526 681 463 708 q 627 600 590 654 q 664 461 664 546 l 664 151 q 715 100 664 100 q 764 107 740 100 l 756 4 q 675 -11 724 -11 q 595 5 631 -11 q 540 53 560 21 q 519 135 519 86 l 519 144 l 550 146 q 499 56 538 92 q 408 3 460 21 q 304 -14 357 -14 q 187 7 239 -14 q 105 70 135 28 q 75 175 75 113 q 126 303 75 253 q 269 371 176 353 l 539 424 l 538 319 l 342 279 q 254 247 283 268 q 225 186 225 226 q 255 124 225 147 q 335 101 285 101 q 402 110 369 101 q 461 137 435 118 q 502 185 488 156 q 517 257 517 215 l 517 446 m 618 793 l 496 793 l 383 942 l 271 793 l 149 793 l 306 1028 l 461 1028 l 618 793 z "},"ấ":{"ha":792,"x_min":74,"x_max":775,"o":"m 613 793 l 494 793 l 383 940 l 272 793 l 154 793 l 308 1024 l 458 1024 l 613 793 m 644 1150 l 775 1150 l 667 950 l 564 950 l 644 1150 m 517 446 q 480 553 517 515 q 374 592 443 592 q 265 563 310 592 q 201 468 221 535 l 78 521 q 181 657 103 606 q 381 708 258 708 q 528 681 464 708 q 628 601 592 654 q 664 465 664 547 l 664 151 q 717 100 664 100 q 764 107 742 100 l 757 6 q 675 -11 725 -11 q 595 5 631 -11 q 540 53 560 21 q 519 136 519 86 l 519 150 l 549 146 q 496 56 535 92 q 406 3 457 21 q 303 -14 354 -14 q 187 7 239 -14 q 104 70 135 28 q 74 174 74 113 q 125 302 74 251 q 269 371 176 353 l 539 424 l 538 328 l 342 288 q 251 251 281 275 q 221 188 221 228 q 251 124 221 149 q 338 99 282 99 q 404 108 372 99 q 462 136 436 117 q 502 185 488 156 q 517 253 517 214 l 517 446 z "},"ậ":{"ha":792,"x_min":75,"x_max":764,"o":"m 517 446 q 478 553 517 515 q 374 592 440 592 q 267 563 311 592 q 201 468 222 533 l 76 521 q 180 657 103 606 q 379 708 257 708 q 526 681 463 708 q 627 600 590 654 q 664 461 664 546 l 664 151 q 715 100 664 100 q 764 107 740 100 l 756 4 q 675 -11 724 -11 q 595 5 631 -11 q 540 53 560 21 q 519 135 519 86 l 519 144 l 550 146 q 499 56 538 92 q 408 3 460 21 q 304 -14 357 -14 q 187 7 239 -14 q 105 70 135 28 q 75 175 75 113 q 126 303 75 253 q 269 371 176 353 l 539 424 l 538 319 l 342 279 q 254 247 283 268 q 225 186 225 226 q 255 124 225 147 q 335 101 285 101 q 402 110 369 101 q 461 137 435 118 q 502 185 488 156 q 517 257 517 215 l 517 446 m 385 -303 q 315 -278 340 -303 q 289 -211 289 -253 q 315 -144 289 -168 q 385 -119 340 -119 q 456 -144 431 -119 q 482 -211 482 -168 q 456 -278 482 -253 q 385 -303 431 -303 m 618 793 l 496 793 l 383 942 l 271 793 l 149 793 l 306 1028 l 461 1028 l 618 793 z "},"ầ":{"ha":792,"x_min":74,"x_max":764,"o":"m 613 793 l 494 793 l 383 940 l 272 793 l 154 793 l 308 1024 l 458 1024 l 613 793 m 613 1150 l 693 950 l 590 950 l 482 1150 l 613 1150 m 517 446 q 480 553 517 515 q 374 592 443 592 q 265 563 310 592 q 201 468 221 535 l 78 521 q 181 657 103 606 q 381 708 258 708 q 528 681 464 708 q 628 601 592 654 q 664 465 664 547 l 664 151 q 717 100 664 100 q 764 107 742 100 l 757 6 q 675 -11 725 -11 q 595 5 631 -11 q 540 53 560 21 q 519 136 519 86 l 519 150 l 549 146 q 496 56 535 92 q 406 3 457 21 q 303 -14 354 -14 q 187 7 239 -14 q 104 70 135 28 q 74 174 74 113 q 125 302 74 251 q 269 371 176 353 l 539 424 l 538 328 l 342 288 q 251 251 281 275 q 221 188 221 228 q 251 124 221 149 q 338 99 282 99 q 404 108 372 99 q 462 136 436 117 q 502 185 488 156 q 517 253 517 214 l 517 446 z "},"ẩ":{"ha":792,"x_min":74,"x_max":764,"o":"m 613 793 l 494 793 l 383 940 l 272 793 l 154 793 l 308 1024 l 458 1024 l 613 793 m 615 924 l 572 975 q 627 1013 610 994 q 644 1058 644 1031 q 631 1093 644 1079 q 592 1107 618 1107 q 558 1097 572 1107 q 532 1067 543 1088 l 453 1114 q 513 1181 474 1157 q 610 1204 553 1204 q 681 1188 650 1204 q 731 1144 713 1172 q 749 1078 749 1115 q 732 1010 749 1042 q 685 958 715 979 q 615 924 654 936 m 517 446 q 480 553 517 515 q 374 592 443 592 q 265 563 310 592 q 201 468 221 535 l 78 521 q 181 657 103 606 q 381 708 258 708 q 528 681 464 708 q 628 601 592 654 q 664 465 664 547 l 664 151 q 717 100 664 100 q 764 107 742 100 l 757 6 q 675 -11 725 -11 q 595 5 631 -11 q 540 53 560 21 q 519 136 519 86 l 519 150 l 549 146 q 496 56 535 92 q 406 3 457 21 q 303 -14 354 -14 q 187 7 239 -14 q 104 70 135 28 q 74 174 74 113 q 125 302 74 251 q 269 371 176 353 l 539 424 l 538 328 l 342 288 q 251 251 281 275 q 221 188 221 228 q 251 124 221 149 q 338 99 282 99 q 404 108 372 99 q 462 136 436 117 q 502 185 488 156 q 517 253 517 214 l 517 446 z "},"ẫ":{"ha":792,"x_min":74,"x_max":764,"o":"m 613 793 l 494 793 l 383 940 l 272 793 l 154 793 l 308 1024 l 458 1024 l 613 793 m 629 1242 q 582 1104 624 1149 q 475 1060 540 1060 q 412 1072 438 1060 q 367 1100 386 1085 q 332 1128 349 1115 q 294 1142 315 1142 q 254 1122 268 1142 q 235 1063 240 1101 l 136 1063 q 183 1200 142 1156 q 293 1244 225 1244 q 356 1231 331 1244 q 399 1203 381 1218 q 434 1175 418 1188 q 471 1163 450 1163 q 510 1182 496 1163 q 531 1242 525 1201 l 629 1242 m 517 446 q 480 553 517 515 q 374 592 443 592 q 265 563 310 592 q 201 468 221 535 l 78 521 q 181 657 103 606 q 381 708 258 708 q 528 681 464 708 q 628 601 592 654 q 664 465 664 547 l 664 151 q 717 100 664 100 q 764 107 742 100 l 757 6 q 675 -11 725 -11 q 595 5 631 -11 q 540 53 560 21 q 519 136 519 86 l 519 150 l 549 146 q 496 56 535 92 q 406 3 457 21 q 303 -14 354 -14 q 187 7 239 -14 q 104 70 135 28 q 74 174 74 113 q 125 302 74 251 q 269 371 176 353 l 539 424 l 538 328 l 342 288 q 251 251 281 275 q 221 188 221 228 q 251 124 221 149 q 338 99 282 99 q 404 108 372 99 q 462 136 436 117 q 502 185 488 156 q 517 253 517 214 l 517 446 z "},"ȁ":{"ha":792,"x_min":75,"x_max":764,"o":"m 517 446 q 478 553 517 515 q 374 592 440 592 q 267 563 311 592 q 201 468 222 533 l 76 521 q 180 657 103 606 q 379 708 257 708 q 526 681 463 708 q 627 600 590 654 q 664 461 664 546 l 664 151 q 715 100 664 100 q 764 107 740 100 l 756 4 q 675 -11 724 -11 q 595 5 631 -11 q 540 53 560 21 q 519 135 519 86 l 519 144 l 550 146 q 499 56 538 92 q 408 3 460 21 q 304 -14 357 -14 q 187 7 239 -14 q 105 70 135 28 q 75 175 75 113 q 126 303 75 253 q 269 371 176 353 l 539 424 l 538 319 l 342 279 q 254 247 283 268 q 225 186 225 226 q 255 124 225 147 q 335 101 285 101 q 402 110 369 101 q 461 137 435 118 q 502 185 488 156 q 517 257 517 215 l 517 446 m 324 803 l 211 803 l 76 1036 l 221 1036 l 324 803 m 583 803 l 471 803 l 336 1036 l 481 1036 l 583 803 z "},"ä":{"ha":792,"x_min":75,"x_max":764,"o":"m 517 446 q 478 553 517 515 q 374 592 440 592 q 267 563 311 592 q 201 468 222 533 l 76 521 q 180 657 103 606 q 379 708 257 708 q 526 681 463 708 q 627 600 590 654 q 664 461 664 546 l 664 151 q 715 100 664 100 q 764 107 740 100 l 756 4 q 675 -11 724 -11 q 595 5 631 -11 q 540 53 560 21 q 519 135 519 86 l 519 144 l 550 146 q 499 56 538 92 q 408 3 460 21 q 304 -14 357 -14 q 187 7 239 -14 q 105 70 135 28 q 75 175 75 113 q 126 303 75 253 q 269 371 176 353 l 539 424 l 538 319 l 342 279 q 254 247 283 268 q 225 186 225 226 q 255 124 225 147 q 335 101 285 101 q 402 110 369 101 q 461 137 435 118 q 502 185 488 156 q 517 257 517 215 l 517 446 m 243 972 q 309 949 285 972 q 333 885 333 925 q 309 822 333 846 q 243 797 285 797 q 178 822 203 797 q 153 885 153 846 q 178 949 153 925 q 243 972 203 972 m 524 972 q 590 949 565 972 q 614 885 614 925 q 590 822 614 846 q 524 797 565 797 q 458 822 482 797 q 433 885 433 846 q 458 949 433 925 q 524 972 482 972 z "},"ạ":{"ha":792,"x_min":75,"x_max":764,"o":"m 517 446 q 478 553 517 515 q 374 592 440 592 q 267 563 311 592 q 201 468 222 533 l 76 521 q 180 657 103 606 q 379 708 257 708 q 526 681 463 708 q 627 600 590 654 q 664 461 664 546 l 664 151 q 715 100 664 100 q 764 107 740 100 l 756 4 q 675 -11 724 -11 q 595 5 631 -11 q 540 53 560 21 q 519 135 519 86 l 519 144 l 550 146 q 499 56 538 92 q 408 3 460 21 q 304 -14 357 -14 q 187 7 239 -14 q 105 70 135 28 q 75 175 75 113 q 126 303 75 253 q 269 371 176 353 l 539 424 l 538 319 l 342 279 q 254 247 283 268 q 225 186 225 226 q 255 124 225 147 q 335 101 285 101 q 402 110 369 101 q 461 137 435 118 q 502 185 488 156 q 517 257 517 215 l 517 446 m 385 -303 q 315 -278 340 -303 q 289 -211 289 -253 q 315 -144 289 -168 q 385 -119 340 -119 q 456 -144 431 -119 q 482 -211 482 -168 q 456 -278 482 -253 q 385 -303 431 -303 z "},"à":{"ha":792,"x_min":75,"x_max":764,"o":"m 517 446 q 478 553 517 515 q 374 592 440 592 q 267 563 311 592 q 201 468 222 533 l 76 521 q 180 657 103 606 q 379 708 257 708 q 526 681 463 708 q 627 600 590 654 q 664 461 664 546 l 664 151 q 715 100 664 100 q 764 107 740 100 l 756 4 q 675 -11 724 -11 q 595 5 631 -11 q 540 53 560 21 q 519 135 519 86 l 519 144 l 550 146 q 499 56 538 92 q 408 3 460 21 q 304 -14 357 -14 q 187 7 239 -14 q 105 70 135 28 q 75 175 75 113 q 126 303 75 253 q 269 371 176 353 l 539 424 l 538 319 l 342 279 q 254 247 283 268 q 225 186 225 226 q 255 124 225 147 q 335 101 285 101 q 402 110 369 101 q 461 137 435 118 q 502 185 488 156 q 517 257 517 215 l 517 446 m 350 1036 l 451 803 l 338 803 l 200 1036 l 350 1036 z "},"ả":{"ha":792,"x_min":75,"x_max":764,"o":"m 517 446 q 478 553 517 515 q 374 592 440 592 q 267 563 311 592 q 201 468 222 533 l 76 521 q 180 657 103 606 q 379 708 257 708 q 526 681 463 708 q 627 600 590 654 q 664 461 664 546 l 664 151 q 715 100 664 100 q 764 107 740 100 l 756 4 q 675 -11 724 -11 q 595 5 631 -11 q 540 53 560 21 q 519 135 519 86 l 519 144 l 550 146 q 499 56 538 92 q 408 3 460 21 q 304 -14 357 -14 q 187 7 239 -14 q 105 70 135 28 q 75 175 75 113 q 126 303 75 253 q 269 371 176 353 l 539 424 l 538 319 l 342 279 q 254 247 283 268 q 225 186 225 226 q 255 124 225 147 q 335 101 285 101 q 402 110 369 101 q 461 137 435 118 q 502 185 488 156 q 517 257 517 215 l 517 446 m 372 760 l 329 821 q 390 858 371 839 q 410 904 410 876 q 395 942 410 928 q 354 957 381 957 q 320 947 336 957 q 290 913 304 936 l 214 960 q 274 1031 232 1007 q 371 1054 315 1054 q 444 1038 413 1054 q 495 992 476 1021 q 514 924 514 963 q 497 855 514 886 q 447 800 479 824 q 372 760 415 776 z "},"ȃ":{"ha":792,"x_min":75,"x_max":764,"o":"m 517 446 q 478 553 517 515 q 374 592 440 592 q 267 563 311 592 q 201 468 222 533 l 76 521 q 180 657 103 606 q 379 708 257 708 q 526 681 463 708 q 627 600 590 654 q 664 461 664 546 l 664 151 q 715 100 664 100 q 764 107 740 100 l 756 4 q 675 -11 724 -11 q 595 5 631 -11 q 540 53 560 21 q 519 135 519 86 l 519 144 l 550 146 q 499 56 538 92 q 408 3 460 21 q 304 -14 357 -14 q 187 7 239 -14 q 105 70 135 28 q 75 175 75 113 q 126 303 75 253 q 269 371 176 353 l 539 424 l 538 319 l 342 279 q 254 247 283 268 q 225 186 225 226 q 255 124 225 147 q 335 101 285 101 q 402 110 369 101 q 461 137 435 118 q 502 185 488 156 q 517 257 517 215 l 517 446 m 597 792 l 489 792 q 462 872 488 839 q 383 906 436 906 q 306 872 332 906 q 278 792 279 839 l 169 792 q 228 946 169 888 q 383 1004 288 1004 q 539 946 481 1004 q 597 792 597 888 z "},"ā":{"ha":792,"x_min":75,"x_max":764,"o":"m 517 446 q 478 553 517 515 q 374 592 440 592 q 267 563 311 592 q 201 468 222 533 l 76 521 q 180 657 103 606 q 379 708 257 708 q 526 681 463 708 q 627 600 590 654 q 664 461 664 546 l 664 151 q 715 100 664 100 q 764 107 740 100 l 756 4 q 675 -11 724 -11 q 595 5 631 -11 q 540 53 560 21 q 519 135 519 86 l 519 144 l 550 146 q 499 56 538 92 q 408 3 460 21 q 304 -14 357 -14 q 187 7 239 -14 q 105 70 135 28 q 75 175 75 113 q 126 303 75 253 q 269 371 176 353 l 539 424 l 538 319 l 342 279 q 254 247 283 268 q 225 186 225 226 q 255 124 225 147 q 335 101 285 101 q 402 110 369 101 q 461 137 435 118 q 502 185 488 156 q 517 257 517 215 l 517 446 m 618 925 l 618 817 l 149 817 l 149 925 l 618 925 z "},"ą":{"ha":792,"x_min":74,"x_max":764,"o":"m 640 -314 q 553 -297 592 -314 q 492 -247 514 -279 q 469 -171 469 -215 q 526 -45 469 -93 q 686 39 583 3 l 757 6 q 651 -49 689 -24 q 597 -100 613 -75 q 581 -150 581 -125 q 603 -201 581 -182 q 664 -219 626 -219 q 701 -216 681 -219 q 735 -203 721 -212 l 758 -287 q 706 -308 738 -301 q 640 -314 674 -314 m 517 446 q 480 553 517 515 q 374 592 443 592 q 265 563 310 592 q 201 468 221 535 l 78 521 q 181 657 103 606 q 381 708 258 708 q 528 681 464 708 q 628 601 592 654 q 664 465 664 547 l 664 151 q 717 100 664 100 q 764 107 742 100 l 757 6 q 675 -11 725 -11 q 595 5 631 -11 q 540 53 560 21 q 519 136 519 86 l 519 150 l 549 146 q 496 56 535 92 q 406 3 457 21 q 303 -14 354 -14 q 187 7 239 -14 q 104 70 135 28 q 74 174 74 113 q 125 302 74 251 q 269 371 176 353 l 539 424 l 538 328 l 342 288 q 251 251 281 275 q 221 188 221 228 q 251 124 221 149 q 338 99 282 99 q 404 108 372 99 q 462 136 436 117 q 502 185 488 156 q 517 253 517 214 l 517 446 z "},"å":{"ha":792,"x_min":75,"x_max":764,"o":"m 517 446 q 478 553 517 515 q 374 592 440 592 q 267 563 311 592 q 201 468 222 533 l 76 521 q 180 657 103 606 q 379 708 257 708 q 526 681 463 708 q 627 600 590 654 q 664 461 664 546 l 664 151 q 715 100 664 100 q 764 107 740 100 l 756 4 q 675 -11 724 -11 q 595 5 631 -11 q 540 53 560 21 q 519 135 519 86 l 519 144 l 550 146 q 499 56 538 92 q 408 3 460 21 q 304 -14 357 -14 q 187 7 239 -14 q 105 70 135 28 q 75 175 75 113 q 126 303 75 253 q 269 371 176 353 l 539 424 l 538 319 l 342 279 q 254 247 283 268 q 225 186 225 226 q 255 124 225 147 q 335 101 285 101 q 402 110 369 101 q 461 137 435 118 q 502 185 488 156 q 517 257 517 215 l 517 446 m 381 1124 q 510 1078 461 1124 q 560 957 560 1032 q 510 835 560 882 q 381 789 461 789 q 249 835 299 789 q 199 957 199 882 q 249 1078 199 1032 q 381 1124 299 1124 m 381 1046 q 315 1021 340 1046 q 289 957 289 996 q 315 893 289 918 q 381 868 340 868 q 446 893 421 868 q 471 957 471 918 q 446 1021 471 996 q 381 1046 421 1046 z "},"ǻ":{"ha":792,"x_min":75,"x_max":764,"o":"m 517 446 q 478 553 517 515 q 374 592 440 592 q 267 563 311 592 q 201 468 222 533 l 76 521 q 180 657 103 606 q 379 708 257 708 q 526 681 463 708 q 627 600 590 654 q 664 461 664 546 l 664 151 q 715 100 664 100 q 764 107 740 100 l 756 4 q 675 -11 724 -11 q 595 5 631 -11 q 540 53 560 21 q 519 135 519 86 l 519 144 l 550 146 q 499 56 538 92 q 408 3 460 21 q 304 -14 357 -14 q 187 7 239 -14 q 105 70 135 28 q 75 175 75 113 q 126 303 75 253 q 269 371 176 353 l 539 424 l 538 319 l 342 279 q 254 247 283 268 q 225 186 225 226 q 255 124 225 147 q 335 101 285 101 q 402 110 369 101 q 461 137 435 118 q 502 185 488 156 q 517 257 517 215 l 517 446 m 381 1124 q 510 1078 461 1124 q 560 957 560 1032 q 510 835 560 882 q 381 789 461 789 q 249 835 299 789 q 199 957 199 882 q 249 1078 199 1032 q 381 1124 299 1124 m 381 1046 q 315 1021 340 1046 q 289 957 289 996 q 315 893 289 918 q 381 868 340 868 q 446 893 421 868 q 471 957 471 918 q 446 1021 471 996 q 381 1046 421 1046 m 326 1176 l 400 1367 l 543 1367 l 438 1176 l 326 1176 z "},"ã":{"ha":792,"x_min":75,"x_max":764,"o":"m 517 446 q 478 553 517 515 q 374 592 440 592 q 267 563 311 592 q 201 468 222 533 l 76 521 q 180 657 103 606 q 379 708 257 708 q 526 681 463 708 q 627 600 590 654 q 664 461 664 546 l 664 151 q 715 100 664 100 q 764 107 740 100 l 756 4 q 675 -11 724 -11 q 595 5 631 -11 q 540 53 560 21 q 519 135 519 86 l 519 144 l 550 146 q 499 56 538 92 q 408 3 460 21 q 304 -14 357 -14 q 187 7 239 -14 q 105 70 135 28 q 75 175 75 113 q 126 303 75 253 q 269 371 176 353 l 539 424 l 538 319 l 342 279 q 254 247 283 268 q 225 186 225 226 q 255 124 225 147 q 335 101 285 101 q 402 110 369 101 q 461 137 435 118 q 502 185 488 156 q 517 257 517 215 l 517 446 m 640 996 q 617 887 638 931 q 563 822 597 843 q 481 800 529 800 q 415 814 442 800 q 367 845 388 828 q 328 876 347 863 q 289 890 310 890 q 245 866 260 890 q 225 799 231 842 l 124 799 q 171 947 129 897 q 288 996 213 996 q 352 982 325 996 q 399 951 379 968 q 437 919 419 933 q 475 906 454 906 q 519 930 504 906 q 540 996 533 954 l 640 996 z "},"æ":{"ha":1238,"x_min":74,"x_max":1165,"o":"m 311 -14 q 190 7 243 -14 q 105 70 136 28 q 74 175 74 113 q 124 302 74 253 q 265 369 175 351 l 517 419 l 517 446 q 477 553 517 515 q 374 592 438 592 q 270 563 315 592 q 201 468 225 533 l 79 521 q 135 619 94 576 q 237 685 176 661 q 371 708 297 708 q 536 670 467 708 q 632 549 606 632 l 586 551 q 653 636 613 601 q 747 690 694 671 q 861 708 800 708 q 1025 667 957 708 q 1129 553 1093 625 q 1165 389 1165 481 q 1164 344 1165 365 q 1160 303 1163 324 l 664 303 l 664 303 q 725 155 668 206 q 865 104 782 104 q 968 131 928 104 q 1035 204 1008 157 l 1153 149 q 1086 62 1128 99 q 989 6 1044 25 q 868 -14 933 -14 q 679 38 758 -14 q 567 188 600 89 l 606 192 q 574 108 600 146 q 507 43 547 71 q 417 1 467 15 q 311 -14 367 -14 m 338 101 q 405 110 372 101 q 463 138 438 119 q 502 185 488 157 q 517 254 517 214 l 517 315 l 342 279 q 254 247 282 268 q 226 186 226 225 q 254 126 226 150 q 338 101 282 101 m 667 417 l 1021 417 q 997 511 1019 472 q 939 570 975 550 q 854 590 903 590 q 729 545 778 590 q 667 417 681 500 z "},"ǽ":{"ha":1238,"x_min":74,"x_max":1165,"o":"m 311 -14 q 190 7 243 -14 q 105 70 136 28 q 74 175 74 113 q 124 302 74 253 q 265 369 175 351 l 517 419 l 517 446 q 477 553 517 515 q 374 592 438 592 q 270 563 315 592 q 201 468 225 533 l 79 521 q 135 619 94 576 q 237 685 176 661 q 371 708 297 708 q 536 670 467 708 q 632 549 606 632 l 586 551 q 653 636 613 601 q 747 690 694 671 q 861 708 800 708 q 1025 667 957 708 q 1129 553 1093 625 q 1165 389 1165 481 q 1164 344 1165 365 q 1160 303 1163 324 l 664 303 l 664 303 q 725 155 668 206 q 865 104 782 104 q 968 131 928 104 q 1035 204 1008 157 l 1153 149 q 1086 62 1128 99 q 989 6 1044 25 q 868 -14 933 -14 q 679 38 758 -14 q 567 188 600 89 l 606 192 q 574 108 600 146 q 507 43 547 71 q 417 1 467 15 q 311 -14 367 -14 m 338 101 q 405 110 372 101 q 463 138 438 119 q 502 185 488 157 q 517 254 517 214 l 517 315 l 342 279 q 254 247 282 268 q 226 186 226 225 q 254 126 226 150 q 338 101 282 101 m 667 417 l 1021 417 q 997 511 1019 472 q 939 570 975 550 q 854 590 903 590 q 729 545 778 590 q 667 417 681 500 m 638 1036 l 788 1036 l 650 803 l 536 803 l 638 1036 z "},"b":{"ha":871,"x_min":115,"x_max":796,"o":"m 488 -14 q 376 10 426 -14 q 290 76 325 33 q 239 171 256 118 l 257 194 l 246 0 l 115 0 l 115 1007 l 264 1007 l 264 519 l 247 543 q 338 662 274 615 q 492 708 401 708 q 645 665 575 708 q 756 542 715 622 q 796 346 796 461 q 755 153 796 233 q 644 29 714 72 q 488 -14 574 -14 m 456 106 q 597 170 546 106 q 647 347 647 235 q 597 524 647 460 q 457 588 547 588 q 356 558 399 588 q 288 474 313 528 q 264 344 264 419 q 288 217 264 271 q 355 135 311 164 q 456 106 399 106 z "},"c":{"ha":781,"x_min":71,"x_max":722,"o":"m 415 708 q 558 684 499 708 q 657 615 617 660 q 718 514 697 571 l 578 458 q 520 556 560 522 q 417 590 481 590 q 310 562 354 590 q 242 479 265 533 q 219 346 219 425 q 243 214 219 268 q 311 132 267 160 q 417 104 356 104 q 499 120 464 104 q 556 166 533 136 q 588 239 579 196 l 722 193 q 662 84 703 131 q 560 12 621 38 q 419 -14 499 -14 q 238 29 317 -14 q 115 153 158 72 q 71 347 71 235 q 115 541 71 460 q 237 665 158 622 q 415 708 315 708 z "},"ć":{"ha":781,"x_min":71,"x_max":722,"o":"m 415 708 q 558 684 499 708 q 657 615 617 660 q 718 514 697 571 l 578 458 q 520 556 560 522 q 417 590 481 590 q 310 562 354 590 q 242 479 265 533 q 219 346 219 425 q 243 214 219 268 q 311 132 267 160 q 417 104 356 104 q 499 120 464 104 q 556 166 533 136 q 588 239 579 196 l 722 193 q 662 84 703 131 q 560 12 621 38 q 419 -14 499 -14 q 238 29 317 -14 q 115 153 158 72 q 71 347 71 235 q 115 541 71 460 q 237 665 158 622 q 415 708 315 708 m 429 1036 l 579 1036 l 442 803 l 328 803 l 429 1036 z "},"č":{"ha":781,"x_min":71,"x_max":722,"o":"m 415 708 q 558 684 499 708 q 657 615 617 660 q 718 514 697 571 l 578 458 q 520 556 560 522 q 417 590 481 590 q 310 562 354 590 q 242 479 265 533 q 219 346 219 425 q 243 214 219 268 q 311 132 267 160 q 417 104 356 104 q 499 120 464 104 q 556 166 533 136 q 588 239 579 196 l 722 193 q 662 84 703 131 q 560 12 621 38 q 419 -14 499 -14 q 238 29 317 -14 q 115 153 158 72 q 71 347 71 235 q 115 541 71 460 q 237 665 158 622 q 415 708 315 708 m 640 1036 l 483 803 l 328 803 l 171 1036 l 293 1036 l 406 888 l 518 1036 l 640 1036 z "},"ç":{"ha":781,"x_min":71,"x_max":722,"o":"m 415 708 q 558 684 499 708 q 657 615 617 660 q 718 514 697 571 l 578 458 q 520 556 560 522 q 417 590 481 590 q 310 562 354 590 q 242 479 265 533 q 219 346 219 425 q 243 214 219 268 q 311 132 267 160 q 417 104 356 104 q 499 120 464 104 q 556 166 533 136 q 588 239 579 196 l 722 193 q 662 84 703 131 q 560 12 621 38 q 419 -14 499 -14 q 238 29 317 -14 q 115 153 158 72 q 71 347 71 235 q 115 541 71 460 q 237 665 158 622 q 415 708 315 708 m 329 8 l 388 43 q 517 -24 478 21 q 557 -133 557 -69 q 508 -251 557 -204 q 381 -299 460 -299 q 302 -287 335 -299 q 246 -258 269 -276 l 276 -168 q 315 -190 294 -181 q 367 -199 336 -199 q 428 -174 404 -199 q 453 -107 453 -150 q 426 -45 453 -71 q 329 8 399 -19 z "},"ḉ":{"ha":781,"x_min":71,"x_max":722,"o":"m 415 708 q 558 684 499 708 q 657 615 617 660 q 718 514 697 571 l 578 458 q 520 556 560 522 q 417 590 481 590 q 310 562 354 590 q 242 479 265 533 q 219 346 219 425 q 243 214 219 268 q 311 132 267 160 q 417 104 356 104 q 499 120 464 104 q 556 166 533 136 q 588 239 579 196 l 722 193 q 662 84 703 131 q 560 12 621 38 q 419 -14 499 -14 q 238 29 317 -14 q 115 153 158 72 q 71 347 71 235 q 115 541 71 460 q 237 665 158 622 q 415 708 315 708 m 329 8 l 388 43 q 517 -24 478 21 q 557 -133 557 -69 q 508 -251 557 -204 q 381 -299 460 -299 q 302 -287 335 -299 q 246 -258 269 -276 l 276 -168 q 315 -190 294 -181 q 367 -199 336 -199 q 428 -174 404 -199 q 453 -107 453 -150 q 426 -45 453 -71 q 329 8 399 -19 m 429 1036 l 579 1036 l 442 803 l 328 803 l 429 1036 z "},"ĉ":{"ha":781,"x_min":71,"x_max":722,"o":"m 415 708 q 558 684 499 708 q 657 615 617 660 q 718 514 697 571 l 578 458 q 520 556 560 522 q 417 590 481 590 q 310 562 354 590 q 242 479 265 533 q 219 346 219 425 q 243 214 219 268 q 311 132 267 160 q 417 104 356 104 q 499 120 464 104 q 556 166 533 136 q 588 239 579 196 l 722 193 q 662 84 703 131 q 560 12 621 38 q 419 -14 499 -14 q 238 29 317 -14 q 115 153 158 72 q 71 347 71 235 q 115 541 71 460 q 237 665 158 622 q 415 708 315 708 m 642 793 l 519 793 l 407 942 l 294 793 l 172 793 l 329 1028 l 485 1028 l 642 793 z "},"ċ":{"ha":781,"x_min":71,"x_max":722,"o":"m 415 708 q 558 684 499 708 q 657 615 617 660 q 718 514 697 571 l 578 458 q 520 556 560 522 q 417 590 481 590 q 310 562 354 590 q 242 479 265 533 q 219 346 219 425 q 243 214 219 268 q 311 132 267 160 q 417 104 356 104 q 499 120 464 104 q 556 166 533 136 q 588 239 579 196 l 722 193 q 662 84 703 131 q 560 12 621 38 q 419 -14 499 -14 q 238 29 317 -14 q 115 153 158 72 q 71 347 71 235 q 115 541 71 460 q 237 665 158 622 q 415 708 315 708 m 407 997 q 478 972 453 997 q 504 906 504 947 q 478 838 504 863 q 407 814 453 814 q 337 838 363 814 q 311 906 311 863 q 337 972 311 947 q 407 997 363 997 z "},"d":{"ha":871,"x_min":75,"x_max":756,"o":"m 382 -14 q 226 29 296 -14 q 115 153 156 72 q 75 346 75 233 q 118 543 75 463 q 233 666 161 624 q 392 708 306 708 q 542 660 481 708 q 624 533 603 611 l 607 518 l 607 1007 l 756 1007 l 756 0 l 624 0 l 613 189 l 632 188 q 586 80 622 125 q 497 10 550 35 q 382 -14 443 -14 m 414 106 q 517 136 474 106 q 583 222 560 167 q 607 356 607 278 q 583 480 607 428 q 517 560 560 532 q 419 588 475 588 q 275 524 326 588 q 224 347 224 460 q 274 170 224 235 q 414 106 324 106 z "},"ð":{"ha":854,"x_min":78,"x_max":774,"o":"m 414 -14 q 235 27 310 -14 q 119 147 160 68 q 78 332 78 225 q 121 518 78 440 q 238 637 164 596 q 404 678 311 678 q 552 644 493 678 q 643 553 611 611 l 632 544 q 590 688 618 622 q 517 809 561 753 q 413 915 474 865 q 272 1011 353 965 l 444 1011 q 580 908 521 968 q 681 773 639 849 q 744 606 722 697 q 765 406 765 514 q 725 185 765 281 q 607 38 685 90 q 414 -14 529 -14 m 421 104 q 531 135 486 104 q 599 218 575 167 q 622 332 622 269 q 599 458 622 407 q 531 535 575 508 q 426 563 488 563 q 321 535 365 563 q 253 458 276 508 q 229 332 229 407 q 281 163 229 222 q 421 104 332 104 m 282 743 l 261 828 l 529 885 l 576 815 l 282 743 m 590 818 l 546 888 l 751 940 l 774 858 l 590 818 z "},"ď":{"ha":925,"x_min":75,"x_max":985,"o":"m 985 1007 l 922 715 l 828 715 l 857 1007 l 985 1007 m 382 -14 q 226 29 296 -14 q 115 153 156 72 q 75 346 75 233 q 118 543 75 463 q 233 666 161 624 q 392 708 306 708 q 542 660 481 708 q 624 533 603 611 l 607 518 l 607 1007 l 756 1007 l 756 0 l 624 0 l 613 189 l 632 188 q 586 80 622 125 q 497 10 550 35 q 382 -14 443 -14 m 414 106 q 517 136 474 106 q 583 222 560 167 q 607 356 607 278 q 583 480 607 428 q 517 560 560 532 q 419 588 475 588 q 275 524 326 588 q 224 347 224 460 q 274 170 224 235 q 414 106 324 106 z "},"đ":{"ha":874,"x_min":75,"x_max":865,"o":"m 403 775 l 403 874 l 865 874 l 865 775 l 403 775 m 382 -14 q 226 29 296 -14 q 115 153 156 72 q 75 346 75 233 q 118 543 75 463 q 233 666 161 624 q 392 708 306 708 q 542 660 481 708 q 624 533 603 611 l 607 518 l 607 1007 l 756 1007 l 756 0 l 624 0 l 613 189 l 632 188 q 586 80 622 125 q 497 10 550 35 q 382 -14 443 -14 m 414 106 q 517 136 474 106 q 583 222 560 167 q 607 356 607 278 q 583 480 607 428 q 517 560 560 532 q 419 588 475 588 q 275 524 326 588 q 224 347 224 460 q 274 170 224 235 q 414 106 324 106 z "},"ḍ":{"ha":871,"x_min":75,"x_max":756,"o":"m 382 -14 q 226 29 296 -14 q 115 153 156 72 q 75 346 75 233 q 118 543 75 463 q 233 666 161 624 q 392 708 306 708 q 542 660 481 708 q 624 533 603 611 l 607 518 l 607 1007 l 756 1007 l 756 0 l 624 0 l 613 189 l 632 188 q 586 80 622 125 q 497 10 550 35 q 382 -14 443 -14 m 414 106 q 517 136 474 106 q 583 222 560 167 q 607 356 607 278 q 583 480 607 428 q 517 560 560 532 q 419 588 475 588 q 275 524 326 588 q 224 347 224 460 q 274 170 224 235 q 414 106 324 106 m 425 -303 q 355 -278 381 -303 q 329 -211 329 -253 q 355 -144 329 -168 q 425 -119 381 -119 q 497 -144 471 -119 q 522 -211 522 -168 q 497 -278 522 -253 q 425 -303 471 -303 z "},"ḏ":{"ha":871,"x_min":75,"x_max":756,"o":"m 382 -14 q 226 29 296 -14 q 115 153 156 72 q 75 346 75 233 q 118 543 75 463 q 233 666 161 624 q 392 708 306 708 q 542 660 481 708 q 624 533 603 611 l 607 518 l 607 1007 l 756 1007 l 756 0 l 624 0 l 613 189 l 632 188 q 586 80 622 125 q 497 10 550 35 q 382 -14 443 -14 m 414 106 q 517 136 474 106 q 583 222 560 167 q 607 356 607 278 q 583 480 607 428 q 517 560 560 532 q 419 588 475 588 q 275 524 326 588 q 224 347 224 460 q 274 170 224 235 q 414 106 324 106 m 660 -122 l 660 -231 l 190 -231 l 190 -122 l 660 -122 z "},"ǳ":{"ha":1606,"x_min":75,"x_max":1539,"o":"m 382 -14 q 226 29 296 -14 q 115 153 156 72 q 75 346 75 233 q 118 543 75 463 q 233 666 161 624 q 392 708 306 708 q 542 660 481 708 q 624 533 603 611 l 607 518 l 607 1007 l 756 1007 l 756 0 l 624 0 l 613 189 l 632 188 q 586 80 622 125 q 497 10 550 35 q 382 -14 443 -14 m 414 106 q 517 136 474 106 q 583 222 560 167 q 607 356 607 278 q 583 480 607 428 q 517 560 560 532 q 419 588 475 588 q 275 524 326 588 q 224 347 224 460 q 274 170 224 235 q 414 106 324 106 m 942 0 l 942 103 l 1278 494 l 1363 581 l 1242 578 l 944 578 l 944 694 l 1526 694 l 1526 592 l 1190 200 l 1107 114 l 1239 117 l 1539 117 l 1539 0 l 942 0 z "},"ǆ":{"ha":1606,"x_min":75,"x_max":1539,"o":"m 382 -14 q 226 29 296 -14 q 115 153 156 72 q 75 346 75 233 q 118 543 75 463 q 233 666 161 624 q 392 708 306 708 q 542 660 481 708 q 624 533 603 611 l 607 518 l 607 1007 l 756 1007 l 756 0 l 624 0 l 613 189 l 632 188 q 586 80 622 125 q 497 10 550 35 q 382 -14 443 -14 m 414 106 q 517 136 474 106 q 583 222 560 167 q 607 356 607 278 q 583 480 607 428 q 517 560 560 532 q 419 588 475 588 q 275 524 326 588 q 224 347 224 460 q 274 170 224 235 q 414 106 324 106 m 942 0 l 942 103 l 1278 494 l 1363 581 l 1242 578 l 944 578 l 944 694 l 1526 694 l 1526 592 l 1190 200 l 1107 114 l 1239 117 l 1539 117 l 1539 0 l 942 0 m 1454 1036 l 1297 803 l 1142 803 l 985 1036 l 1107 1036 l 1219 888 l 1332 1036 l 1454 1036 z "},"e":{"ha":803,"x_min":71,"x_max":731,"o":"m 421 -14 q 238 29 317 -14 q 115 153 158 72 q 71 347 71 235 q 115 541 71 460 q 236 665 158 622 q 413 708 314 708 q 585 667 514 708 q 693 553 656 625 q 731 389 731 481 q 729 342 731 364 q 725 303 728 319 l 167 303 l 167 417 l 660 417 l 586 394 q 539 540 586 489 q 410 590 492 590 q 306 563 350 590 q 238 480 261 535 q 214 346 214 425 q 239 214 214 268 q 310 132 264 160 q 418 104 356 104 q 531 131 488 104 q 599 204 574 157 l 717 149 q 649 62 692 99 q 549 6 607 25 q 421 -14 490 -14 z "},"é":{"ha":803,"x_min":71,"x_max":731,"o":"m 421 -14 q 238 29 317 -14 q 115 153 158 72 q 71 347 71 235 q 115 541 71 460 q 236 665 158 622 q 413 708 314 708 q 585 667 514 708 q 693 553 656 625 q 731 389 731 481 q 729 342 731 364 q 725 303 728 319 l 167 303 l 167 417 l 660 417 l 586 394 q 539 540 586 489 q 410 590 492 590 q 306 563 350 590 q 238 480 261 535 q 214 346 214 425 q 239 214 214 268 q 310 132 264 160 q 418 104 356 104 q 531 131 488 104 q 599 204 574 157 l 717 149 q 649 62 692 99 q 549 6 607 25 q 421 -14 490 -14 m 428 1036 l 578 1036 l 440 803 l 326 803 l 428 1036 z "},"ĕ":{"ha":803,"x_min":71,"x_max":731,"o":"m 421 -14 q 238 29 317 -14 q 115 153 158 72 q 71 347 71 235 q 115 541 71 460 q 236 665 158 622 q 413 708 314 708 q 585 667 514 708 q 693 553 656 625 q 731 389 731 481 q 729 342 731 364 q 725 303 728 319 l 167 303 l 167 417 l 660 417 l 586 394 q 539 540 586 489 q 410 590 492 590 q 306 563 350 590 q 238 480 261 535 q 214 346 214 425 q 239 214 214 268 q 310 132 264 160 q 418 104 356 104 q 531 131 488 104 q 599 204 574 157 l 717 149 q 649 62 692 99 q 549 6 607 25 q 421 -14 490 -14 m 619 1004 q 561 850 619 908 q 406 792 503 792 q 251 850 310 792 q 192 1004 192 908 l 300 1004 q 328 924 301 957 q 406 890 354 890 q 484 924 458 890 q 511 1004 510 957 l 619 1004 z "},"ě":{"ha":803,"x_min":71,"x_max":731,"o":"m 421 -14 q 238 29 317 -14 q 115 153 158 72 q 71 347 71 235 q 115 541 71 460 q 236 665 158 622 q 413 708 314 708 q 585 667 514 708 q 693 553 656 625 q 731 389 731 481 q 729 342 731 364 q 725 303 728 319 l 167 303 l 167 417 l 660 417 l 586 394 q 539 540 586 489 q 410 590 492 590 q 306 563 350 590 q 238 480 261 535 q 214 346 214 425 q 239 214 214 268 q 310 132 264 160 q 418 104 356 104 q 531 131 488 104 q 599 204 574 157 l 717 149 q 649 62 692 99 q 549 6 607 25 q 421 -14 490 -14 m 639 1036 l 482 803 l 326 803 l 169 1036 l 292 1036 l 404 888 l 517 1036 l 639 1036 z "},"ḝ":{"ha":803,"x_min":71,"x_max":731,"o":"m 421 -14 q 238 29 317 -14 q 115 153 158 72 q 71 347 71 235 q 115 541 71 460 q 236 665 158 622 q 413 708 314 708 q 585 667 514 708 q 693 553 656 625 q 731 389 731 481 q 729 342 731 364 q 725 303 728 319 l 167 303 l 167 417 l 660 417 l 586 394 q 539 540 586 489 q 410 590 492 590 q 306 563 350 590 q 238 480 261 535 q 214 346 214 425 q 239 214 214 268 q 310 132 264 160 q 418 104 356 104 q 531 131 488 104 q 599 204 574 157 l 717 149 q 649 62 692 99 q 549 6 607 25 q 421 -14 490 -14 m 331 8 l 389 43 q 519 -24 479 21 q 558 -133 558 -69 q 510 -251 558 -204 q 382 -299 461 -299 q 303 -287 336 -299 q 247 -258 271 -276 l 278 -168 q 317 -190 296 -181 q 368 -199 338 -199 q 430 -174 406 -199 q 454 -107 454 -150 q 427 -45 454 -71 q 331 8 400 -19 m 619 1004 q 561 850 619 908 q 406 792 503 792 q 251 850 310 792 q 192 1004 192 908 l 300 1004 q 328 924 301 957 q 406 890 354 890 q 484 924 458 890 q 511 1004 510 957 l 619 1004 z "},"ê":{"ha":803,"x_min":71,"x_max":731,"o":"m 421 -14 q 238 29 317 -14 q 115 153 158 72 q 71 347 71 235 q 115 541 71 460 q 236 665 158 622 q 413 708 314 708 q 585 667 514 708 q 693 553 656 625 q 731 389 731 481 q 729 342 731 364 q 725 303 728 319 l 167 303 l 167 417 l 660 417 l 586 394 q 539 540 586 489 q 410 590 492 590 q 306 563 350 590 q 238 480 261 535 q 214 346 214 425 q 239 214 214 268 q 310 132 264 160 q 418 104 356 104 q 531 131 488 104 q 599 204 574 157 l 717 149 q 649 62 692 99 q 549 6 607 25 q 421 -14 490 -14 m 640 793 l 518 793 l 406 942 l 293 793 l 171 793 l 328 1028 l 483 1028 l 640 793 z "},"ế":{"ha":803,"x_min":71,"x_max":797,"o":"m 667 1150 l 797 1150 l 689 950 l 586 950 l 667 1150 m 635 793 l 517 793 l 406 940 l 294 793 l 176 793 l 331 1024 l 481 1024 l 635 793 m 421 -14 q 238 29 317 -14 q 115 153 158 72 q 71 347 71 235 q 115 541 71 460 q 235 665 158 622 q 413 708 313 708 q 585 667 514 708 q 693 553 656 625 q 731 389 731 481 q 729 345 731 365 q 725 310 728 325 l 167 310 l 167 413 l 660 413 l 586 392 q 539 539 586 488 q 411 590 492 590 q 306 563 350 590 q 238 480 261 535 q 214 346 214 425 q 239 214 214 268 q 309 132 264 160 q 419 104 354 104 q 531 131 488 104 q 599 204 574 158 l 717 149 q 650 62 693 99 q 549 6 607 25 q 421 -14 490 -14 z "},"ệ":{"ha":803,"x_min":71,"x_max":731,"o":"m 421 -14 q 238 29 317 -14 q 115 153 158 72 q 71 347 71 235 q 115 541 71 460 q 236 665 158 622 q 413 708 314 708 q 585 667 514 708 q 693 553 656 625 q 731 389 731 481 q 729 342 731 364 q 725 303 728 319 l 167 303 l 167 417 l 660 417 l 586 394 q 539 540 586 489 q 410 590 492 590 q 306 563 350 590 q 238 480 261 535 q 214 346 214 425 q 239 214 214 268 q 310 132 264 160 q 418 104 356 104 q 531 131 488 104 q 599 204 574 157 l 717 149 q 649 62 692 99 q 549 6 607 25 q 421 -14 490 -14 m 415 -303 q 345 -278 371 -303 q 319 -211 319 -253 q 345 -144 319 -168 q 415 -119 371 -119 q 487 -144 461 -119 q 513 -211 513 -168 q 487 -278 513 -253 q 415 -303 461 -303 m 640 793 l 518 793 l 406 942 l 293 793 l 171 793 l 328 1028 l 483 1028 l 640 793 z "},"ề":{"ha":803,"x_min":71,"x_max":731,"o":"m 635 1150 l 715 950 l 613 950 l 504 1150 l 635 1150 m 635 793 l 517 793 l 406 940 l 294 793 l 176 793 l 331 1024 l 481 1024 l 635 793 m 421 -14 q 238 29 317 -14 q 115 153 158 72 q 71 347 71 235 q 115 541 71 460 q 235 665 158 622 q 413 708 313 708 q 585 667 514 708 q 693 553 656 625 q 731 389 731 481 q 729 345 731 365 q 725 310 728 325 l 167 310 l 167 413 l 660 413 l 586 392 q 539 539 586 488 q 411 590 492 590 q 306 563 350 590 q 238 480 261 535 q 214 346 214 425 q 239 214 214 268 q 309 132 264 160 q 419 104 354 104 q 531 131 488 104 q 599 204 574 158 l 717 149 q 650 62 693 99 q 549 6 607 25 q 421 -14 490 -14 z "},"ể":{"ha":803,"x_min":71,"x_max":769,"o":"m 636 924 l 594 975 q 649 1013 631 994 q 667 1058 667 1031 q 653 1093 667 1079 q 614 1107 639 1107 q 579 1097 593 1107 q 553 1067 565 1088 l 475 1114 q 535 1181 494 1157 q 631 1204 575 1204 q 702 1188 671 1204 q 751 1144 733 1172 q 769 1078 769 1115 q 753 1010 769 1042 q 706 958 736 979 q 636 924 676 936 m 635 793 l 517 793 l 406 940 l 294 793 l 176 793 l 331 1024 l 481 1024 l 635 793 m 421 -14 q 238 29 317 -14 q 115 153 158 72 q 71 347 71 235 q 115 541 71 460 q 235 665 158 622 q 413 708 313 708 q 585 667 514 708 q 693 553 656 625 q 731 389 731 481 q 729 345 731 365 q 725 310 728 325 l 167 310 l 167 413 l 660 413 l 586 392 q 539 539 586 488 q 411 590 492 590 q 306 563 350 590 q 238 480 261 535 q 214 346 214 425 q 239 214 214 268 q 309 132 264 160 q 419 104 354 104 q 531 131 488 104 q 599 204 574 158 l 717 149 q 650 62 693 99 q 549 6 607 25 q 421 -14 490 -14 z "},"ễ":{"ha":803,"x_min":71,"x_max":731,"o":"m 635 793 l 517 793 l 406 940 l 294 793 l 176 793 l 331 1024 l 481 1024 l 635 793 m 651 1242 q 603 1104 644 1149 q 497 1060 563 1060 q 434 1072 460 1060 q 390 1100 408 1085 q 354 1128 371 1115 q 315 1142 338 1142 q 276 1122 289 1142 q 256 1063 263 1101 l 158 1063 q 205 1200 164 1156 q 315 1244 246 1244 q 377 1231 351 1244 q 422 1203 403 1218 q 456 1175 440 1188 q 493 1163 472 1163 q 533 1182 518 1163 q 553 1242 547 1201 l 651 1242 m 421 -14 q 238 29 317 -14 q 115 153 158 72 q 71 347 71 235 q 115 541 71 460 q 235 665 158 622 q 413 708 313 708 q 585 667 514 708 q 693 553 656 625 q 731 389 731 481 q 729 345 731 365 q 725 310 728 325 l 167 310 l 167 413 l 660 413 l 586 392 q 539 539 586 488 q 411 590 492 590 q 306 563 350 590 q 238 480 261 535 q 214 346 214 425 q 239 214 214 268 q 309 132 264 160 q 419 104 354 104 q 531 131 488 104 q 599 204 574 158 l 717 149 q 650 62 693 99 q 549 6 607 25 q 421 -14 490 -14 z "},"ȅ":{"ha":803,"x_min":71,"x_max":731,"o":"m 421 -14 q 238 29 317 -14 q 115 153 158 72 q 71 347 71 235 q 115 541 71 460 q 236 665 158 622 q 413 708 314 708 q 585 667 514 708 q 693 553 656 625 q 731 389 731 481 q 729 342 731 364 q 725 303 728 319 l 167 303 l 167 417 l 660 417 l 586 394 q 539 540 586 489 q 410 590 492 590 q 306 563 350 590 q 238 480 261 535 q 214 346 214 425 q 239 214 214 268 q 310 132 264 160 q 418 104 356 104 q 531 131 488 104 q 599 204 574 157 l 717 149 q 649 62 692 99 q 549 6 607 25 q 421 -14 490 -14 m 346 803 l 233 803 l 99 1036 l 243 1036 l 346 803 m 606 803 l 493 803 l 358 1036 l 503 1036 l 606 803 z "},"ë":{"ha":803,"x_min":71,"x_max":731,"o":"m 421 -14 q 238 29 317 -14 q 115 153 158 72 q 71 347 71 235 q 115 541 71 460 q 236 665 158 622 q 413 708 314 708 q 585 667 514 708 q 693 553 656 625 q 731 389 731 481 q 729 342 731 364 q 725 303 728 319 l 167 303 l 167 417 l 660 417 l 586 394 q 539 540 586 489 q 410 590 492 590 q 306 563 350 590 q 238 480 261 535 q 214 346 214 425 q 239 214 214 268 q 310 132 264 160 q 418 104 356 104 q 531 131 488 104 q 599 204 574 157 l 717 149 q 649 62 692 99 q 549 6 607 25 q 421 -14 490 -14 m 265 972 q 331 949 307 972 q 356 885 356 925 q 331 822 356 846 q 265 797 307 797 q 200 822 225 797 q 175 885 175 846 q 200 949 175 925 q 265 972 225 972 m 546 972 q 612 949 588 972 q 636 885 636 925 q 612 822 636 846 q 546 797 588 797 q 480 822 504 797 q 456 885 456 846 q 480 949 456 925 q 546 972 504 972 z "},"ė":{"ha":803,"x_min":71,"x_max":731,"o":"m 421 -14 q 238 29 317 -14 q 115 153 158 72 q 71 347 71 235 q 115 541 71 460 q 236 665 158 622 q 413 708 314 708 q 585 667 514 708 q 693 553 656 625 q 731 389 731 481 q 729 342 731 364 q 725 303 728 319 l 167 303 l 167 417 l 660 417 l 586 394 q 539 540 586 489 q 410 590 492 590 q 306 563 350 590 q 238 480 261 535 q 214 346 214 425 q 239 214 214 268 q 310 132 264 160 q 418 104 356 104 q 531 131 488 104 q 599 204 574 157 l 717 149 q 649 62 692 99 q 549 6 607 25 q 421 -14 490 -14 m 406 997 q 477 972 451 997 q 503 906 503 947 q 477 838 503 863 q 406 814 451 814 q 335 838 361 814 q 310 906 310 863 q 335 972 310 947 q 406 997 361 997 z "},"ẹ":{"ha":803,"x_min":71,"x_max":731,"o":"m 421 -14 q 238 29 317 -14 q 115 153 158 72 q 71 347 71 235 q 115 541 71 460 q 236 665 158 622 q 413 708 314 708 q 585 667 514 708 q 693 553 656 625 q 731 389 731 481 q 729 342 731 364 q 725 303 728 319 l 167 303 l 167 417 l 660 417 l 586 394 q 539 540 586 489 q 410 590 492 590 q 306 563 350 590 q 238 480 261 535 q 214 346 214 425 q 239 214 214 268 q 310 132 264 160 q 418 104 356 104 q 531 131 488 104 q 599 204 574 157 l 717 149 q 649 62 692 99 q 549 6 607 25 q 421 -14 490 -14 m 415 -303 q 345 -278 371 -303 q 319 -211 319 -253 q 345 -144 319 -168 q 415 -119 371 -119 q 487 -144 461 -119 q 513 -211 513 -168 q 487 -278 513 -253 q 415 -303 461 -303 z "},"è":{"ha":803,"x_min":71,"x_max":731,"o":"m 421 -14 q 238 29 317 -14 q 115 153 158 72 q 71 347 71 235 q 115 541 71 460 q 236 665 158 622 q 413 708 314 708 q 585 667 514 708 q 693 553 656 625 q 731 389 731 481 q 729 342 731 364 q 725 303 728 319 l 167 303 l 167 417 l 660 417 l 586 394 q 539 540 586 489 q 410 590 492 590 q 306 563 350 590 q 238 480 261 535 q 214 346 214 425 q 239 214 214 268 q 310 132 264 160 q 418 104 356 104 q 531 131 488 104 q 599 204 574 157 l 717 149 q 649 62 692 99 q 549 6 607 25 q 421 -14 490 -14 m 372 1036 l 474 803 l 360 803 l 222 1036 l 372 1036 z "},"ẻ":{"ha":803,"x_min":71,"x_max":731,"o":"m 421 -14 q 238 29 317 -14 q 115 153 158 72 q 71 347 71 235 q 115 541 71 460 q 236 665 158 622 q 413 708 314 708 q 585 667 514 708 q 693 553 656 625 q 731 389 731 481 q 729 342 731 364 q 725 303 728 319 l 167 303 l 167 417 l 660 417 l 586 394 q 539 540 586 489 q 410 590 492 590 q 306 563 350 590 q 238 480 261 535 q 214 346 214 425 q 239 214 214 268 q 310 132 264 160 q 418 104 356 104 q 531 131 488 104 q 599 204 574 157 l 717 149 q 649 62 692 99 q 549 6 607 25 q 421 -14 490 -14 m 393 760 l 350 821 q 411 858 392 839 q 431 904 431 876 q 416 942 431 928 q 375 957 401 957 q 341 947 357 957 q 311 913 325 936 l 235 960 q 294 1031 253 1007 q 392 1054 336 1054 q 465 1038 433 1054 q 516 992 497 1021 q 535 924 535 963 q 517 855 535 886 q 468 800 500 824 q 393 760 436 776 z "},"ȇ":{"ha":803,"x_min":71,"x_max":731,"o":"m 421 -14 q 238 29 317 -14 q 115 153 158 72 q 71 347 71 235 q 115 541 71 460 q 236 665 158 622 q 413 708 314 708 q 585 667 514 708 q 693 553 656 625 q 731 389 731 481 q 729 342 731 364 q 725 303 728 319 l 167 303 l 167 417 l 660 417 l 586 394 q 539 540 586 489 q 410 590 492 590 q 306 563 350 590 q 238 480 261 535 q 214 346 214 425 q 239 214 214 268 q 310 132 264 160 q 418 104 356 104 q 531 131 488 104 q 599 204 574 157 l 717 149 q 649 62 692 99 q 549 6 607 25 q 421 -14 490 -14 m 619 792 l 511 792 q 484 872 510 839 q 406 906 458 906 q 328 872 354 906 q 300 792 301 839 l 192 792 q 251 946 192 888 q 406 1004 310 1004 q 561 946 503 1004 q 619 792 619 888 z "},"ē":{"ha":803,"x_min":71,"x_max":731,"o":"m 421 -14 q 238 29 317 -14 q 115 153 158 72 q 71 347 71 235 q 115 541 71 460 q 236 665 158 622 q 413 708 314 708 q 585 667 514 708 q 693 553 656 625 q 731 389 731 481 q 729 342 731 364 q 725 303 728 319 l 167 303 l 167 417 l 660 417 l 586 394 q 539 540 586 489 q 410 590 492 590 q 306 563 350 590 q 238 480 261 535 q 214 346 214 425 q 239 214 214 268 q 310 132 264 160 q 418 104 356 104 q 531 131 488 104 q 599 204 574 157 l 717 149 q 649 62 692 99 q 549 6 607 25 q 421 -14 490 -14 m 640 925 l 640 817 l 171 817 l 171 925 l 640 925 z "},"ḗ":{"ha":803,"x_min":71,"x_max":731,"o":"m 421 -14 q 238 29 317 -14 q 115 153 158 72 q 71 347 71 235 q 115 541 71 460 q 236 665 158 622 q 413 708 314 708 q 585 667 514 708 q 693 553 656 625 q 731 389 731 481 q 729 342 731 364 q 725 303 728 319 l 167 303 l 167 417 l 660 417 l 586 394 q 539 540 586 489 q 410 590 492 590 q 306 563 350 590 q 238 480 261 535 q 214 346 214 425 q 239 214 214 268 q 310 132 264 160 q 418 104 356 104 q 531 131 488 104 q 599 204 574 157 l 717 149 q 649 62 692 99 q 549 6 607 25 q 421 -14 490 -14 m 640 925 l 640 817 l 171 817 l 171 925 l 640 925 m 424 1251 l 568 1251 l 447 1029 l 333 1029 l 424 1251 z "},"ḕ":{"ha":803,"x_min":71,"x_max":731,"o":"m 421 -14 q 238 29 317 -14 q 115 153 158 72 q 71 347 71 235 q 115 541 71 460 q 236 665 158 622 q 413 708 314 708 q 585 667 514 708 q 693 553 656 625 q 731 389 731 481 q 729 342 731 364 q 725 303 728 319 l 167 303 l 167 417 l 660 417 l 586 394 q 539 540 586 489 q 410 590 492 590 q 306 563 350 590 q 238 480 261 535 q 214 346 214 425 q 239 214 214 268 q 310 132 264 160 q 418 104 356 104 q 531 131 488 104 q 599 204 574 157 l 717 149 q 649 62 692 99 q 549 6 607 25 q 421 -14 490 -14 m 640 925 l 640 817 l 171 817 l 171 925 l 640 925 m 388 1251 l 478 1029 l 364 1029 l 243 1251 l 388 1251 z "},"ę":{"ha":803,"x_min":71,"x_max":731,"o":"m 421 -14 q 238 29 317 -14 q 115 153 158 72 q 71 347 71 235 q 115 541 71 460 q 236 665 158 622 q 413 708 314 708 q 585 667 514 708 q 693 553 656 625 q 731 389 731 481 q 729 342 731 364 q 725 303 728 319 l 167 303 l 167 417 l 660 417 l 586 394 q 539 540 586 489 q 410 590 492 590 q 306 563 350 590 q 238 480 261 535 q 214 346 214 425 q 239 214 214 268 q 310 132 264 160 q 418 104 356 104 q 531 131 488 104 q 599 204 574 157 l 717 149 q 649 62 692 99 q 549 6 607 25 q 421 -14 490 -14 m 453 -310 q 326 -269 371 -310 q 282 -162 282 -229 q 334 -39 282 -85 q 488 39 386 7 l 558 10 q 451 -40 488 -15 q 402 -89 415 -64 q 389 -143 389 -114 q 412 -195 389 -176 q 472 -214 435 -214 q 510 -210 492 -214 q 544 -199 529 -206 l 564 -286 q 514 -303 543 -297 q 453 -310 485 -310 z "},"ẽ":{"ha":803,"x_min":71,"x_max":731,"o":"m 421 -14 q 238 29 317 -14 q 115 153 158 72 q 71 347 71 235 q 115 541 71 460 q 236 665 158 622 q 413 708 314 708 q 585 667 514 708 q 693 553 656 625 q 731 389 731 481 q 729 342 731 364 q 725 303 728 319 l 167 303 l 167 417 l 660 417 l 586 394 q 539 540 586 489 q 410 590 492 590 q 306 563 350 590 q 238 480 261 535 q 214 346 214 425 q 239 214 214 268 q 310 132 264 160 q 418 104 356 104 q 531 131 488 104 q 599 204 574 157 l 717 149 q 649 62 692 99 q 549 6 607 25 q 421 -14 490 -14 m 663 996 q 640 887 660 931 q 585 822 619 843 q 503 800 551 800 q 437 814 464 800 q 390 845 410 828 q 351 876 369 863 q 311 890 332 890 q 267 866 282 890 q 247 799 253 842 l 146 799 q 193 947 151 897 q 310 996 235 996 q 374 982 347 996 q 422 951 401 968 q 459 919 442 933 q 497 906 476 906 q 541 930 526 906 q 563 996 556 954 l 663 996 z "},"ǝ":{"ha":803,"x_min":71,"x_max":731,"o":"m 389 708 q 571 665 494 708 q 689 541 647 622 q 731 347 731 460 q 688 153 731 235 q 570 29 646 72 q 393 -14 494 -14 q 220 31 292 -14 q 110 148 149 75 q 71 306 71 221 q 73 350 71 329 q 78 385 75 371 l 635 385 l 635 282 l 142 282 l 217 303 q 239 198 217 243 q 301 128 261 153 q 394 104 342 104 q 500 132 457 104 q 565 215 543 160 q 588 349 588 271 q 565 481 588 428 q 499 563 543 535 q 390 590 456 590 q 273 560 318 590 q 201 483 228 529 l 83 538 q 153 625 108 586 q 257 686 197 664 q 389 708 317 708 z "},"ə":{"ha":800,"x_min":71,"x_max":729,"o":"m 392 -14 q 221 28 293 -14 q 110 141 149 69 q 71 304 71 213 q 73 347 71 325 q 81 389 75 368 l 633 389 l 633 286 l 144 286 l 221 336 q 219 313 219 325 q 218 292 218 301 q 265 154 218 204 q 393 104 313 104 q 535 163 485 104 q 586 338 586 222 q 565 477 586 421 q 501 562 543 533 q 394 590 458 590 q 288 560 335 590 q 217 478 240 531 l 92 528 q 158 623 117 582 q 260 686 200 664 q 396 708 321 708 q 579 665 506 708 q 691 541 653 622 q 729 347 729 460 q 641 82 729 178 q 392 -14 553 -14 z "},"f":{"ha":556,"x_min":38,"x_max":542,"o":"m 410 1017 q 488 1008 453 1017 q 542 983 524 999 l 514 876 q 479 891 499 886 q 435 896 460 896 q 345 869 378 896 q 313 783 313 843 l 313 682 l 317 644 l 317 0 l 168 0 l 168 794 q 184 889 168 847 q 232 959 200 931 q 309 1002 264 988 q 410 1017 354 1017 m 538 694 l 538 578 l 38 578 l 38 694 l 538 694 z "},"g":{"ha":750,"x_min":44,"x_max":750,"o":"m 726 840 l 750 724 q 742 724 746 724 q 733 725 738 725 q 632 697 667 725 q 597 614 597 668 l 525 647 q 549 747 525 703 q 616 815 572 790 q 715 840 660 840 q 721 840 718 840 q 726 840 724 840 m 507 108 q 671 62 613 108 q 729 -67 729 15 q 683 -191 729 -139 q 559 -271 638 -243 q 379 -299 481 -299 q 126 -246 208 -299 q 44 -114 44 -193 q 84 -17 44 -58 q 218 31 124 25 l 210 8 q 116 53 151 21 q 81 146 81 86 q 126 247 81 206 q 256 296 172 289 l 333 258 l 317 258 q 226 229 253 253 q 200 176 200 206 q 226 125 200 142 q 299 108 251 108 l 507 108 m 379 -187 q 505 -173 456 -187 q 578 -135 554 -158 q 603 -85 603 -112 q 577 -33 603 -53 q 485 -14 551 -14 l 261 -14 q 196 -34 222 -14 q 169 -89 169 -54 q 225 -161 169 -135 q 379 -187 281 -187 m 374 708 q 533 679 465 708 q 637 597 600 650 q 674 474 674 544 q 637 350 674 403 q 533 268 600 297 q 374 239 465 239 q 152 303 229 239 q 75 474 75 368 q 113 597 75 544 q 217 679 150 650 q 374 708 285 708 m 374 604 q 267 569 310 604 q 225 474 225 533 q 267 378 225 414 q 374 342 310 342 q 481 378 439 342 q 524 474 524 414 q 481 569 524 533 q 374 604 439 604 z "},"ğ":{"ha":750,"x_min":44,"x_max":756,"o":"m 731 840 l 756 725 q 751 725 753 725 q 747 725 750 725 q 644 697 681 725 q 607 608 607 668 l 533 643 q 559 747 533 703 q 628 815 585 790 q 725 840 671 840 q 728 840 728 840 q 731 840 729 840 m 507 108 q 671 62 613 108 q 729 -67 729 15 q 683 -191 729 -139 q 559 -271 638 -243 q 379 -299 481 -299 q 126 -246 208 -299 q 44 -114 44 -193 q 84 -17 44 -58 q 218 31 124 25 l 210 8 q 116 53 151 21 q 81 146 81 86 q 126 247 81 206 q 256 296 172 289 l 333 258 l 317 258 q 226 229 253 253 q 200 176 200 206 q 226 125 200 142 q 299 108 251 108 l 507 108 m 379 -187 q 505 -173 456 -187 q 578 -135 554 -158 q 603 -85 603 -112 q 577 -33 603 -53 q 485 -14 551 -14 l 261 -14 q 196 -34 222 -14 q 169 -89 169 -54 q 225 -161 169 -135 q 379 -187 281 -187 m 374 708 q 533 679 465 708 q 637 597 600 650 q 674 474 674 544 q 637 350 674 403 q 533 268 600 297 q 374 239 465 239 q 152 303 229 239 q 75 474 75 368 q 113 597 75 544 q 217 679 150 650 q 374 708 285 708 m 374 604 q 267 569 310 604 q 225 474 225 533 q 267 378 225 414 q 374 342 310 342 q 481 378 439 342 q 524 474 524 414 q 481 569 524 533 q 374 604 439 604 m 601 1004 q 543 850 601 908 q 388 792 485 792 q 233 850 292 792 q 174 1004 174 908 l 282 1004 q 310 924 283 957 q 388 890 336 890 q 466 924 440 890 q 493 1004 492 957 l 601 1004 z "},"ǧ":{"ha":750,"x_min":44,"x_max":750,"o":"m 726 840 l 750 724 q 742 724 746 724 q 733 725 738 725 q 632 697 667 725 q 597 614 597 668 l 525 647 q 549 747 525 703 q 616 815 572 790 q 715 840 660 840 q 721 840 718 840 q 726 840 724 840 m 507 108 q 671 62 613 108 q 729 -67 729 15 q 683 -191 729 -139 q 559 -271 638 -243 q 379 -299 481 -299 q 126 -246 208 -299 q 44 -114 44 -193 q 84 -17 44 -58 q 218 31 124 25 l 210 8 q 116 53 151 21 q 81 146 81 86 q 126 247 81 206 q 256 296 172 289 l 333 258 l 317 258 q 226 229 253 253 q 200 176 200 206 q 226 125 200 142 q 299 108 251 108 l 507 108 m 379 -187 q 505 -173 456 -187 q 578 -135 554 -158 q 603 -85 603 -112 q 577 -33 603 -53 q 485 -14 551 -14 l 261 -14 q 196 -34 222 -14 q 169 -89 169 -54 q 225 -161 169 -135 q 379 -187 281 -187 m 374 708 q 533 679 465 708 q 637 597 600 650 q 674 474 674 544 q 637 350 674 403 q 533 268 600 297 q 374 239 465 239 q 152 303 229 239 q 75 474 75 368 q 113 597 75 544 q 217 679 150 650 q 374 708 285 708 m 374 604 q 267 569 310 604 q 225 474 225 533 q 267 378 225 414 q 374 342 310 342 q 481 378 439 342 q 524 474 524 414 q 481 569 524 533 q 374 604 439 604 m 601 1036 l 444 803 l 289 803 l 132 1036 l 254 1036 l 367 888 l 479 1036 l 601 1036 z "},"ĝ":{"ha":750,"x_min":44,"x_max":756,"o":"m 146 793 l 292 1028 l 439 1028 l 585 793 l 472 793 l 365 944 l 258 793 l 146 793 m 731 840 l 756 725 q 751 725 753 725 q 747 725 750 725 q 644 697 681 725 q 607 608 607 668 l 533 643 q 559 747 533 703 q 628 815 585 790 q 725 840 671 840 q 728 840 728 840 q 731 840 729 840 m 507 108 q 671 62 613 108 q 729 -67 729 15 q 683 -191 729 -139 q 559 -271 638 -243 q 379 -299 481 -299 q 126 -246 208 -299 q 44 -114 44 -193 q 84 -17 44 -58 q 218 31 124 25 l 210 8 q 116 53 151 21 q 81 146 81 86 q 126 247 81 206 q 256 296 172 289 l 333 258 l 317 258 q 226 229 253 253 q 200 176 200 206 q 226 125 200 142 q 299 108 251 108 l 507 108 m 379 -187 q 505 -173 456 -187 q 578 -135 554 -158 q 603 -85 603 -112 q 577 -33 603 -53 q 485 -14 551 -14 l 261 -14 q 196 -34 222 -14 q 169 -89 169 -54 q 225 -161 169 -135 q 379 -187 281 -187 m 374 708 q 533 679 465 708 q 637 597 600 650 q 674 474 674 544 q 637 350 674 403 q 533 268 600 297 q 374 239 465 239 q 152 303 229 239 q 75 474 75 368 q 113 597 75 544 q 217 679 150 650 q 374 708 285 708 m 374 604 q 267 569 310 604 q 225 474 225 533 q 267 378 225 414 q 374 342 310 342 q 481 378 439 342 q 524 474 524 414 q 481 569 524 533 q 374 604 439 604 z "},"ģ":{"ha":750,"x_min":44,"x_max":750,"o":"m 726 840 l 750 724 q 742 724 746 724 q 733 725 738 725 q 632 697 667 725 q 597 614 597 668 l 525 647 q 549 747 525 703 q 616 815 572 790 q 715 840 660 840 q 721 840 718 840 q 726 840 724 840 m 507 108 q 671 62 613 108 q 729 -67 729 15 q 683 -191 729 -139 q 559 -271 638 -243 q 379 -299 481 -299 q 126 -246 208 -299 q 44 -114 44 -193 q 84 -17 44 -58 q 218 31 124 25 l 210 8 q 116 53 151 21 q 81 146 81 86 q 126 247 81 206 q 256 296 172 289 l 333 258 l 317 258 q 226 229 253 253 q 200 176 200 206 q 226 125 200 142 q 299 108 251 108 l 507 108 m 379 -187 q 505 -173 456 -187 q 578 -135 554 -158 q 603 -85 603 -112 q 577 -33 603 -53 q 485 -14 551 -14 l 261 -14 q 196 -34 222 -14 q 169 -89 169 -54 q 225 -161 169 -135 q 379 -187 281 -187 m 374 708 q 533 679 465 708 q 637 597 600 650 q 674 474 674 544 q 637 350 674 403 q 533 268 600 297 q 374 239 465 239 q 152 303 229 239 q 75 474 75 368 q 113 597 75 544 q 217 679 150 650 q 374 708 285 708 m 374 604 q 267 569 310 604 q 225 474 225 533 q 267 378 225 414 q 374 342 310 342 q 481 378 439 342 q 524 474 524 414 q 481 569 524 533 q 374 604 439 604 m 507 1078 l 451 806 l 307 806 l 404 1078 l 507 1078 z "},"ġ":{"ha":750,"x_min":44,"x_max":750,"o":"m 726 840 l 750 724 q 742 724 746 724 q 733 725 738 725 q 632 697 667 725 q 597 614 597 668 l 525 647 q 549 747 525 703 q 616 815 572 790 q 715 840 660 840 q 721 840 718 840 q 726 840 724 840 m 507 108 q 671 62 613 108 q 729 -67 729 15 q 683 -191 729 -139 q 559 -271 638 -243 q 379 -299 481 -299 q 126 -246 208 -299 q 44 -114 44 -193 q 84 -17 44 -58 q 218 31 124 25 l 210 8 q 116 53 151 21 q 81 146 81 86 q 126 247 81 206 q 256 296 172 289 l 333 258 l 317 258 q 226 229 253 253 q 200 176 200 206 q 226 125 200 142 q 299 108 251 108 l 507 108 m 379 -187 q 505 -173 456 -187 q 578 -135 554 -158 q 603 -85 603 -112 q 577 -33 603 -53 q 485 -14 551 -14 l 261 -14 q 196 -34 222 -14 q 169 -89 169 -54 q 225 -161 169 -135 q 379 -187 281 -187 m 374 708 q 533 679 465 708 q 637 597 600 650 q 674 474 674 544 q 637 350 674 403 q 533 268 600 297 q 374 239 465 239 q 152 303 229 239 q 75 474 75 368 q 113 597 75 544 q 217 679 150 650 q 374 708 285 708 m 374 604 q 267 569 310 604 q 225 474 225 533 q 267 378 225 414 q 374 342 310 342 q 481 378 439 342 q 524 474 524 414 q 481 569 524 533 q 374 604 439 604 m 368 997 q 440 972 414 997 q 465 906 465 947 q 440 838 465 863 q 368 814 414 814 q 298 838 324 814 q 272 906 272 863 q 298 972 272 947 q 368 997 324 997 z "},"ɂ":{"ha":706,"x_min":15,"x_max":678,"o":"m 357 710 q 524 681 453 710 q 637 597 596 651 q 678 463 678 542 q 642 326 678 381 q 547 242 606 272 q 414 199 488 213 l 414 0 l 265 0 l 265 278 q 419 313 365 292 q 497 365 474 333 q 519 442 519 397 q 476 544 519 508 q 346 579 433 579 q 218 533 264 579 q 156 417 172 488 l 15 468 q 75 594 31 540 q 190 679 119 649 q 357 710 261 710 z "},"ḡ":{"ha":750,"x_min":44,"x_max":750,"o":"m 529 925 l 529 817 l 207 817 l 207 925 l 529 925 m 726 840 l 750 724 q 742 724 746 724 q 733 725 738 725 q 632 697 667 725 q 597 614 597 668 l 525 647 q 549 747 525 703 q 616 815 572 790 q 715 840 660 840 q 721 840 718 840 q 726 840 724 840 m 507 108 q 671 62 613 108 q 729 -67 729 15 q 683 -191 729 -139 q 559 -271 638 -243 q 379 -299 481 -299 q 126 -246 208 -299 q 44 -114 44 -193 q 84 -17 44 -58 q 218 31 124 25 l 210 8 q 116 53 151 21 q 81 146 81 86 q 126 247 81 206 q 256 296 172 289 l 333 258 l 317 258 q 226 229 253 253 q 200 176 200 206 q 226 125 200 142 q 299 108 251 108 l 507 108 m 379 -187 q 505 -173 456 -187 q 578 -135 554 -158 q 603 -85 603 -112 q 577 -33 603 -53 q 485 -14 551 -14 l 261 -14 q 196 -34 222 -14 q 169 -89 169 -54 q 225 -161 169 -135 q 379 -187 281 -187 m 374 708 q 533 679 465 708 q 637 597 600 650 q 674 474 674 544 q 637 350 674 403 q 533 268 600 297 q 374 239 465 239 q 152 303 229 239 q 75 474 75 368 q 113 597 75 544 q 217 679 150 650 q 374 708 285 708 m 374 604 q 267 569 310 604 q 225 474 225 533 q 267 378 225 414 q 374 342 310 342 q 481 378 439 342 q 524 474 524 414 q 481 569 524 533 q 374 604 439 604 z "},"h":{"ha":860,"x_min":115,"x_max":750,"o":"m 115 0 l 115 1007 l 264 1007 l 264 583 q 358 678 299 649 q 489 708 417 708 q 622 680 563 708 q 715 594 681 651 q 750 450 750 538 l 750 0 l 601 0 l 601 403 q 559 546 601 506 q 453 586 517 586 q 365 565 408 586 q 292 495 321 543 q 264 367 264 447 l 264 0 l 115 0 z "},"ħ":{"ha":860,"x_min":8,"x_max":750,"o":"m 8 874 l 471 874 l 471 775 l 8 775 l 8 874 m 115 0 l 115 1007 l 264 1007 l 264 583 q 358 678 299 649 q 489 708 417 708 q 622 680 563 708 q 715 594 681 651 q 750 450 750 538 l 750 0 l 601 0 l 601 403 q 559 546 601 506 q 453 586 517 586 q 365 565 408 586 q 292 495 321 543 q 264 367 264 447 l 264 0 l 115 0 z "},"ḫ":{"ha":860,"x_min":115,"x_max":750,"o":"m 115 0 l 115 1007 l 264 1007 l 264 583 q 358 678 299 649 q 489 708 417 708 q 622 680 563 708 q 715 594 681 651 q 750 450 750 538 l 750 0 l 601 0 l 601 403 q 559 546 601 506 q 453 586 517 586 q 365 565 408 586 q 292 495 321 543 q 264 367 264 447 l 264 0 l 115 0 m 679 -97 q 621 -251 679 -193 q 465 -310 563 -310 q 310 -251 369 -310 q 251 -97 251 -193 l 360 -97 q 388 -178 361 -144 q 465 -211 414 -211 q 544 -178 518 -211 q 571 -97 569 -144 l 679 -97 z "},"ĥ":{"ha":860,"x_min":-36,"x_max":750,"o":"m 115 0 l 115 1007 l 264 1007 l 264 583 q 358 678 299 649 q 489 708 417 708 q 622 680 563 708 q 715 594 681 651 q 750 450 750 538 l 750 0 l 601 0 l 601 403 q 559 546 601 506 q 453 586 517 586 q 365 565 408 586 q 292 495 321 543 q 264 367 264 447 l 264 0 l 115 0 m 417 1090 l 296 1090 l 190 1232 l 85 1090 l -36 1090 l 113 1313 l 268 1313 l 417 1090 z "},"ḥ":{"ha":860,"x_min":115,"x_max":750,"o":"m 115 0 l 115 1007 l 264 1007 l 264 583 q 358 678 299 649 q 489 708 417 708 q 622 680 563 708 q 715 594 681 651 q 750 450 750 538 l 750 0 l 601 0 l 601 403 q 559 546 601 506 q 453 586 517 586 q 365 565 408 586 q 292 495 321 543 q 264 367 264 447 l 264 0 l 115 0 m 465 -303 q 395 -278 421 -303 q 369 -211 369 -253 q 395 -144 369 -168 q 465 -119 421 -119 q 537 -144 511 -119 q 563 -211 563 -168 q 537 -278 563 -253 q 465 -303 511 -303 z "},"i":{"ha":381,"x_min":90,"x_max":289,"o":"m 190 811 q 116 835 142 811 q 90 904 90 860 q 116 972 90 949 q 190 996 142 996 q 263 972 238 996 q 289 904 289 949 q 263 835 289 860 q 190 811 238 811 m 264 694 l 264 0 l 115 0 l 115 694 l 264 694 z "},"ı":{"ha":381,"x_min":115,"x_max":264,"o":"m 264 694 l 264 0 l 115 0 l 115 694 l 264 694 z "},"í":{"ha":381,"x_min":111,"x_max":363,"o":"m 264 694 l 264 0 l 115 0 l 115 694 l 264 694 m 213 1036 l 363 1036 l 225 803 l 111 803 l 213 1036 z "},"ĭ":{"ha":381,"x_min":-25,"x_max":404,"o":"m 264 694 l 264 0 l 115 0 l 115 694 l 264 694 m 404 1004 q 346 850 404 908 q 190 792 288 792 q 35 850 94 792 q -24 1004 -24 908 l 85 1004 q 113 924 86 957 q 190 890 139 890 q 269 924 243 890 q 296 1004 294 957 l 404 1004 z "},"î":{"ha":381,"x_min":-44,"x_max":424,"o":"m 264 694 l 264 0 l 115 0 l 115 694 l 264 694 m 425 793 l 303 793 l 190 942 l 78 793 l -44 793 l 113 1028 l 268 1028 l 425 793 z "},"ȉ":{"ha":381,"x_min":-117,"x_max":390,"o":"m 264 694 l 264 0 l 115 0 l 115 694 l 264 694 m 131 803 l 18 803 l -117 1036 l 28 1036 l 131 803 m 390 803 l 278 803 l 143 1036 l 288 1036 l 390 803 z "},"ï":{"ha":381,"x_min":-17,"x_max":397,"o":"m 308 797 q 242 821 267 797 q 218 885 218 844 q 242 950 218 926 q 308 974 267 974 q 374 950 350 974 q 397 885 397 926 q 374 821 397 844 q 308 797 350 797 m 72 797 q 8 821 32 797 q -17 885 -17 844 q 8 950 -17 926 q 72 974 32 974 q 138 950 114 974 q 163 885 163 926 q 138 821 163 844 q 72 797 114 797 m 264 694 l 264 0 l 115 0 l 115 694 l 264 694 z "},"ḯ":{"ha":381,"x_min":-40,"x_max":421,"o":"m 264 694 l 264 0 l 115 0 l 115 694 l 264 694 m 50 972 q 116 949 92 972 q 140 885 140 925 q 116 822 140 846 q 50 797 92 797 q -15 822 10 797 q -40 885 -40 846 q -15 949 -40 925 q 50 972 10 972 m 331 972 q 397 949 372 972 q 421 885 421 925 q 397 822 421 846 q 331 797 372 797 q 265 822 289 797 q 240 885 240 846 q 265 949 240 925 q 331 972 289 972 m 208 1267 l 353 1267 l 232 1044 l 118 1044 l 208 1267 z "},"ị":{"ha":381,"x_min":90,"x_max":289,"o":"m 190 811 q 116 835 142 811 q 90 904 90 860 q 116 972 90 949 q 190 996 142 996 q 263 972 238 996 q 289 904 289 949 q 263 835 289 860 q 190 811 238 811 m 264 694 l 264 0 l 115 0 l 115 694 l 264 694 m 190 -303 q 120 -278 146 -303 q 94 -211 94 -253 q 120 -144 94 -168 q 190 -119 146 -119 q 262 -144 236 -119 q 288 -211 288 -168 q 262 -278 288 -253 q 190 -303 236 -303 z "},"ì":{"ha":381,"x_min":7,"x_max":264,"o":"m 264 694 l 264 0 l 115 0 l 115 694 l 264 694 m 157 1036 l 258 803 l 144 803 l 7 1036 l 157 1036 z "},"ỉ":{"ha":381,"x_min":19,"x_max":319,"o":"m 264 694 l 264 0 l 115 0 l 115 694 l 264 694 m 178 760 l 135 821 q 196 858 176 839 q 215 904 215 876 q 201 942 215 928 q 160 957 186 957 q 126 947 142 957 q 96 913 110 936 l 19 960 q 79 1031 38 1007 q 176 1054 121 1054 q 250 1038 218 1054 q 301 992 282 1021 q 319 924 319 963 q 302 855 319 886 q 253 800 285 824 q 178 760 221 776 z "},"ȋ":{"ha":381,"x_min":-25,"x_max":404,"o":"m 264 694 l 264 0 l 115 0 l 115 694 l 264 694 m 404 792 l 296 792 q 269 872 294 839 q 190 906 243 906 q 113 872 139 906 q 85 792 86 839 l -24 792 q 35 946 -24 888 q 190 1004 94 1004 q 346 946 288 1004 q 404 792 404 888 z "},"ĳ":{"ha":760,"x_min":90,"x_max":669,"o":"m 190 811 q 116 835 142 811 q 90 904 90 860 q 116 972 90 949 q 190 996 142 996 q 263 972 238 996 q 289 904 289 949 q 263 835 289 860 q 190 811 238 811 m 264 694 l 264 0 l 115 0 l 115 694 l 264 694 m 571 811 q 497 835 522 811 q 471 904 471 860 q 497 972 471 949 q 571 996 522 996 q 644 972 618 996 q 669 904 669 949 q 644 835 669 860 q 571 811 618 811 m 644 694 l 644 -61 q 612 -202 644 -150 q 527 -276 579 -254 q 417 -299 475 -299 q 331 -286 369 -299 q 265 -253 292 -274 l 290 -133 q 337 -161 310 -150 q 397 -172 364 -172 q 469 -144 442 -172 q 496 -47 496 -115 l 496 694 l 644 694 z "},"ī":{"ha":381,"x_min":32,"x_max":349,"o":"m 349 925 l 349 817 l 32 817 l 32 925 l 349 925 m 264 694 l 264 0 l 115 0 l 115 694 l 264 694 z "},"į":{"ha":381,"x_min":1,"x_max":289,"o":"m 169 -319 q 85 -303 124 -319 q 24 -254 47 -286 q 1 -174 1 -222 q 26 -81 1 -119 q 94 -15 50 -43 q 194 39 138 14 l 264 0 q 150 -78 183 -42 q 117 -154 117 -115 q 136 -205 117 -186 q 194 -224 156 -224 q 228 -220 210 -224 q 260 -210 247 -217 l 285 -293 q 235 -312 264 -306 q 169 -319 206 -319 m 190 811 q 116 835 142 811 q 90 904 90 860 q 116 972 90 949 q 190 996 142 996 q 263 972 238 996 q 289 904 289 949 q 263 835 289 860 q 190 811 238 811 m 264 694 l 264 0 l 115 0 l 115 694 l 264 694 z "},"ĩ":{"ha":381,"x_min":-69,"x_max":447,"o":"m 264 694 l 264 0 l 115 0 l 115 694 l 264 694 m 447 996 q 424 887 444 931 q 370 822 404 843 q 288 800 336 800 q 222 814 249 800 q 174 845 194 828 q 135 876 154 863 q 96 890 117 890 q 52 866 67 890 q 32 799 38 842 l -69 799 q -22 947 -64 897 q 94 996 19 996 q 159 982 132 996 q 206 951 186 968 q 244 919 226 933 q 282 906 261 906 q 326 930 311 906 q 347 996 340 954 l 447 996 z "},"j":{"ha":381,"x_min":-115,"x_max":289,"o":"m 190 811 q 116 835 142 811 q 90 904 90 860 q 116 972 90 949 q 190 996 142 996 q 263 972 238 996 q 289 904 289 949 q 263 835 289 860 q 190 811 238 811 m 264 694 l 264 -61 q 231 -202 264 -150 q 147 -276 199 -254 q 36 -299 94 -299 q -50 -286 -11 -299 q -115 -253 -89 -274 l -90 -133 q -44 -161 -71 -150 q 17 -172 -17 -172 q 88 -144 61 -172 q 115 -47 115 -115 l 115 694 l 264 694 z "},"ȷ":{"ha":381,"x_min":-115,"x_max":264,"o":"m 264 694 l 264 -61 q 231 -202 264 -150 q 147 -276 199 -254 q 36 -299 94 -299 q -50 -286 -11 -299 q -115 -253 -89 -274 l -90 -133 q -44 -161 -71 -150 q 17 -172 -17 -172 q 88 -144 61 -172 q 115 -47 115 -115 l 115 694 l 264 694 z "},"ĵ":{"ha":381,"x_min":-115,"x_max":424,"o":"m 264 694 l 264 -61 q 231 -202 264 -150 q 147 -276 199 -254 q 36 -299 94 -299 q -50 -286 -11 -299 q -115 -253 -89 -274 l -90 -133 q -44 -161 -71 -150 q 17 -172 -17 -172 q 88 -144 61 -172 q 115 -47 115 -115 l 115 694 l 264 694 m 425 793 l 303 793 l 190 942 l 78 793 l -44 793 l 113 1028 l 268 1028 l 425 793 z "},"k":{"ha":810,"x_min":115,"x_max":788,"o":"m 771 694 l 461 378 l 429 356 l 211 129 l 210 299 l 594 694 l 771 694 m 264 1007 l 264 0 l 115 0 l 115 1007 l 264 1007 m 479 461 l 788 0 l 615 0 l 368 376 l 479 461 z "},"ķ":{"ha":810,"x_min":115,"x_max":788,"o":"m 771 694 l 461 378 l 429 356 l 211 129 l 210 299 l 594 694 l 771 694 m 264 1007 l 264 0 l 115 0 l 115 1007 l 264 1007 m 479 461 l 788 0 l 615 0 l 368 376 l 479 461 m 515 -99 l 422 -331 l 315 -331 l 371 -99 l 515 -99 z "},"ĸ":{"ha":810,"x_min":115,"x_max":788,"o":"m 771 694 l 461 378 l 429 356 l 211 129 l 210 299 l 596 694 l 771 694 m 264 694 l 264 0 l 115 0 l 115 694 l 264 694 m 479 461 l 788 0 l 615 0 l 368 376 l 479 461 z "},"l":{"ha":433,"x_min":111,"x_max":424,"o":"m 260 1007 l 260 194 q 278 124 260 143 q 338 104 296 104 q 380 108 363 104 q 424 121 397 111 l 407 10 q 353 -8 383 -1 q 292 -14 322 -14 q 155 34 199 -14 q 111 182 111 82 l 111 1007 l 260 1007 z "},"ĺ":{"ha":433,"x_min":103,"x_max":424,"o":"m 260 1007 l 260 194 q 278 124 260 143 q 338 104 296 104 q 380 108 363 104 q 424 121 397 111 l 407 10 q 353 -8 383 -1 q 292 -14 322 -14 q 155 34 199 -14 q 111 182 111 82 l 111 1007 l 260 1007 m 104 1097 l 178 1288 l 321 1288 l 215 1097 l 104 1097 z "},"ľ":{"ha":469,"x_min":111,"x_max":488,"o":"m 488 1007 l 425 715 l 331 715 l 360 1007 l 488 1007 m 260 1007 l 260 194 q 278 124 260 143 q 338 104 296 104 q 380 108 363 104 q 424 121 397 111 l 407 10 q 353 -8 383 -1 q 292 -14 322 -14 q 155 34 199 -14 q 111 182 111 82 l 111 1007 l 260 1007 z "},"ļ":{"ha":433,"x_min":111,"x_max":424,"o":"m 260 1007 l 260 194 q 278 124 260 143 q 338 104 296 104 q 380 108 363 104 q 424 121 397 111 l 407 10 q 353 -8 383 -1 q 292 -14 322 -14 q 155 34 199 -14 q 111 182 111 82 l 111 1007 l 260 1007 m 347 -99 l 254 -331 l 147 -331 l 203 -99 l 347 -99 z "},"ŀ":{"ha":603,"x_min":111,"x_max":593,"o":"m 260 1007 l 260 194 q 278 124 260 143 q 338 104 296 104 q 380 108 363 104 q 424 121 397 111 l 407 10 q 353 -8 383 -1 q 292 -14 322 -14 q 155 34 199 -14 q 111 182 111 82 l 111 1007 l 260 1007 m 489 606 q 565 578 536 606 q 593 506 593 551 q 565 432 593 460 q 489 404 536 404 q 412 432 440 404 q 383 506 383 460 q 412 578 383 551 q 489 606 440 606 z "},"ḷ":{"ha":433,"x_min":111,"x_max":424,"o":"m 260 1007 l 260 194 q 278 124 260 143 q 338 104 296 104 q 380 108 363 104 q 424 121 397 111 l 407 10 q 353 -8 383 -1 q 292 -14 322 -14 q 155 34 199 -14 q 111 182 111 82 l 111 1007 l 260 1007 m 275 -303 q 205 -278 231 -303 q 179 -211 179 -253 q 205 -144 179 -168 q 275 -119 231 -119 q 347 -144 321 -119 q 372 -211 372 -168 q 347 -278 372 -253 q 275 -303 321 -303 z "},"ǉ":{"ha":814,"x_min":111,"x_max":724,"o":"m 260 1007 l 260 194 q 278 124 260 143 q 338 104 296 104 q 380 108 363 104 q 424 121 397 111 l 407 10 q 353 -8 383 -1 q 292 -14 322 -14 q 155 34 199 -14 q 111 182 111 82 l 111 1007 l 260 1007 m 624 811 q 549 835 575 811 q 524 904 524 860 q 549 972 524 949 q 624 996 575 996 q 697 972 671 996 q 722 904 722 949 q 697 835 722 860 q 624 811 671 811 m 697 694 l 697 -61 q 665 -202 697 -150 q 580 -276 632 -254 q 469 -299 528 -299 q 383 -286 422 -299 q 318 -253 344 -274 l 343 -133 q 390 -161 363 -150 q 450 -172 417 -172 q 522 -144 494 -172 q 549 -47 549 -115 l 549 694 l 697 694 z "},"ḻ":{"ha":433,"x_min":106,"x_max":444,"o":"m 444 -122 l 444 -231 l 106 -231 l 106 -122 l 444 -122 m 260 1007 l 260 194 q 278 124 260 143 q 338 104 296 104 q 380 108 363 104 q 424 121 397 111 l 407 10 q 353 -8 383 -1 q 292 -14 322 -14 q 155 34 199 -14 q 111 182 111 82 l 111 1007 l 260 1007 z "},"ł":{"ha":532,"x_min":47,"x_max":489,"o":"m 485 699 l 485 568 l 289 444 l 261 432 l 47 300 l 47 429 l 238 547 l 268 560 l 485 699 m 325 1007 l 325 194 q 343 124 325 143 q 403 104 361 104 q 444 108 428 104 q 489 121 461 111 l 471 10 q 418 -8 449 -1 q 356 -14 388 -14 q 220 34 264 -14 q 176 182 176 82 l 176 1007 l 325 1007 z "},"m":{"ha":1318,"x_min":115,"x_max":1208,"o":"m 115 0 l 115 694 l 247 694 l 254 578 q 351 676 290 644 q 479 708 411 708 q 617 674 554 708 q 713 572 681 640 q 774 649 735 618 q 860 694 813 679 q 953 708 907 708 q 1078 681 1019 708 q 1172 596 1136 653 q 1208 450 1208 539 l 1208 0 l 1060 0 l 1060 426 q 1019 549 1060 511 q 917 586 979 586 q 827 563 868 586 q 761 492 786 539 q 736 378 736 446 l 736 0 l 588 0 l 588 426 q 547 549 588 511 q 444 586 507 586 q 361 564 403 586 q 292 494 319 542 q 264 369 264 447 l 264 0 l 115 0 z "},"ṃ":{"ha":1318,"x_min":115,"x_max":1208,"o":"m 115 0 l 115 694 l 247 694 l 254 578 q 351 676 290 644 q 479 708 411 708 q 617 674 554 708 q 713 572 681 640 q 774 649 735 618 q 860 694 813 679 q 953 708 907 708 q 1078 681 1019 708 q 1172 596 1136 653 q 1208 450 1208 539 l 1208 0 l 1060 0 l 1060 426 q 1019 549 1060 511 q 917 586 979 586 q 827 563 868 586 q 761 492 786 539 q 736 378 736 446 l 736 0 l 588 0 l 588 426 q 547 549 588 511 q 444 586 507 586 q 361 564 403 586 q 292 494 319 542 q 264 369 264 447 l 264 0 l 115 0 m 663 -303 q 592 -278 618 -303 q 567 -211 567 -253 q 592 -144 567 -168 q 663 -119 618 -119 q 734 -144 708 -119 q 760 -211 760 -168 q 734 -278 760 -253 q 663 -303 708 -303 z "},"n":{"ha":860,"x_min":115,"x_max":750,"o":"m 115 0 l 115 694 l 247 694 l 257 514 l 238 533 q 294 633 257 593 q 381 690 331 672 q 489 708 432 708 q 622 680 563 708 q 715 594 681 651 q 750 450 750 538 l 750 0 l 601 0 l 601 404 q 559 547 601 507 q 453 586 517 586 q 364 565 407 586 q 292 496 321 543 q 264 369 264 449 l 264 0 l 115 0 z "},"ń":{"ha":860,"x_min":115,"x_max":750,"o":"m 115 0 l 115 694 l 247 694 l 257 514 l 238 533 q 294 633 257 593 q 381 690 331 672 q 489 708 432 708 q 622 680 563 708 q 715 594 681 651 q 750 450 750 538 l 750 0 l 601 0 l 601 404 q 559 547 601 507 q 453 586 517 586 q 364 565 407 586 q 292 496 321 543 q 264 369 264 449 l 264 0 l 115 0 m 461 1036 l 611 1036 l 474 803 l 360 803 l 461 1036 z "},"ň":{"ha":860,"x_min":115,"x_max":750,"o":"m 115 0 l 115 694 l 247 694 l 257 514 l 238 533 q 294 633 257 593 q 381 690 331 672 q 489 708 432 708 q 622 680 563 708 q 715 594 681 651 q 750 450 750 538 l 750 0 l 601 0 l 601 404 q 559 547 601 507 q 453 586 517 586 q 364 565 407 586 q 292 496 321 543 q 264 369 264 449 l 264 0 l 115 0 m 672 1036 l 515 803 l 360 803 l 203 1036 l 325 1036 l 438 888 l 550 1036 l 672 1036 z "},"ņ":{"ha":860,"x_min":115,"x_max":750,"o":"m 115 0 l 115 694 l 247 694 l 257 514 l 238 533 q 294 633 257 593 q 381 690 331 672 q 489 708 432 708 q 622 680 563 708 q 715 594 681 651 q 750 450 750 538 l 750 0 l 601 0 l 601 404 q 559 547 601 507 q 453 586 517 586 q 364 565 407 586 q 292 496 321 543 q 264 369 264 449 l 264 0 l 115 0 m 538 -99 l 444 -331 l 338 -331 l 393 -99 l 538 -99 z "},"ṅ":{"ha":860,"x_min":115,"x_max":750,"o":"m 115 0 l 115 694 l 247 694 l 257 514 l 238 533 q 294 633 257 593 q 381 690 331 672 q 489 708 432 708 q 622 680 563 708 q 715 594 681 651 q 750 450 750 538 l 750 0 l 601 0 l 601 404 q 559 547 601 507 q 453 586 517 586 q 364 565 407 586 q 292 496 321 543 q 264 369 264 449 l 264 0 l 115 0 m 439 997 q 510 972 485 997 q 536 906 536 947 q 510 838 536 863 q 439 814 485 814 q 369 838 394 814 q 343 906 343 863 q 369 972 343 947 q 439 997 394 997 z "},"ṇ":{"ha":860,"x_min":115,"x_max":750,"o":"m 115 0 l 115 694 l 247 694 l 257 514 l 238 533 q 294 633 257 593 q 381 690 331 672 q 489 708 432 708 q 622 680 563 708 q 715 594 681 651 q 750 450 750 538 l 750 0 l 601 0 l 601 404 q 559 547 601 507 q 453 586 517 586 q 364 565 407 586 q 292 496 321 543 q 264 369 264 449 l 264 0 l 115 0 m 465 -303 q 395 -278 421 -303 q 369 -211 369 -253 q 395 -144 369 -168 q 465 -119 421 -119 q 537 -144 511 -119 q 563 -211 563 -168 q 537 -278 563 -253 q 465 -303 511 -303 z "},"ŋ":{"ha":860,"x_min":115,"x_max":750,"o":"m 750 254 l 750 -57 q 717 -200 750 -147 q 633 -276 685 -253 q 524 -299 581 -299 q 436 -286 475 -299 q 369 -253 397 -274 l 396 -133 q 442 -161 415 -150 q 503 -172 469 -172 q 574 -144 546 -172 q 601 -47 601 -115 l 601 254 l 750 254 m 115 0 l 115 694 l 247 694 l 257 514 l 238 533 q 294 633 257 593 q 381 690 331 672 q 489 708 432 708 q 622 680 563 708 q 715 594 681 651 q 750 450 750 538 l 750 0 l 601 0 l 601 404 q 559 547 601 507 q 453 586 517 586 q 364 565 407 586 q 292 496 321 543 q 264 369 264 449 l 264 0 l 115 0 z "},"ǌ":{"ha":1240,"x_min":115,"x_max":1150,"o":"m 115 0 l 115 694 l 247 694 l 257 514 l 238 533 q 294 633 257 593 q 381 690 331 672 q 489 708 432 708 q 622 680 563 708 q 715 594 681 651 q 750 450 750 538 l 750 0 l 601 0 l 601 404 q 559 547 601 507 q 453 586 517 586 q 364 565 407 586 q 292 496 321 543 q 264 369 264 449 l 264 0 l 115 0 m 1050 811 q 976 835 1001 811 q 950 904 950 860 q 976 972 950 949 q 1050 996 1001 996 q 1123 972 1097 996 q 1149 904 1149 949 q 1123 835 1149 860 q 1050 811 1097 811 m 1124 694 l 1124 -61 q 1091 -202 1124 -150 q 1006 -276 1058 -254 q 896 -299 954 -299 q 810 -286 849 -299 q 744 -253 771 -274 l 769 -133 q 816 -161 789 -150 q 876 -172 843 -172 q 948 -144 921 -172 q 975 -47 975 -115 l 975 694 l 1124 694 z "},"ṉ":{"ha":860,"x_min":115,"x_max":750,"o":"m 115 0 l 115 694 l 247 694 l 257 514 l 238 533 q 294 633 257 593 q 381 690 331 672 q 489 708 432 708 q 622 680 563 708 q 715 594 681 651 q 750 450 750 538 l 750 0 l 601 0 l 601 404 q 559 547 601 507 q 453 586 517 586 q 364 565 407 586 q 292 496 321 543 q 264 369 264 449 l 264 0 l 115 0 m 700 -122 l 700 -231 l 231 -231 l 231 -122 l 700 -122 z "},"ñ":{"ha":860,"x_min":115,"x_max":750,"o":"m 115 0 l 115 694 l 247 694 l 257 514 l 238 533 q 294 633 257 593 q 381 690 331 672 q 489 708 432 708 q 622 680 563 708 q 715 594 681 651 q 750 450 750 538 l 750 0 l 601 0 l 601 404 q 559 547 601 507 q 453 586 517 586 q 364 565 407 586 q 292 496 321 543 q 264 369 264 449 l 264 0 l 115 0 m 696 996 q 673 887 693 931 q 619 822 653 843 q 536 800 585 800 q 470 814 497 800 q 423 845 443 828 q 384 876 403 863 q 344 890 365 890 q 301 866 315 890 q 281 799 286 842 l 179 799 q 226 947 185 897 q 343 996 268 996 q 408 982 381 996 q 455 951 435 968 q 492 919 475 933 q 531 906 510 906 q 574 930 560 906 q 596 996 589 954 l 696 996 z "},"o":{"ha":833,"x_min":71,"x_max":761,"o":"m 417 708 q 596 665 518 708 q 717 541 674 622 q 761 347 761 460 q 717 153 761 235 q 596 29 674 72 q 417 -14 518 -14 q 238 29 315 -14 q 115 153 160 72 q 71 347 71 235 q 115 541 71 460 q 238 665 160 622 q 417 708 315 708 m 417 592 q 310 563 354 592 q 243 481 267 535 q 219 347 219 426 q 243 215 219 269 q 310 131 267 160 q 417 103 354 103 q 522 131 479 103 q 589 215 565 160 q 613 347 613 269 q 589 481 613 426 q 522 563 565 535 q 417 592 479 592 z "},"ó":{"ha":833,"x_min":71,"x_max":761,"o":"m 417 708 q 596 665 518 708 q 717 541 674 622 q 761 347 761 460 q 717 153 761 235 q 596 29 674 72 q 417 -14 518 -14 q 238 29 315 -14 q 115 153 160 72 q 71 347 71 235 q 115 541 71 460 q 238 665 160 622 q 417 708 315 708 m 417 592 q 310 563 354 592 q 243 481 267 535 q 219 347 219 426 q 243 215 219 269 q 310 131 267 160 q 417 103 354 103 q 522 131 479 103 q 589 215 565 160 q 613 347 613 269 q 589 481 613 426 q 522 563 565 535 q 417 592 479 592 m 439 1036 l 589 1036 l 451 803 l 338 803 l 439 1036 z "},"ŏ":{"ha":833,"x_min":71,"x_max":761,"o":"m 417 708 q 596 665 518 708 q 717 541 674 622 q 761 347 761 460 q 717 153 761 235 q 596 29 674 72 q 417 -14 518 -14 q 238 29 315 -14 q 115 153 160 72 q 71 347 71 235 q 115 541 71 460 q 238 665 160 622 q 417 708 315 708 m 417 592 q 310 563 354 592 q 243 481 267 535 q 219 347 219 426 q 243 215 219 269 q 310 131 267 160 q 417 103 354 103 q 522 131 479 103 q 589 215 565 160 q 613 347 613 269 q 589 481 613 426 q 522 563 565 535 q 417 592 479 592 m 631 1004 q 572 850 631 908 q 417 792 514 792 q 262 850 321 792 q 203 1004 203 908 l 311 1004 q 339 924 313 957 q 417 890 365 890 q 495 924 469 890 q 522 1004 521 957 l 631 1004 z "},"ô":{"ha":833,"x_min":71,"x_max":761,"o":"m 417 708 q 596 665 518 708 q 717 541 674 622 q 761 347 761 460 q 717 153 761 235 q 596 29 674 72 q 417 -14 518 -14 q 238 29 315 -14 q 115 153 160 72 q 71 347 71 235 q 115 541 71 460 q 238 665 160 622 q 417 708 315 708 m 417 592 q 310 563 354 592 q 243 481 267 535 q 219 347 219 426 q 243 215 219 269 q 310 131 267 160 q 417 103 354 103 q 522 131 479 103 q 589 215 565 160 q 613 347 613 269 q 589 481 613 426 q 522 563 565 535 q 417 592 479 592 m 651 793 l 529 793 l 417 942 l 304 793 l 182 793 l 339 1028 l 494 1028 l 651 793 z "},"ố":{"ha":833,"x_min":71,"x_max":807,"o":"m 678 1150 l 807 1150 l 700 950 l 597 950 l 678 1150 m 646 793 l 528 793 l 417 940 l 306 793 l 188 793 l 342 1024 l 492 1024 l 646 793 m 417 708 q 596 665 518 708 q 717 541 674 622 q 761 347 761 460 q 717 153 761 235 q 596 29 674 72 q 417 -14 518 -14 q 238 29 315 -14 q 115 153 160 72 q 71 347 71 235 q 115 541 71 460 q 238 665 160 622 q 417 708 315 708 m 417 592 q 310 563 354 592 q 243 481 267 535 q 219 347 219 426 q 243 215 219 269 q 310 131 267 160 q 417 103 354 103 q 522 131 479 103 q 589 215 565 160 q 613 347 613 269 q 589 481 613 426 q 522 563 565 535 q 417 592 479 592 z "},"ộ":{"ha":833,"x_min":71,"x_max":761,"o":"m 417 708 q 596 665 518 708 q 717 541 674 622 q 761 347 761 460 q 717 153 761 235 q 596 29 674 72 q 417 -14 518 -14 q 238 29 315 -14 q 115 153 160 72 q 71 347 71 235 q 115 541 71 460 q 238 665 160 622 q 417 708 315 708 m 417 592 q 310 563 354 592 q 243 481 267 535 q 219 347 219 426 q 243 215 219 269 q 310 131 267 160 q 417 103 354 103 q 522 131 479 103 q 589 215 565 160 q 613 347 613 269 q 589 481 613 426 q 522 563 565 535 q 417 592 479 592 m 417 -303 q 347 -278 372 -303 q 321 -211 321 -253 q 347 -144 321 -168 q 417 -119 372 -119 q 488 -144 463 -119 q 514 -211 514 -168 q 488 -278 514 -253 q 417 -303 463 -303 m 651 793 l 529 793 l 417 942 l 304 793 l 182 793 l 339 1028 l 494 1028 l 651 793 z "},"ồ":{"ha":833,"x_min":71,"x_max":761,"o":"m 644 1150 l 726 950 l 624 950 l 515 1150 l 644 1150 m 646 793 l 528 793 l 417 940 l 306 793 l 188 793 l 342 1024 l 492 1024 l 646 793 m 417 708 q 596 665 518 708 q 717 541 674 622 q 761 347 761 460 q 717 153 761 235 q 596 29 674 72 q 417 -14 518 -14 q 238 29 315 -14 q 115 153 160 72 q 71 347 71 235 q 115 541 71 460 q 238 665 160 622 q 417 708 315 708 m 417 592 q 310 563 354 592 q 243 481 267 535 q 219 347 219 426 q 243 215 219 269 q 310 131 267 160 q 417 103 354 103 q 522 131 479 103 q 589 215 565 160 q 613 347 613 269 q 589 481 613 426 q 522 563 565 535 q 417 592 479 592 z "},"ổ":{"ha":833,"x_min":71,"x_max":781,"o":"m 647 924 l 606 975 q 659 1013 642 994 q 676 1058 676 1031 q 663 1093 676 1079 q 625 1107 650 1107 q 590 1097 604 1107 q 564 1067 575 1088 l 486 1114 q 546 1181 506 1157 q 642 1204 586 1204 q 713 1188 682 1204 q 763 1144 744 1172 q 781 1078 781 1115 q 764 1010 781 1042 q 717 958 747 979 q 647 924 688 936 m 646 793 l 528 793 l 417 940 l 306 793 l 188 793 l 342 1024 l 492 1024 l 646 793 m 417 708 q 596 665 518 708 q 717 541 674 622 q 761 347 761 460 q 717 153 761 235 q 596 29 674 72 q 417 -14 518 -14 q 238 29 315 -14 q 115 153 160 72 q 71 347 71 235 q 115 541 71 460 q 238 665 160 622 q 417 708 315 708 m 417 592 q 310 563 354 592 q 243 481 267 535 q 219 347 219 426 q 243 215 219 269 q 310 131 267 160 q 417 103 354 103 q 522 131 479 103 q 589 215 565 160 q 613 347 613 269 q 589 481 613 426 q 522 563 565 535 q 417 592 479 592 z "},"ỗ":{"ha":833,"x_min":71,"x_max":761,"o":"m 646 793 l 528 793 l 417 940 l 306 793 l 188 793 l 342 1024 l 492 1024 l 646 793 m 663 1242 q 615 1104 656 1149 q 508 1060 574 1060 q 445 1072 471 1060 q 401 1100 419 1085 q 365 1128 382 1115 q 326 1142 347 1142 q 287 1122 300 1142 q 267 1063 274 1101 l 169 1063 q 216 1200 175 1156 q 326 1244 257 1244 q 388 1231 363 1244 q 432 1203 414 1218 q 467 1175 450 1188 q 504 1163 483 1163 q 544 1182 529 1163 q 564 1242 558 1201 l 663 1242 m 417 708 q 596 665 518 708 q 717 541 674 622 q 761 347 761 460 q 717 153 761 235 q 596 29 674 72 q 417 -14 518 -14 q 238 29 315 -14 q 115 153 160 72 q 71 347 71 235 q 115 541 71 460 q 238 665 160 622 q 417 708 315 708 m 417 592 q 310 563 354 592 q 243 481 267 535 q 219 347 219 426 q 243 215 219 269 q 310 131 267 160 q 417 103 354 103 q 522 131 479 103 q 589 215 565 160 q 613 347 613 269 q 589 481 613 426 q 522 563 565 535 q 417 592 479 592 z "},"ȍ":{"ha":833,"x_min":71,"x_max":761,"o":"m 417 708 q 596 665 518 708 q 717 541 674 622 q 761 347 761 460 q 717 153 761 235 q 596 29 674 72 q 417 -14 518 -14 q 238 29 315 -14 q 115 153 160 72 q 71 347 71 235 q 115 541 71 460 q 238 665 160 622 q 417 708 315 708 m 417 592 q 310 563 354 592 q 243 481 267 535 q 219 347 219 426 q 243 215 219 269 q 310 131 267 160 q 417 103 354 103 q 522 131 479 103 q 589 215 565 160 q 613 347 613 269 q 589 481 613 426 q 522 563 565 535 q 417 592 479 592 m 357 803 l 244 803 l 110 1036 l 254 1036 l 357 803 m 617 803 l 504 803 l 369 1036 l 514 1036 l 617 803 z "},"ö":{"ha":833,"x_min":71,"x_max":761,"o":"m 417 708 q 596 665 518 708 q 717 541 674 622 q 761 347 761 460 q 717 153 761 235 q 596 29 674 72 q 417 -14 518 -14 q 238 29 315 -14 q 115 153 160 72 q 71 347 71 235 q 115 541 71 460 q 238 665 160 622 q 417 708 315 708 m 417 592 q 310 563 354 592 q 243 481 267 535 q 219 347 219 426 q 243 215 219 269 q 310 131 267 160 q 417 103 354 103 q 522 131 479 103 q 589 215 565 160 q 613 347 613 269 q 589 481 613 426 q 522 563 565 535 q 417 592 479 592 m 276 972 q 342 949 318 972 q 367 885 367 925 q 342 822 367 846 q 276 797 318 797 q 211 822 236 797 q 186 885 186 846 q 211 949 186 925 q 276 972 236 972 m 557 972 q 623 949 599 972 q 647 885 647 925 q 623 822 647 846 q 557 797 599 797 q 491 822 515 797 q 467 885 467 846 q 491 949 467 925 q 557 972 515 972 z "}}}
